<?xml version="1.0" encoding="UTF-8" standalone="no"?>
<svg
   id="Layer_1"
   data-name="Layer 1"
   viewBox="0 0 365.94525 441.2229"
   width="365.94525"
   height="441.2229"
   version="1.1"
   sodipodi:docname="clock.svg"
   inkscape:version="1.1.2 (0a00cf5339, 2022-02-04)"
   xmlns:inkscape="http://www.inkscape.org/namespaces/inkscape"
   xmlns:sodipodi="http://sodipodi.sourceforge.net/DTD/sodipodi-0.dtd"
   xmlns="http://www.w3.org/2000/svg"
   xmlns:svg="http://www.w3.org/2000/svg"
   xmlns:rdf="http://www.w3.org/1999/02/22-rdf-syntax-ns#"
   xmlns:cc="http://creativecommons.org/ns#"
   xmlns:dc="http://purl.org/dc/elements/1.1/">
  <defs
     id="defs21" />
  <sodipodi:namedview
     id="namedview19"
     pagecolor="#ffffff"
     bordercolor="#666666"
     borderopacity="1.0"
     inkscape:pageshadow="2"
     inkscape:pageopacity="0.0"
     inkscape:pagecheckerboard="0"
     showgrid="false"
     fit-margin-top="0"
     fit-margin-left="0"
     fit-margin-right="0"
     fit-margin-bottom="0"
     inkscape:zoom="1.2265625"
     inkscape:cx="-203.00637"
     inkscape:cy="152.05096"
     inkscape:window-width="2560"
     inkscape:window-height="1364"
     inkscape:window-x="0"
     inkscape:window-y="39"
     inkscape:window-maximized="1"
     inkscape:current-layer="Layer_1" />
  <title
     id="title2">Business performance rupess</title>
  <path
     d="m 43.398256,266.37661 h 24.92206 a 7.0407914,7.0407914 0 1 0 0,-14.08158 H 43.307906 A 169.17848,169.17848 0 0 1 168.80297,94.373587 v -5.42492 C 80.793076,93.147317 11.109195,164.28513 8.103951,252.29503 h 25.012405 a 7.0407914,7.0407914 0 0 1 0,14.08158 H 8.194308 c 4.174016,85.66296 73.772238,155.97231 160.608662,160.12989 v -5.46717 C 99.026376,402.43052 46.990236,340.089 43.398256,266.37661 Z"
     style="fill:#cccccc;stroke-width:1.17347;fill-opacity:1"
     id="path4" />
  <path
     d="m 194.53355,89.677387 q -5.77345,-0.60199 -11.64899,-0.81321 v 2.43142 q 5.75819,-1.00801 11.64899,-1.61821 z"
     style="fill:#2f55d4;stroke-width:1.17347;fill-opacity:1"
     id="path6" />
  <path
     d="m 182.88456,424.14432 v 2.45723 q 5.98467,-0.20301 11.79802,-0.81086 -5.96355,-0.61724 -11.79802,-1.64637 z"
     style="fill:#2f55d4;stroke-width:1.17347;fill-opacity:1"
     id="path8" />
  <g
     id="g2192"
     style="fill:#161c2d;fill-opacity:1">
    <path
       d="m 356.98573,137.07365 c 6.31343,-6.31239 6.31343,-16.54789 0,-22.86028 l -13.8821,-13.88209 c -6.31224,-6.312663 -16.54685,-6.312663 -22.8591,0 l -18.60529,18.4234 C 275.06872,95.772107 242.35387,81.066747 207.52733,76.451257 V 51.632471 h 12.39062 c 8.78254,0.113779 15.92154,-7.053897 15.77254,-15.835914 V 16.16331 C 235.86481,7.318051 228.76482,0.042164 219.91795,0 h -74.06796 c -8.84641,0.04282 -15.94567,7.318508 -15.77137,16.16331 v 19.633247 c -0.14897,8.78155 6.98929,15.949021 15.77137,15.835914 h 12.3918 V 76.453607 C 69.058426,88.681117 0,165.34125 0,257.79975 c 0,100.13179 80.725016,181.7287 180.55288,183.03007 0.39814,0.1383 0.80826,0.23926 1.2251,0.30158 0.36612,0 0.67826,0.0915 1.02913,0.0915 h 0.0774 c 15.82405,-0.0532 31.57501,-2.14907 46.86233,-6.23579 3.79715,-0.9958 6.06808,-4.88122 5.07231,-8.67837 -0.9958,-3.79714 -4.88122,-6.06809 -8.67837,-5.0723 -12.21768,3.21819 -24.76066,5.04165 -37.38895,5.43549 v -26.13659 c 0,-3.88852 -3.15226,-7.04079 -7.04079,-7.04079 -3.88852,0 -7.04079,3.15227 -7.04079,7.04079 v 26.04271 C 87.859676,422.54079 18.340851,353.17794 14.108573,266.37661 h 24.922053 c 3.88852,0 7.04079,-3.15227 7.04079,-7.04079 0,-3.88853 -3.15227,-7.04079 -7.04079,-7.04079 H 14.02291 c 1.167447,-34.2293 12.41416,-65.89581 30.901016,-92.0622 29.0463,-41.11225 75.965784,-68.646703 129.746374,-71.210243 v 26.106083 c 0,3.88853 3.15227,7.0408 7.04079,7.0408 3.88853,0 7.04079,-3.15227 7.04079,-7.0408 V 88.934577 c 88.0099,3.04867 159.96679,74.177093 162.99433,163.360453 h -27.31006 c -3.88852,0 -7.04079,3.15226 -7.04079,7.04079 0,3.88852 3.15227,7.04079 7.04079,7.04079 h 27.21031 c -0.56101,11.01445 -2.16965,21.95044 -4.80417,32.65988 -0.9406,3.75241 1.36415,7.55056 5.12687,8.44895 3.78382,0.92278 7.60107,-1.3894 8.53579,-5.17028 3.61978,-14.55393 5.44672,-29.49579 5.44018,-44.49311 0.0397,-35.5022 -10.30375,-70.24104 -29.75673,-99.93934 z M 222.78238,35.46916 c 0,1.149706 -0.93203,2.081728 -2.08173,2.081728 h -74.45872 c -1.1497,0 -2.08173,-0.932022 -2.08173,-2.081728 V 16.16331 c 0,-1.149706 0.93203,-2.081727 2.08173,-2.081727 h 74.45872 c 1.1497,0 2.08173,0.932021 2.08173,2.081727 z m -50.45901,16.163311 h 21.12237 v 23.441136 c -3.52039,-0.21357 -7.07247,-0.33444 -10.7372,-0.33444 -0.17368,0 -0.25934,0.007 -0.43301,0.007 -0.2077,-0.0188 -0.37316,-0.0317 -0.58673,-0.0317 -0.20517,0.001 -0.40994,0.0182 -0.61255,0.0505 -3.00173,0.0317 -6.40712,0.13378 -8.75405,0.30862 z m 139.84537,76.688299 18.03264,-18.03264 c 0.81353,-0.81181 2.1307,-0.81181 2.94423,0 l 13.88327,13.88092 c 0.81195,0.81393 0.81195,2.13147 0,2.9454 l -19.11693,19.11692 c -4.85665,-6.30292 -10.11533,-12.28557 -15.74321,-17.9106 z"
       style="fill:#161c2d;stroke-width:1.17347;fill-opacity:1"
       id="path12"
       sodipodi:nodetypes="cccccccccccccccccsccsccsccsssccssscscsssccssscccccccssssssssscccscccccccccccc" />
  </g>
  <path
     d="m 248.3205,253.46849 h -58.39515 v -80.8893 a 7.0407914,7.0407914 0 1 0 -14.08158,0 v 87.68015 a 7.0149752,7.0149752 0 0 0 6.74625,7.29073 h 65.73048 a 7.0407914,7.0407914 0 0 0 0,-14.08158 z"
     style="fill:#161c2d;stroke-width:1.17347;fill-opacity:1"
     id="path14" />
  <path
     d="m 365.75503,257.79975 c 0,100.13179 -80.72502,181.7287 -180.55288,183.03007 -0.39813,0.1383 -0.80826,0.23926 -1.2251,0.30158 -0.36612,0 -0.67826,0.0915 -1.02913,0.0915 h -0.0774 c -15.82405,-0.0532 -31.57502,-2.14907 -46.86234,-6.23579 -3.79714,-0.9958 -6.06808,-4.88122 -5.0723,-8.67837 0.99579,-3.79714 4.88121,-6.06809 8.67836,-5.0723 12.21769,3.21819 24.76067,5.04165 37.38895,5.43549 v -26.13659 c 0,-3.88852 3.15227,-7.04079 7.04079,-7.04079 3.88852,0 7.04079,3.15227 7.04079,7.04079 v 26.04271 C 277.8954,422.54076 347.41422,353.17791 351.6465,266.37658 h -24.92205 c -3.88853,0 -7.0408,-3.15227 -7.0408,-7.04079 0,-3.88853 3.15227,-7.04079 7.0408,-7.04079 h 25.00771"
     style="fill:#161c2d;stroke-width:1.17347;fill-opacity:1"
     id="path872"
     sodipodi:nodetypes="cccsccsccsssccsssc" />
  <metadata
     id="metadata1154">
    <rdf:RDF>
      <cc:Work
         rdf:about="">
        <dc:title>Business performance rupess</dc:title>
      </cc:Work>
    </rdf:RDF>
  </metadata>
</svg>
