<?xml version="1.0" encoding="UTF-8" standalone="no"?>
<svg
   height="475pt"
   viewBox="-8 0 475 475.80012"
   width="475pt"
   version="1.1"
   id="svg22"
   sodipodi:docname="user.svg"
   inkscape:version="1.1.2 (0a00cf5339, 2022-02-04)"
   xmlns:inkscape="http://www.inkscape.org/namespaces/inkscape"
   xmlns:sodipodi="http://sodipodi.sourceforge.net/DTD/sodipodi-0.dtd"
   xmlns="http://www.w3.org/2000/svg"
   xmlns:svg="http://www.w3.org/2000/svg">
  <defs
     id="defs26" />
  <sodipodi:namedview
     id="namedview24"
     pagecolor="#ffffff"
     bordercolor="#666666"
     borderopacity="1.0"
     inkscape:pageshadow="2"
     inkscape:pageopacity="0.0"
     inkscape:pagecheckerboard="0"
     inkscape:document-units="pt"
     showgrid="false"
     inkscape:zoom="0.99157895"
     inkscape:cx="263.21656"
     inkscape:cy="345.4087"
     inkscape:window-width="2560"
     inkscape:window-height="1364"
     inkscape:window-x="0"
     inkscape:window-y="39"
     inkscape:window-maximized="1"
     inkscape:current-layer="svg22" />
  <g
     id="g1274">
    <g
       fill="#d4e1f4"
       id="g12"
       style="fill:#b3b3b3"
       transform="translate(64.608659,27.045484)">
      <path
         d="M 124,125.69922 C 124,72.847656 166.84766,30 219.69922,30 c 3.10156,0 6.10156,0.199219 9.10156,0.398438 C 196.71484,5.230469 152.20312,3.152344 117.91406,25.226562 83.621094,47.300781 67.082031,88.675781 76.707031,128.30469 86.328125,167.93359 120.00391,197.11328 160.60156,201 137.48828,182.84766 123.99609,155.08594 124,125.69922 Z m 0,0"
         id="path6"
         style="fill:#b3b3b3" />
      <path
         d="m 219.60156,265.19922 c 11.28906,-0.008 22.55078,1.16406 33.59766,3.5 -25.11719,-15.5 -54.08203,-23.64063 -83.59766,-23.5 -88.10156,0.19922 -159.402341,70.5 -159.199216,166.19922 l 51,-0.0977 C 70.5,326 137.80078,265.39844 219.60156,265.19922 Z m 0,0"
         id="path8"
         style="fill:#b3b3b3" />
    </g>
    <path
       d="m 234.30801,238.44398 c 58.3789,0 105.70312,-47.32032 105.70312,-105.69922 0,-58.375055 -47.32422,-105.699276 -105.70312,-105.699276 -58.375,0 -105.69929,47.324221 -105.69929,105.699276 0.0547,58.35547 47.34772,105.64453 105.69929,105.69922 z m 0,-191.398494 c 47.33203,0 85.70312,38.371094 85.70312,85.699274 0,47.33203 -38.37109,85.69922 -85.70312,85.69922 -47.32813,0 -85.69925,-38.36719 -85.69925,-85.69922 0.0547,-47.308649 38.39065,-85.644586 85.69925,-85.699274 z m 0,0"
       fill="#2f55d4"
       id="path14"
       style="fill:#000000" />
    <path
       d="m 234.51113,262.24476 h -0.40234 c -45.80078,0.10156 -88.30082,17.90234 -119.80088,50.30078 -31.898468,32.69922 -49.39847,77.39844 -49.296907,125.89844 0.01563,2.65234 1.054687,5.19531 2.898438,7.10156 1.878907,1.88281 4.441407,2.92578 7.101564,2.89844 l 244.000125,-0.5 c 5.51953,0 10,-4.47657 10,-10 0,-5.51953 -4.48047,-10 -10,-10 l -233.70325,0.5 c 2.101562,-39.29688 17.40235,-75.19922 43.4024,-101.89844 27.69927,-28.5 65.19929,-44.19922 105.50007,-44.19922 h 0.30078 c 38.15235,-0.19922 74.87891,14.47266 102.39844,40.89844 3.97656,3.8125 10.28906,3.67578 14.10156,-0.30078 3.8086,-3.97657 3.67578,-10.28907 -0.30078,-14.09766 -31.10156,-30.10156 -72.40234,-46.60156 -116.19922,-46.60156 z"
       fill="#2f55d4"
       id="path16"
       style="fill:#000000"
       sodipodi:nodetypes="sccccccscccsccccs" />
    <path
       d="m 234.51113,262.24476 h 0.40234 c 45.80078,0.10156 88.30082,17.90234 119.80089,50.30077 31.89848,32.69922 49.39848,77.39845 49.29691,125.89845 -0.0156,2.65234 -1.05468,5.19531 -2.89843,7.10156 -1.87891,1.88281 -4.44141,2.92578 -7.10156,2.89844 l -244.00015,-0.5 c -5.51954,0 -10,-4.47657 -10,-10 0,-5.51953 4.48046,-10 10,-10 l 233.70327,0.5 c -2.10156,-39.29688 -17.40236,-75.19923 -43.40242,-101.89844 -27.69927,-28.5 -65.19929,-44.19922 -105.50007,-44.19922 h -0.30078 c -38.15235,-0.19922 -74.87891,14.47266 -102.39844,40.89844 -3.97656,3.81249 -10.28906,3.67578 -14.10156,-0.30079 -3.8086,-3.97656 -3.67578,-10.28907 0.30078,-14.09766 31.10156,-30.10156 72.40234,-46.60155 116.19922,-46.60155 z"
       style="fill:#000000;stroke-width:0.751263"
       id="path1076" />
  </g>
</svg>
