<?xml version="1.0" encoding="UTF-8" standalone="no"?>
<!-- Created with Inkscape (http://www.inkscape.org/) -->

<svg
   version="1.1"
   id="svg2"
   xml:space="preserve"
   width="4837.3335"
   height="2205.6001"
   viewBox="0 0 4837.3335 2205.6001"
   sodipodi:docname="error.svg"
   inkscape:version="1.1.2 (0a00cf5339, 2022-02-04)"
   xmlns:inkscape="http://www.inkscape.org/namespaces/inkscape"
   xmlns:sodipodi="http://sodipodi.sourceforge.net/DTD/sodipodi-0.dtd"
   xmlns="http://www.w3.org/2000/svg"
   xmlns:svg="http://www.w3.org/2000/svg"><defs
     id="defs6"><clipPath
       clipPathUnits="userSpaceOnUse"
       id="clipPath20"><path
         d="M 32608.5,2946.5 H 4370.32 c 0,0 -277.12,1450.6 256.02,2316.3 249.25,404.8 818,912.9 2285.96,1214.6 -387.33,1013.19 -117.22,2111.8 722.81,2866.5 658.22,591.35 1597.71,909.9 2570.69,909.9 517.9,0 1045.3,-90.3 1544.7,-277.65 225.3,437.55 640.8,907.45 1400.7,1254.35 528,241.2 1042.2,328 1509.2,328 1024.9,0 1821.8,-418.5 2034.5,-542 93.9,123 378,452.1 920.7,747.1 473.5,257.5 1221.1,523.6 2287.9,523.6 317.7,0 663.7,-23.6 1039.2,-78.1 1466.6,-212.6 2175.8,-785.6 2512.5,-1229 293.6,-386.5 362.5,-737.5 378.6,-871.1 117,12.6 336.9,39.4 618.1,39.4 668.4,0 1683,-151.8 2486.5,-1008.74 708.7,-755.83 844.8,-1873.13 449.3,-2330.74 155.1,67.39 387.6,105.57 661.5,105.57 641.6,0 1509.5,-209.8 2134.9,-745.19 957.1,-819.2 974,-1660.2 966.7,-1913.9 279.4,-43.3 1518.7,-290.2 1518.7,-1258.5 0,-27.8 -27.3,-50.4 -61,-50.4"
         id="path18" /></clipPath></defs><sodipodi:namedview
     id="namedview4"
     pagecolor="#ffffff"
     bordercolor="#666666"
     borderopacity="1.0"
     inkscape:pageshadow="2"
     inkscape:pageopacity="0.0"
     inkscape:pagecheckerboard="0"
     showgrid="false"
     inkscape:zoom="0.26915655"
     inkscape:cx="2416.8091"
     inkscape:cy="1101.5894"
     inkscape:window-width="2560"
     inkscape:window-height="1375"
     inkscape:window-x="0"
     inkscape:window-y="36"
     inkscape:window-maximized="1"
     inkscape:current-layer="g8" /><g
     id="g8"
     inkscape:groupmode="layer"
     inkscape:label="ink_ext_XXXXXX"
     transform="matrix(1.3333333,0,0,-1.3333333,0,2205.6)"><g
       id="g10"
       transform="scale(0.1)"><path
         d="M 36280,0 H 0 V 16542 H 36280 V 0 M 10205.8,10253.8 c -972.98,0 -1912.47,-318.55 -2570.69,-909.9 C 6795.08,8589.2 6524.97,7490.59 6912.3,6477.4 5444.34,6175.7 4875.59,5667.6 4626.34,5262.8 4093.2,4397.1 4370.32,2946.5 4370.32,2946.5 H 32608.5 c 33.7,0 61,22.6 61,50.4 0,968.3 -1239.3,1215.2 -1518.7,1258.5 7.3,253.7 -9.6,1094.7 -966.7,1913.9 -625.4,535.39 -1493.3,745.19 -2134.9,745.19 -273.9,0 -506.4,-38.18 -661.5,-105.57 395.5,457.61 259.4,1574.91 -449.3,2330.74 -803.5,856.94 -1818.1,1008.74 -2486.5,1008.74 -281.2,0 -501.1,-26.8 -618.1,-39.4 -16.1,133.6 -85,484.6 -378.6,871.1 -336.7,443.4 -1045.9,1016.4 -2512.5,1229 -375.5,54.5 -721.5,78.1 -1039.2,78.1 -1066.8,0 -1814.4,-266.1 -2287.9,-523.6 -542.7,-295 -826.8,-624.1 -920.7,-747.1 -212.7,123.5 -1009.6,542 -2034.5,542 -467,0 -981.2,-86.8 -1509.2,-328 -759.9,-346.9 -1175.4,-816.8 -1400.7,-1254.35 -499.4,187.35 -1026.8,277.65 -1544.7,277.65 M 5520.39,7177.29 c -30.98,0 -61.24,-13.11 -78.04,-36.62 -25.28,-35.36 -10.95,-81.36 31.84,-102.25 l 159.98,-78.1 -94.49,-132.2 c -25.27,-35.36 -10.95,-81.37 31.83,-102.25 14.33,-7 30.1,-10.32 45.7,-10.32 30.97,0 61.23,13.11 78.04,36.64 l 94.49,132.2 159.99,-78.09 c 14.32,-6.99 30.09,-10.31 45.68,-10.31 30.98,0 61.25,13.11 78.05,36.64 25.26,35.34 10.94,81.35 -31.85,102.23 l -159.98,78.1 94.5,132.21 c 25.27,35.35 10.94,81.36 -31.84,102.24 -14.33,6.99 -30.11,10.32 -45.7,10.32 -30.97,0 -61.22,-13.11 -78.02,-36.63 l -94.51,-132.21 -159.99,78.09 c -14.32,6.99 -30.09,10.31 -45.68,10.31 M 28097,7494.21 c -23.2,0 -45.9,-9.83 -58.5,-27.46 -19,-26.54 -8.3,-61.05 23.8,-76.72 l 120.1,-58.57 -70.9,-99.19 c -19,-26.52 -8.2,-61.04 23.9,-76.7 10.7,-5.25 22.5,-7.74 34.2,-7.74 23.3,0 46,9.84 58.6,27.48 l 70.9,99.18 120,-58.59 c 10.7,-5.24 22.6,-7.73 34.2,-7.73 23.3,0 46,9.83 58.6,27.49 18.9,26.51 8.2,61.03 -23.9,76.69 l -120,58.58 70.9,99.19 c 18.9,26.51 8.2,61.03 -23.9,76.7 -10.8,5.24 -22.6,7.73 -34.3,7.73 -23.2,0 -45.9,-9.83 -58.5,-27.47 l -70.9,-99.19 -120,58.58 c -10.8,5.25 -22.6,7.74 -34.3,7.74 M 16399,11722.5 c -24.2,0 -47.9,-10.3 -61,-28.6 -19.8,-27.7 -8.6,-63.7 24.9,-80 l 125.1,-61.1 -73.9,-103.4 c -19.8,-27.6 -8.6,-63.6 24.9,-79.9 11.2,-5.5 23.5,-8.1 35.7,-8.1 24.2,0 47.9,10.3 61,28.7 l 73.9,103.3 125.1,-61 c 11.2,-5.5 23.5,-8.1 35.7,-8.1 24.3,0 47.9,10.3 61.1,28.7 19.7,27.6 8.5,63.6 -24.9,79.9 l -125.1,61.1 73.9,103.4 c 19.7,27.6 8.5,63.6 -24.9,79.9 -11.2,5.5 -23.6,8.1 -35.8,8.1 -24.2,0 -47.8,-10.3 -61,-28.7 l -73.9,-103.3 -125.1,61 c -11.2,5.5 -23.5,8.1 -35.7,8.1"
         style="fill:#ffffff;fill-opacity:1;fill-rule:nonzero;stroke:none"
         id="path12" /><g
         id="g14"><g
           id="g16"
           clip-path="url(#clipPath20)"><path
             d="m 32624.3,13422.7 26.9,-676.5 -28902.25,-1150.3 -26.93,676.5 z"
             style="fill:#b3ecf3;fill-opacity:1;fill-rule:nonzero;stroke:none"
             id="path22" /><path
             d="m 32651.2,12746.2 1.5,-37.5 -28902.25,-1150.4 -1.5,37.6 z"
             style="fill:#b3ecf3;fill-opacity:1;fill-rule:nonzero;stroke:none"
             id="path24" /><path
             d="m 32652.7,12708.7 1.5,-37.6 -28902.26,-1150.3 -1.49,37.5 z"
             style="fill:#b3ecf3;fill-opacity:1;fill-rule:nonzero;stroke:none"
             id="path26" /><path
             d="m 32654.2,12671.1 1.5,-37.6 -28902.27,-1150.3 -1.49,37.6 z"
             style="fill:#b3ecf3;fill-opacity:1;fill-rule:nonzero;stroke:none"
             id="path28" /><path
             d="m 32655.7,12633.5 1.5,-37.6 -28902.27,-1150.3 -1.5,37.6 z"
             style="fill:#b3ecf3;fill-opacity:1;fill-rule:nonzero;stroke:none"
             id="path30" /><path
             d="m 32657.2,12595.9 1.5,-37.5 -28902.27,-1150.3 -1.5,37.5 z"
             style="fill:#b3ecf3;fill-opacity:1;fill-rule:nonzero;stroke:none"
             id="path32" /><path
             d="m 32658.7,12558.4 1.5,-37.6 -28902.28,-1150.3 -1.49,37.6 z"
             style="fill:#b3ecf3;fill-opacity:1;fill-rule:nonzero;stroke:none"
             id="path34" /><path
             d="m 32660.2,12520.8 1.5,-37.6 -28902.29,-1150.3 -1.49,37.6 z"
             style="fill:#b3ecf3;fill-opacity:1;fill-rule:nonzero;stroke:none"
             id="path36" /><path
             d="m 32661.7,12483.2 1.5,-37.5 -28902.29,-1150.4 -1.5,37.6 z"
             style="fill:#b3ecf3;fill-opacity:1;fill-rule:nonzero;stroke:none"
             id="path38" /><path
             d="m 32663.2,12445.7 1.5,-37.6 -28902.29,-1150.3 -1.5,37.5 z"
             style="fill:#b3ecf3;fill-opacity:1;fill-rule:nonzero;stroke:none"
             id="path40" /><path
             d="m 32664.7,12408.1 1.5,-37.6 -28902.3,-1150.3 -1.49,37.6 z"
             style="fill:#b3ecf3;fill-opacity:1;fill-rule:nonzero;stroke:none"
             id="path42" /><path
             d="m 32666.2,12370.5 1.5,-37.5 -28902.31,-1150.4 -1.49,37.6 z"
             style="fill:#b3ecf3;fill-opacity:1;fill-rule:nonzero;stroke:none"
             id="path44" /><path
             d="m 32667.7,12333 1.5,-37.6 -28902.31,-1150.3 -1.5,37.5 z"
             style="fill:#b3ecf3;fill-opacity:1;fill-rule:nonzero;stroke:none"
             id="path46" /><path
             d="m 32669.2,12295.4 1.5,-37.6 -28902.31,-1150.3 -1.5,37.6 z"
             style="fill:#b3ecf3;fill-opacity:1;fill-rule:nonzero;stroke:none"
             id="path48" /><path
             d="m 32670.7,12257.8 1.5,-37.5 -28902.32,-1150.4 -1.49,37.6 z"
             style="fill:#b3ecf3;fill-opacity:1;fill-rule:nonzero;stroke:none"
             id="path50" /><path
             d="m 32672.2,12220.3 1.5,-37.6 -28902.32,-1150.3 -1.5,37.5 z"
             style="fill:#b3ecf3;fill-opacity:1;fill-rule:nonzero;stroke:none"
             id="path52" /><path
             d="m 32673.7,12182.7 1.5,-37.6 -28902.33,-1150.3 -1.49,37.6 z"
             style="fill:#b3ecf3;fill-opacity:1;fill-rule:nonzero;stroke:none"
             id="path54" /><path
             d="m 32675.2,12145.1 1.4,-37.5 -28902.23,-1150.4 -1.5,37.6 z"
             style="fill:#b3ecf3;fill-opacity:1;fill-rule:nonzero;stroke:none"
             id="path56" /><path
             d="m 32676.6,12107.6 1.5,-37.6 -28902.24,-1150.3 -1.49,37.5 z"
             style="fill:#b3ecf3;fill-opacity:1;fill-rule:nonzero;stroke:none"
             id="path58" /><path
             d="m 32678.1,12070 1.5,-37.6 -28902.24,-1150.3 -1.5,37.6 z"
             style="fill:#b3ecf3;fill-opacity:1;fill-rule:nonzero;stroke:none"
             id="path60" /><path
             d="m 32679.6,12032.4 1.5,-37.5 -28902.25,-1150.4 -1.49,37.6 z"
             style="fill:#b3ecf3;fill-opacity:1;fill-rule:nonzero;stroke:none"
             id="path62" /><path
             d="m 32681.1,11994.9 1.5,-37.6 -28902.25,-1150.3 -1.5,37.5 z"
             style="fill:#b3ecf3;fill-opacity:1;fill-rule:nonzero;stroke:none"
             id="path64" /><path
             d="m 32682.6,11957.3 1.5,-37.6 -28902.26,-1150.3 -1.49,37.6 z"
             style="fill:#b3ecf3;fill-opacity:1;fill-rule:nonzero;stroke:none"
             id="path66" /><path
             d="m 32684.1,11919.7 1.5,-37.5 -28902.26,-1150.4 -1.5,37.6 z"
             style="fill:#b3ecf3;fill-opacity:1;fill-rule:nonzero;stroke:none"
             id="path68" /><path
             d="m 32685.6,11882.2 1.5,-37.6 -28902.27,-1150.3 -1.49,37.5 z"
             style="fill:#b3ecf3;fill-opacity:1;fill-rule:nonzero;stroke:none"
             id="path70" /><path
             d="m 32687.1,11844.6 1.5,-37.6 -28902.27,-1150.3 -1.5,37.6 z"
             style="fill:#b3ecf3;fill-opacity:1;fill-rule:nonzero;stroke:none"
             id="path72" /><path
             d="m 32688.6,11807 1.5,-37.5 -28902.28,-1150.4 -1.49,37.6 z"
             style="fill:#b3ecf3;fill-opacity:1;fill-rule:nonzero;stroke:none"
             id="path74" /><path
             d="m 32690.1,11769.5 1.5,-37.6 -28902.28,-1150.3 -1.5,37.5 z"
             style="fill:#b3ecf3;fill-opacity:1;fill-rule:nonzero;stroke:none"
             id="path76" /><path
             d="m 32691.6,11731.9 1.5,-37.6 -28902.29,-1150.3 -1.49,37.6 z"
             style="fill:#b3ecf3;fill-opacity:1;fill-rule:nonzero;stroke:none"
             id="path78" /><path
             d="m 32693.1,11694.3 1.5,-37.5 -28902.29,-1150.4 -1.5,37.6 z"
             style="fill:#b3ecf3;fill-opacity:1;fill-rule:nonzero;stroke:none"
             id="path80" /><path
             d="m 32694.6,11656.8 1.5,-37.6 -28902.3,-1150.3 -1.49,37.5 z"
             style="fill:#b3ecf3;fill-opacity:1;fill-rule:nonzero;stroke:none"
             id="path82" /><path
             d="m 32696.1,11619.2 1.5,-37.6 -28902.3,-1150.3 -1.5,37.6 z"
             style="fill:#b3ecf3;fill-opacity:1;fill-rule:nonzero;stroke:none"
             id="path84" /><path
             d="m 32697.6,11581.6 1.5,-37.5 -28902.3,-1150.4 -1.5,37.6 z"
             style="fill:#b3ecf3;fill-opacity:1;fill-rule:nonzero;stroke:none"
             id="path86" /><path
             d="m 32699.1,11544.1 1.5,-37.6 -28902.31,-1150.3 -1.49,37.5 z"
             style="fill:#b3ecf3;fill-opacity:1;fill-rule:nonzero;stroke:none"
             id="path88" /><path
             d="m 32700.6,11506.5 1.5,-37.6 -28902.31,-1150.3 -1.5,37.6 z"
             style="fill:#b3ecf3;fill-opacity:1;fill-rule:nonzero;stroke:none"
             id="path90" /><path
             d="m 32702.1,11468.9 1.5,-37.5 -28902.32,-1150.4 -1.49,37.6 z"
             style="fill:#b3ecf3;fill-opacity:1;fill-rule:nonzero;stroke:none"
             id="path92" /><path
             d="m 32703.6,11431.4 1.5,-37.6 -28902.32,-1150.3 -1.5,37.5 z"
             style="fill:#b3ecf3;fill-opacity:1;fill-rule:nonzero;stroke:none"
             id="path94" /><path
             d="m 32705.1,11393.8 1.5,-37.6 -28902.33,-1150.3 -1.49,37.6 z"
             style="fill:#b3ecf3;fill-opacity:1;fill-rule:nonzero;stroke:none"
             id="path96" /><path
             d="m 32706.6,11356.2 1.4,-37.6 -28902.23,-1150.3 -1.5,37.6 z"
             style="fill:#b3ecf3;fill-opacity:1;fill-rule:nonzero;stroke:none"
             id="path98" /><path
             d="m 32708,11318.6 1.5,-37.5 -28902.24,-1150.3 -1.49,37.5 z"
             style="fill:#b3ecf3;fill-opacity:1;fill-rule:nonzero;stroke:none"
             id="path100" /><path
             d="m 32709.5,11281.1 1.5,-37.6 -28902.24,-1150.3 -1.5,37.6 z"
             style="fill:#b3ecf3;fill-opacity:1;fill-rule:nonzero;stroke:none"
             id="path102" /><path
             d="m 32711,11243.5 1.5,-37.6 -28902.25,-1150.3 -1.49,37.6 z"
             style="fill:#b3ecf3;fill-opacity:1;fill-rule:nonzero;stroke:none"
             id="path104" /><path
             d="m 32712.5,11205.9 1.5,-37.5 -28902.25,-1150.3 -1.5,37.5 z"
             style="fill:#b3ecf3;fill-opacity:1;fill-rule:nonzero;stroke:none"
             id="path106" /><path
             d="m 32714,11168.4 1.5,-37.6 -28902.26,-1150.32 -1.49,37.62 z"
             style="fill:#b3ecf3;fill-opacity:1;fill-rule:nonzero;stroke:none"
             id="path108" /><path
             d="m 32715.5,11130.8 1.5,-37.6 -28902.26,-1150.29 -1.5,37.57 z"
             style="fill:#b3ecf3;fill-opacity:1;fill-rule:nonzero;stroke:none"
             id="path110" /><path
             d="m 32717,11093.2 1.5,-37.5 -28902.27,-1150.35 -1.49,37.56 z"
             style="fill:#b3ecf3;fill-opacity:1;fill-rule:nonzero;stroke:none"
             id="path112" /><path
             d="m 32718.5,11055.7 1.5,-37.6 -28902.27,-1150.32 -1.5,37.57 z"
             style="fill:#b3ecf3;fill-opacity:1;fill-rule:nonzero;stroke:none"
             id="path114" /><path
             d="m 32720,11018.1 1.5,-37.6 -28902.28,-1150.29 -1.49,37.57 z"
             style="fill:#b3ecf3;fill-opacity:1;fill-rule:nonzero;stroke:none"
             id="path116" /><path
             d="m 32721.5,10980.5 1.5,-37.5 -28902.28,-1150.36 -1.5,37.57 z"
             style="fill:#b3ecf3;fill-opacity:1;fill-rule:nonzero;stroke:none"
             id="path118" /><path
             d="m 32723,10943 1.5,-37.6 -28902.29,-1150.33 -1.49,37.57 z"
             style="fill:#b3ecf3;fill-opacity:1;fill-rule:nonzero;stroke:none"
             id="path120" /><path
             d="m 32724.5,10905.4 1.5,-37.6 -28902.29,-1150.29 -1.5,37.56 z"
             style="fill:#b3ecf3;fill-opacity:1;fill-rule:nonzero;stroke:none"
             id="path122" /><path
             d="m 32726,10867.8 1.5,-37.5 -28902.3,-1150.36 -1.49,37.57 z"
             style="fill:#b3ecf3;fill-opacity:1;fill-rule:nonzero;stroke:none"
             id="path124" /><path
             d="m 32727.5,10830.3 1.5,-37.6 -28902.3,-1150.33 -1.5,37.57 z"
             style="fill:#b3ecf3;fill-opacity:1;fill-rule:nonzero;stroke:none"
             id="path126" /><path
             d="m 32729,10792.7 1.5,-37.6 -28902.3,-1150.3 -1.5,37.57 z"
             style="fill:#b3ecf3;fill-opacity:1;fill-rule:nonzero;stroke:none"
             id="path128" /><path
             d="m 32730.5,10755.1 1.5,-37.5 -28902.31,-1150.36 -1.49,37.56 z"
             style="fill:#b3ecf3;fill-opacity:1;fill-rule:nonzero;stroke:none"
             id="path130" /><path
             d="m 32732,10717.6 1.5,-37.6 -28902.32,-1150.33 -1.49,37.57 z"
             style="fill:#b3ecf3;fill-opacity:1;fill-rule:nonzero;stroke:none"
             id="path132" /><path
             d="m 32733.5,10680 1.5,-37.6 -28902.32,-1150.3 -1.5,37.57 z"
             style="fill:#b3ecf3;fill-opacity:1;fill-rule:nonzero;stroke:none"
             id="path134" /><path
             d="m 32735,10642.4 1.5,-37.5 -28902.32,-1150.36 -1.5,37.56 z"
             style="fill:#b3ecf3;fill-opacity:1;fill-rule:nonzero;stroke:none"
             id="path136" /><path
             d="m 32736.5,10604.9 1.5,-37.6 -28902.33,-1150.34 -1.49,37.58 z"
             style="fill:#b3ecf3;fill-opacity:1;fill-rule:nonzero;stroke:none"
             id="path138" /><path
             d="m 32738,10567.3 1.4,-37.6 -28902.24,-1150.3 -1.49,37.56 z"
             style="fill:#b3ecf3;fill-opacity:1;fill-rule:nonzero;stroke:none"
             id="path140" /><path
             d="m 32739.4,10529.7 1.5,-37.5 -28902.24,-1150.37 -1.5,37.57 z"
             style="fill:#b3ecf3;fill-opacity:1;fill-rule:nonzero;stroke:none"
             id="path142" /><path
             d="m 32740.9,10492.2 1.5,-37.6 -28902.24,-1150.34 -1.5,37.57 z"
             style="fill:#b3ecf3;fill-opacity:1;fill-rule:nonzero;stroke:none"
             id="path144" /><path
             d="m 32742.4,10454.6 1.5,-37.6 -28902.25,-1150.3 -1.49,37.56 z"
             style="fill:#b3ecf3;fill-opacity:1;fill-rule:nonzero;stroke:none"
             id="path146" /><path
             d="m 32743.9,10417 1.5,-37.5 -28902.25,-1150.37 -1.5,37.57 z"
             style="fill:#b3ecf3;fill-opacity:1;fill-rule:nonzero;stroke:none"
             id="path148" /><path
             d="m 32745.4,10379.5 1.5,-37.6 -28902.26,-1150.34 -1.49,37.57 z"
             style="fill:#b3ecf3;fill-opacity:1;fill-rule:nonzero;stroke:none"
             id="path150" /><path
             d="m 32746.9,10341.9 1.5,-37.6 -28902.26,-1150.31 -1.5,37.57 z"
             style="fill:#b3ecf3;fill-opacity:1;fill-rule:nonzero;stroke:none"
             id="path152" /><path
             d="m 32748.4,10304.3 1.5,-37.5 -28902.27,-1150.37 -1.49,37.56 z"
             style="fill:#b3ecf3;fill-opacity:1;fill-rule:nonzero;stroke:none"
             id="path154" /><path
             d="m 32749.9,10266.8 1.5,-37.6 -28902.27,-1150.34 -1.5,37.57 z"
             style="fill:#b3ecf3;fill-opacity:1;fill-rule:nonzero;stroke:none"
             id="path156" /><path
             d="m 32751.4,10229.2 1.5,-37.6 -28902.28,-1150.31 -1.49,37.57 z"
             style="fill:#b3ebf3;fill-opacity:1;fill-rule:nonzero;stroke:none"
             id="path158" /><path
             d="m 32752.9,10191.6 1.5,-37.5 -28902.28,-1150.38 -1.5,37.57 z"
             style="fill:#b3ebf3;fill-opacity:1;fill-rule:nonzero;stroke:none"
             id="path160" /><path
             d="m 32754.4,10154.1 1.5,-37.6 -28902.29,-1150.34 -1.49,37.56 z"
             style="fill:#b3ebf3;fill-opacity:1;fill-rule:nonzero;stroke:none"
             id="path162" /><path
             d="m 32755.9,10116.5 1.5,-37.6 -28902.29,-1150.31 -1.5,37.57 z"
             style="fill:#b3ebf3;fill-opacity:1;fill-rule:nonzero;stroke:none"
             id="path164" /><path
             d="m 32757.4,10078.9 1.5,-37.6 -28902.29,-1150.28 -1.5,37.57 z"
             style="fill:#b3ebf3;fill-opacity:1;fill-rule:nonzero;stroke:none"
             id="path166" /><path
             d="m 32758.9,10041.3 1.5,-37.5 -28902.3,-1150.35 -1.49,37.57 z"
             style="fill:#b3ebf3;fill-opacity:1;fill-rule:nonzero;stroke:none"
             id="path168" /><path
             d="m 32760.4,10003.8 1.5,-37.59 -28902.31,-1150.33 -1.49,37.57 z"
             style="fill:#b3ebf3;fill-opacity:1;fill-rule:nonzero;stroke:none"
             id="path170" /><path
             d="m 32761.9,9966.21 1.5,-37.57 -28902.31,-1150.32 -1.5,37.56 z"
             style="fill:#b3eaf3;fill-opacity:1;fill-rule:nonzero;stroke:none"
             id="path172" /><path
             d="m 32763.4,9928.64 1.5,-37.56 -28902.31,-1150.33 -1.5,37.57 z"
             style="fill:#b3eaf3;fill-opacity:1;fill-rule:nonzero;stroke:none"
             id="path174" /><path
             d="m 32764.9,9891.08 1.5,-37.57 -28902.32,-1150.33 -1.49,37.57 z"
             style="fill:#b4eaf3;fill-opacity:1;fill-rule:nonzero;stroke:none"
             id="path176" /><path
             d="m 32766.4,9853.51 1.5,-37.57 -28902.33,-1150.33 -1.49,37.57 z"
             style="fill:#b4eaf3;fill-opacity:1;fill-rule:nonzero;stroke:none"
             id="path178" /><path
             d="m 32767.9,9815.94 1.5,-37.56 -28902.33,-1150.33 -1.5,37.56 z"
             style="fill:#b4eaf3;fill-opacity:1;fill-rule:nonzero;stroke:none"
             id="path180" /><path
             d="m 32769.4,9778.38 1.4,-37.58 -28902.23,-1150.32 -1.5,37.57 z"
             style="fill:#b4eaf3;fill-opacity:1;fill-rule:nonzero;stroke:none"
             id="path182" /><path
             d="m 32770.8,9740.8 1.5,-37.56 -28902.24,-1150.33 -1.49,37.57 z"
             style="fill:#b4eaf3;fill-opacity:1;fill-rule:nonzero;stroke:none"
             id="path184" /><path
             d="m 32772.3,9703.24 1.5,-37.57 -28902.25,-1150.33 -1.49,37.57 z"
             style="fill:#b4eaf3;fill-opacity:1;fill-rule:nonzero;stroke:none"
             id="path186" /><path
             d="m 32773.8,9665.67 1.5,-37.57 -28902.25,-1150.33 -1.5,37.57 z"
             style="fill:#b4e9f3;fill-opacity:1;fill-rule:nonzero;stroke:none"
             id="path188" /><path
             d="m 32775.3,9628.1 1.5,-37.56 -28902.25,-1150.33 -1.5,37.56 z"
             style="fill:#b4e9f3;fill-opacity:1;fill-rule:nonzero;stroke:none"
             id="path190" /><path
             d="m 32776.8,9590.54 1.5,-37.57 -28902.26,-1150.33 -1.49,37.57 z"
             style="fill:#b4e9f3;fill-opacity:1;fill-rule:nonzero;stroke:none"
             id="path192" /><path
             d="m 32778.3,9552.97 1.5,-37.57 -28902.26,-1150.33 -1.5,37.57 z"
             style="fill:#b4e9f3;fill-opacity:1;fill-rule:nonzero;stroke:none"
             id="path194" /><path
             d="m 32779.8,9515.4 1.5,-37.57 -28902.27,-1150.33 -1.49,37.57 z"
             style="fill:#b4e9f3;fill-opacity:1;fill-rule:nonzero;stroke:none"
             id="path196" /><path
             d="m 32781.3,9477.83 1.5,-37.56 -28902.27,-1150.33 -1.5,37.56 z"
             style="fill:#b4e9f3;fill-opacity:1;fill-rule:nonzero;stroke:none"
             id="path198" /><path
             d="m 32782.8,9440.27 1.5,-37.57 -28902.28,-1150.33 -1.49,37.57 z"
             style="fill:#b4e9f3;fill-opacity:1;fill-rule:nonzero;stroke:none"
             id="path200" /><path
             d="m 32784.3,9402.7 1.5,-37.57 -28902.28,-1150.33 -1.5,37.57 z"
             style="fill:#b4e8f3;fill-opacity:1;fill-rule:nonzero;stroke:none"
             id="path202" /><path
             d="m 32785.8,9365.13 1.5,-37.57 -28902.29,-1150.33 -1.49,37.57 z"
             style="fill:#b4e8f3;fill-opacity:1;fill-rule:nonzero;stroke:none"
             id="path204" /><path
             d="m 32787.3,9327.56 1.5,-37.56 -28902.29,-1150.33 -1.5,37.56 z"
             style="fill:#b4e8f3;fill-opacity:1;fill-rule:nonzero;stroke:none"
             id="path206" /><path
             d="m 32788.8,9290 1.5,-37.57 L 3888,8102.1 l -1.49,37.57 z"
             style="fill:#b4e8f3;fill-opacity:1;fill-rule:nonzero;stroke:none"
             id="path208" /><path
             d="m 32790.3,9252.43 1.5,-37.57 -28902.3,-1150.33 -1.5,37.57 z"
             style="fill:#b5e8f3;fill-opacity:1;fill-rule:nonzero;stroke:none"
             id="path210" /><path
             d="m 32791.8,9214.86 1.5,-37.57 -28902.31,-1150.33 -1.49,37.57 z"
             style="fill:#b5e8f3;fill-opacity:1;fill-rule:nonzero;stroke:none"
             id="path212" /><path
             d="m 32793.3,9177.29 1.5,-37.57 -28902.31,-1150.33 -1.5,37.57 z"
             style="fill:#b5e8f3;fill-opacity:1;fill-rule:nonzero;stroke:none"
             id="path214" /><path
             d="m 32794.8,9139.72 1.5,-37.56 -28902.32,-1150.33 -1.49,37.56 z"
             style="fill:#b5e7f3;fill-opacity:1;fill-rule:nonzero;stroke:none"
             id="path216" /><path
             d="m 32796.3,9102.16 1.5,-37.57 -28902.32,-1150.33 -1.5,37.57 z"
             style="fill:#b5e7f3;fill-opacity:1;fill-rule:nonzero;stroke:none"
             id="path218" /><path
             d="m 32797.8,9064.59 1.5,-37.57 -28902.33,-1150.33 -1.49,37.57 z"
             style="fill:#b5e7f3;fill-opacity:1;fill-rule:nonzero;stroke:none"
             id="path220" /><path
             d="m 32799.3,9027.02 1.5,-37.57 -28902.33,-1150.32 -1.5,37.56 z"
             style="fill:#b5e7f3;fill-opacity:1;fill-rule:nonzero;stroke:none"
             id="path222" /><path
             d="m 32800.8,8989.45 1.4,-37.56 -28902.24,-1150.33 -1.49,37.57 z"
             style="fill:#b5e7f3;fill-opacity:1;fill-rule:nonzero;stroke:none"
             id="path224" /><path
             d="m 32802.2,8951.89 1.5,-37.57 -28902.24,-1150.33 -1.5,37.57 z"
             style="fill:#b5e7f3;fill-opacity:1;fill-rule:nonzero;stroke:none"
             id="path226" /><path
             d="m 32803.7,8914.32 1.5,-37.57 -28902.24,-1150.33 -1.5,37.57 z"
             style="fill:#b5e7f3;fill-opacity:1;fill-rule:nonzero;stroke:none"
             id="path228" /><path
             d="m 32805.2,8876.75 1.5,-37.57 -28902.25,-1150.32 -1.49,37.56 z"
             style="fill:#b5e7f3;fill-opacity:1;fill-rule:nonzero;stroke:none"
             id="path230" /><path
             d="m 32806.7,8839.18 1.5,-37.57 -28902.25,-1150.32 -1.5,37.57 z"
             style="fill:#b5e6f3;fill-opacity:1;fill-rule:nonzero;stroke:none"
             id="path232" /><path
             d="m 32808.2,8801.61 1.5,-37.56 -28902.26,-1150.33 -1.49,37.57 z"
             style="fill:#b5e6f3;fill-opacity:1;fill-rule:nonzero;stroke:none"
             id="path234" /><path
             d="m 32809.7,8764.05 1.5,-37.57 -28902.26,-1150.33 -1.5,37.57 z"
             style="fill:#b5e6f3;fill-opacity:1;fill-rule:nonzero;stroke:none"
             id="path236" /><path
             d="m 32811.2,8726.48 1.5,-37.57 -28902.27,-1150.33 -1.49,37.57 z"
             style="fill:#b5e6f3;fill-opacity:1;fill-rule:nonzero;stroke:none"
             id="path238" /><path
             d="m 32812.7,8688.91 1.5,-37.57 -28902.27,-1150.32 -1.5,37.56 z"
             style="fill:#b5e6f3;fill-opacity:1;fill-rule:nonzero;stroke:none"
             id="path240" /><path
             d="m 32814.2,8651.34 1.5,-37.56 -28902.28,-1150.33 -1.49,37.57 z"
             style="fill:#b5e6f2;fill-opacity:1;fill-rule:nonzero;stroke:none"
             id="path242" /><path
             d="m 32815.7,8613.78 1.5,-37.57 -28902.28,-1150.33 -1.5,37.57 z"
             style="fill:#b5e6f2;fill-opacity:1;fill-rule:nonzero;stroke:none"
             id="path244" /><path
             d="m 32817.2,8576.21 1.5,-37.57 -28902.29,-1150.33 -1.49,37.57 z"
             style="fill:#b6e5f2;fill-opacity:1;fill-rule:nonzero;stroke:none"
             id="path246" /><path
             d="m 32818.7,8538.64 1.5,-37.57 -28902.29,-1150.32 -1.5,37.56 z"
             style="fill:#b6e5f2;fill-opacity:1;fill-rule:nonzero;stroke:none"
             id="path248" /><path
             d="m 32820.2,8501.07 1.5,-37.56 -28902.3,-1150.33 -1.49,37.57 z"
             style="fill:#b6e5f2;fill-opacity:1;fill-rule:nonzero;stroke:none"
             id="path250" /><path
             d="m 32821.7,8463.51 1.5,-37.57 -28902.3,-1150.33 -1.5,37.57 z"
             style="fill:#b6e5f2;fill-opacity:1;fill-rule:nonzero;stroke:none"
             id="path252" /><path
             d="m 32823.2,8425.94 1.5,-37.57 -28902.31,-1150.33 -1.49,37.57 z"
             style="fill:#b6e5f2;fill-opacity:1;fill-rule:nonzero;stroke:none"
             id="path254" /><path
             d="m 32824.7,8388.37 1.5,-37.57 -28902.31,-1150.32 -1.5,37.56 z"
             style="fill:#b6e5f2;fill-opacity:1;fill-rule:nonzero;stroke:none"
             id="path256" /><path
             d="m 32826.2,8350.8 1.5,-37.57 -28902.32,-1150.32 -1.49,37.57 z"
             style="fill:#b6e5f2;fill-opacity:1;fill-rule:nonzero;stroke:none"
             id="path258" /><path
             d="m 32827.7,8313.23 1.5,-37.56 -28902.32,-1150.33 -1.5,37.57 z"
             style="fill:#b6e4f2;fill-opacity:1;fill-rule:nonzero;stroke:none"
             id="path260" /><path
             d="m 32829.2,8275.67 1.5,-37.57 -28902.32,-1150.33 -1.5,37.57 z"
             style="fill:#b6e4f2;fill-opacity:1;fill-rule:nonzero;stroke:none"
             id="path262" /><path
             d="m 32830.7,8238.1 1.5,-37.57 -28902.33,-1150.33 -1.49,37.57 z"
             style="fill:#b6e4f2;fill-opacity:1;fill-rule:nonzero;stroke:none"
             id="path264" /><path
             d="m 32832.2,8200.53 1.4,-37.57 -28902.24,-1150.32 -1.49,37.56 z"
             style="fill:#b6e4f2;fill-opacity:1;fill-rule:nonzero;stroke:none"
             id="path266" /><path
             d="m 32833.6,8162.96 1.5,-37.56 -28902.24,-1150.33 -1.5,37.57 z"
             style="fill:#b6e4f2;fill-opacity:1;fill-rule:nonzero;stroke:none"
             id="path268" /><path
             d="m 32835.1,8125.4 1.5,-37.57 -28902.24,-1150.33 -1.5,37.57 z"
             style="fill:#b6e4f2;fill-opacity:1;fill-rule:nonzero;stroke:none"
             id="path270" /><path
             d="m 32836.6,8087.83 1.5,-37.57 -28902.25,-1150.33 -1.49,37.57 z"
             style="fill:#b6e4f2;fill-opacity:1;fill-rule:nonzero;stroke:none"
             id="path272" /><path
             d="m 32838.1,8050.26 1.5,-37.56 -28902.26,-1150.33 -1.49,37.56 z"
             style="fill:#b6e4f2;fill-opacity:1;fill-rule:nonzero;stroke:none"
             id="path274" /><path
             d="m 32839.6,8012.7 1.5,-37.57 -28902.26,-1150.33 -1.5,37.57 z"
             style="fill:#b6e3f2;fill-opacity:1;fill-rule:nonzero;stroke:none"
             id="path276" /><path
             d="m 32841.1,7975.13 1.5,-37.57 -28902.26,-1150.33 -1.5,37.57 z"
             style="fill:#b6e3f2;fill-opacity:1;fill-rule:nonzero;stroke:none"
             id="path278" /><path
             d="m 32842.6,7937.56 1.5,-37.57 -28902.27,-1150.33 -1.49,37.57 z"
             style="fill:#b7e3f2;fill-opacity:1;fill-rule:nonzero;stroke:none"
             id="path280" /><path
             d="m 32844.1,7899.99 1.5,-37.57 -28902.28,-1150.33 -1.49,37.57 z"
             style="fill:#b7e3f2;fill-opacity:1;fill-rule:nonzero;stroke:none"
             id="path282" /><path
             d="m 32845.6,7862.42 1.5,-37.56 -28902.28,-1150.33 -1.5,37.56 z"
             style="fill:#b7e3f2;fill-opacity:1;fill-rule:nonzero;stroke:none"
             id="path284" /><path
             d="m 32847.1,7824.86 1.5,-37.57 -28902.28,-1150.33 -1.5,37.57 z"
             style="fill:#b7e3f2;fill-opacity:1;fill-rule:nonzero;stroke:none"
             id="path286" /><path
             d="m 32848.6,7787.29 1.5,-37.57 -28902.29,-1150.33 -1.49,37.57 z"
             style="fill:#b7e3f2;fill-opacity:1;fill-rule:nonzero;stroke:none"
             id="path288" /><path
             d="m 32850.1,7749.72 1.5,-37.57 -28902.29,-1150.33 -1.5,37.57 z"
             style="fill:#b7e2f2;fill-opacity:1;fill-rule:nonzero;stroke:none"
             id="path290" /><path
             d="m 32851.6,7712.15 1.5,-37.56 -28902.3,-1150.33 -1.49,37.56 z"
             style="fill:#b7e2f2;fill-opacity:1;fill-rule:nonzero;stroke:none"
             id="path292" /><path
             d="m 32853.1,7674.59 1.5,-37.57 -28902.3,-1150.33 -1.5,37.57 z"
             style="fill:#b7e2f2;fill-opacity:1;fill-rule:nonzero;stroke:none"
             id="path294" /><path
             d="m 32854.6,7637.02 1.5,-37.57 -28902.31,-1150.33 -1.49,37.57 z"
             style="fill:#b7e2f2;fill-opacity:1;fill-rule:nonzero;stroke:none"
             id="path296" /><path
             d="m 32856.1,7599.45 1.5,-37.57 -28902.31,-1150.33 -1.5,37.57 z"
             style="fill:#b7e2f2;fill-opacity:1;fill-rule:nonzero;stroke:none"
             id="path298" /><path
             d="m 32857.6,7561.88 1.5,-37.56 -28902.32,-1150.33 -1.49,37.56 z"
             style="fill:#b7e2f2;fill-opacity:1;fill-rule:nonzero;stroke:none"
             id="path300" /><path
             d="m 32859.1,7524.32 1.5,-37.57 -28902.32,-1150.33 -1.5,37.57 z"
             style="fill:#b7e2f2;fill-opacity:1;fill-rule:nonzero;stroke:none"
             id="path302" /><path
             d="m 32860.6,7486.75 1.5,-37.57 -28902.33,-1150.33 -1.49,37.57 z"
             style="fill:#b7e1f2;fill-opacity:1;fill-rule:nonzero;stroke:none"
             id="path304" /><path
             d="m 32862.1,7449.18 1.5,-37.57 -28902.33,-1150.32 -1.5,37.56 z"
             style="fill:#b7e1f2;fill-opacity:1;fill-rule:nonzero;stroke:none"
             id="path306" /><path
             d="m 32863.6,7411.61 1.4,-37.57 -28902.23,-1150.33 -1.5,37.58 z"
             style="fill:#b7e1f2;fill-opacity:1;fill-rule:nonzero;stroke:none"
             id="path308" /><path
             d="m 32865,7374.04 1.5,-37.56 -28902.24,-1150.33 -1.49,37.56 z"
             style="fill:#b7e1f2;fill-opacity:1;fill-rule:nonzero;stroke:none"
             id="path310" /><path
             d="m 32866.5,7336.48 1.5,-37.57 -28902.25,-1150.33 -1.49,37.57 z"
             style="fill:#b7e1f2;fill-opacity:1;fill-rule:nonzero;stroke:none"
             id="path312" /><path
             d="m 32868,7298.91 1.5,-37.57 -28902.25,-1150.33 -1.5,37.57 z"
             style="fill:#b8e1f2;fill-opacity:1;fill-rule:nonzero;stroke:none"
             id="path314" /><path
             d="m 32869.5,7261.34 1.5,-37.57 -28902.25,-1150.32 -1.5,37.56 z"
             style="fill:#b8e1f2;fill-opacity:1;fill-rule:nonzero;stroke:none"
             id="path316" /><path
             d="m 32871,7223.77 1.5,-37.56 -28902.26,-1150.33 -1.49,37.57 z"
             style="fill:#b8e1f2;fill-opacity:1;fill-rule:nonzero;stroke:none"
             id="path318" /><path
             d="m 32872.5,7186.21 1.5,-37.57 -28902.27,-1150.33 -1.49,37.57 z"
             style="fill:#b8e0f2;fill-opacity:1;fill-rule:nonzero;stroke:none"
             id="path320" /><path
             d="m 32874,7148.64 1.5,-37.57 -28902.27,-1150.33 -1.5,37.57 z"
             style="fill:#b8e0f2;fill-opacity:1;fill-rule:nonzero;stroke:none"
             id="path322" /><path
             d="m 32875.5,7111.07 1.5,-37.57 -28902.27,-1150.32 -1.5,37.56 z"
             style="fill:#b8e0f2;fill-opacity:1;fill-rule:nonzero;stroke:none"
             id="path324" /><path
             d="m 32877,7073.5 1.5,-37.57 -28902.28,-1150.32 -1.49,37.57 z"
             style="fill:#b8e0f2;fill-opacity:1;fill-rule:nonzero;stroke:none"
             id="path326" /><path
             d="m 32878.5,7035.93 1.5,-37.56 -28902.29,-1150.33 -1.49,37.57 z"
             style="fill:#b8e0f2;fill-opacity:1;fill-rule:nonzero;stroke:none"
             id="path328" /><path
             d="m 32880,6998.37 1.5,-37.57 -28902.29,-1150.33 -1.5,37.57 z"
             style="fill:#b8e0f2;fill-opacity:1;fill-rule:nonzero;stroke:none"
             id="path330" /><path
             d="m 32881.5,6960.8 1.5,-37.57 -28902.29,-1150.33 -1.5,37.57 z"
             style="fill:#b8e0f2;fill-opacity:1;fill-rule:nonzero;stroke:none"
             id="path332" /><path
             d="m 32883,6923.23 1.5,-37.57 -28902.3,-1150.32 -1.49,37.56 z"
             style="fill:#b8dff2;fill-opacity:1;fill-rule:nonzero;stroke:none"
             id="path334" /><path
             d="m 32884.5,6885.66 1.5,-37.56 -28902.3,-1150.33 -1.5,37.57 z"
             style="fill:#b8dff2;fill-opacity:1;fill-rule:nonzero;stroke:none"
             id="path336" /><path
             d="m 32886,6848.1 1.5,-37.57 -28902.31,-1150.33 -1.49,37.57 z"
             style="fill:#b8dff2;fill-opacity:1;fill-rule:nonzero;stroke:none"
             id="path338" /><path
             d="m 32887.5,6810.53 1.5,-37.57 -28902.31,-1150.33 -1.5,37.57 z"
             style="fill:#b8dff2;fill-opacity:1;fill-rule:nonzero;stroke:none"
             id="path340" /><path
             d="m 32889,6772.96 1.5,-37.57 -28902.32,-1150.32 -1.49,37.56 z"
             style="fill:#b8dff2;fill-opacity:1;fill-rule:nonzero;stroke:none"
             id="path342" /><path
             d="m 32890.5,6735.39 1.5,-37.57 -28902.32,-1150.32 -1.5,37.57 z"
             style="fill:#b8dff2;fill-opacity:1;fill-rule:nonzero;stroke:none"
             id="path344" /><path
             d="m 32892,6697.82 1.5,-37.56 -28902.33,-1150.33 -1.49,37.57 z"
             style="fill:#b8dff2;fill-opacity:1;fill-rule:nonzero;stroke:none"
             id="path346" /><path
             d="m 32893.5,6660.26 1.4,-37.57 -28902.23,-1150.33 -1.5,37.57 z"
             style="fill:#b8def2;fill-opacity:1;fill-rule:nonzero;stroke:none"
             id="path348" /><path
             d="m 32894.9,6622.69 1.5,-37.56 -28902.24,-1150.33 -1.49,37.56 z"
             style="fill:#b9def2;fill-opacity:1;fill-rule:nonzero;stroke:none"
             id="path350" /><path
             d="m 32896.4,6585.13 1.5,-37.58 -28902.24,-1150.32 -1.5,37.57 z"
             style="fill:#b9def2;fill-opacity:1;fill-rule:nonzero;stroke:none"
             id="path352" /><path
             d="m 32897.9,6547.55 1.5,-37.56 -28902.25,-1150.33 -1.49,37.57 z"
             style="fill:#b9def2;fill-opacity:1;fill-rule:nonzero;stroke:none"
             id="path354" /><path
             d="m 32899.4,6509.99 1.5,-37.57 -28902.25,-1150.33 -1.5,37.57 z"
             style="fill:#b9def2;fill-opacity:1;fill-rule:nonzero;stroke:none"
             id="path356" /><path
             d="m 32900.9,6472.42 1.5,-37.57 -28902.26,-1150.33 -1.49,37.57 z"
             style="fill:#b9def2;fill-opacity:1;fill-rule:nonzero;stroke:none"
             id="path358" /><path
             d="m 32902.4,6434.85 1.5,-37.56 -28902.26,-1150.33 -1.5,37.56 z"
             style="fill:#b9def2;fill-opacity:1;fill-rule:nonzero;stroke:none"
             id="path360" /><path
             d="m 32903.9,6397.29 1.5,-37.57 -28902.27,-1150.33 -1.49,37.57 z"
             style="fill:#b9def2;fill-opacity:1;fill-rule:nonzero;stroke:none"
             id="path362" /><path
             d="m 32905.4,6359.72 1.5,-37.57 -28902.27,-1150.33 -1.5,37.57 z"
             style="fill:#b9ddf2;fill-opacity:1;fill-rule:nonzero;stroke:none"
             id="path364" /><path
             d="m 32906.9,6322.15 1.5,-37.57 -28902.27,-1150.33 -1.5,37.57 z"
             style="fill:#b9ddf2;fill-opacity:1;fill-rule:nonzero;stroke:none"
             id="path366" /><path
             d="m 32908.4,6284.58 1.5,-37.56 -28902.28,-1150.33 -1.49,37.56 z"
             style="fill:#b9ddf2;fill-opacity:1;fill-rule:nonzero;stroke:none"
             id="path368" /><path
             d="m 32909.9,6247.02 1.5,-37.57 -28902.28,-1150.33 -1.5,37.57 z"
             style="fill:#b9ddf2;fill-opacity:1;fill-rule:nonzero;stroke:none"
             id="path370" /><path
             d="m 32911.4,6209.45 1.5,-37.57 -28902.29,-1150.33 -1.49,37.57 z"
             style="fill:#b9ddf2;fill-opacity:1;fill-rule:nonzero;stroke:none"
             id="path372" /><path
             d="m 32912.9,6171.88 1.5,-37.57 -28902.29,-1150.33 -1.5,37.57 z"
             style="fill:#b9ddf2;fill-opacity:1;fill-rule:nonzero;stroke:none"
             id="path374" /><path
             d="m 32914.4,6134.31 1.5,-37.57 -28902.3,-1150.33 -1.49,37.57 z"
             style="fill:#b9ddf2;fill-opacity:1;fill-rule:nonzero;stroke:none"
             id="path376" /><path
             d="m 32915.9,6096.74 1.5,-37.56 -28902.3,-1150.33 -1.5,37.56 z"
             style="fill:#b9dcf2;fill-opacity:1;fill-rule:nonzero;stroke:none"
             id="path378" /><path
             d="m 32917.4,6059.18 1.5,-37.57 -28902.31,-1150.33 -1.49,37.57 z"
             style="fill:#b9dcf2;fill-opacity:1;fill-rule:nonzero;stroke:none"
             id="path380" /><path
             d="m 32918.9,6021.61 1.5,-37.57 -28902.31,-1150.33 -1.5,37.57 z"
             style="fill:#b9dcf2;fill-opacity:1;fill-rule:nonzero;stroke:none"
             id="path382" /><path
             d="m 32920.4,5984.04 1.5,-37.57 -28902.32,-1150.33 -1.49,37.57 z"
             style="fill:#badcf2;fill-opacity:1;fill-rule:nonzero;stroke:none"
             id="path384" /><path
             d="m 32921.9,5946.47 1.5,-37.56 -28902.32,-1150.33 -1.5,37.56 z"
             style="fill:#badcf2;fill-opacity:1;fill-rule:nonzero;stroke:none"
             id="path386" /><path
             d="m 32923.4,5908.91 1.5,-37.57 -28902.33,-1150.33 -1.49,37.57 z"
             style="fill:#badcf2;fill-opacity:1;fill-rule:nonzero;stroke:none"
             id="path388" /><path
             d="m 32924.9,5871.34 1.4,-37.57 -28902.23,-1150.33 -1.5,37.57 z"
             style="fill:#badcf2;fill-opacity:1;fill-rule:nonzero;stroke:none"
             id="path390" /><path
             d="m 32926.3,5833.77 1.5,-37.57 -28902.24,-1150.32 -1.49,37.56 z"
             style="fill:#badbf2;fill-opacity:1;fill-rule:nonzero;stroke:none"
             id="path392" /><path
             d="m 32927.8,5796.2 1.5,-37.57 -28902.24,-1150.33 -1.5,37.58 z"
             style="fill:#badbf2;fill-opacity:1;fill-rule:nonzero;stroke:none"
             id="path394" /><path
             d="m 32929.3,5758.63 1.5,-37.56 -28902.25,-1150.33 -1.49,37.56 z"
             style="fill:#badbf2;fill-opacity:1;fill-rule:nonzero;stroke:none"
             id="path396" /><path
             d="m 32930.8,5721.07 1.5,-37.57 -28902.25,-1150.33 -1.5,37.57 z"
             style="fill:#badbf2;fill-opacity:1;fill-rule:nonzero;stroke:none"
             id="path398" /><path
             d="m 32932.3,5683.5 1.5,-37.57 -28902.26,-1150.32 -1.49,37.56 z"
             style="fill:#badbf2;fill-opacity:1;fill-rule:nonzero;stroke:none"
             id="path400" /><path
             d="m 32933.8,5645.93 1.5,-37.57 -28902.26,-1150.32 -1.5,37.57 z"
             style="fill:#badbf2;fill-opacity:1;fill-rule:nonzero;stroke:none"
             id="path402" /><path
             d="m 32935.3,5608.36 1.5,-37.56 -28902.26,-1150.33 -1.5,37.57 z"
             style="fill:#badbf2;fill-opacity:1;fill-rule:nonzero;stroke:none"
             id="path404" /><path
             d="m 32936.8,5570.8 1.5,-37.57 -28902.27,-1150.33 -1.49,37.57 z"
             style="fill:#badbf2;fill-opacity:1;fill-rule:nonzero;stroke:none"
             id="path406" /><path
             d="m 32938.3,5533.23 1.5,-37.57 -28902.28,-1150.33 -1.49,37.57 z"
             style="fill:#badaf2;fill-opacity:1;fill-rule:nonzero;stroke:none"
             id="path408" /><path
             d="m 32939.8,5495.66 1.5,-37.57 -28902.28,-1150.32 -1.5,37.56 z"
             style="fill:#badaf2;fill-opacity:1;fill-rule:nonzero;stroke:none"
             id="path410" /><path
             d="m 32941.3,5458.09 1.5,-37.56 -28902.28,-1150.33 -1.5,37.57 z"
             style="fill:#badaf2;fill-opacity:1;fill-rule:nonzero;stroke:none"
             id="path412" /><path
             d="m 32942.8,5420.53 1.5,-37.57 -28902.29,-1150.33 -1.49,37.57 z"
             style="fill:#badaf2;fill-opacity:1;fill-rule:nonzero;stroke:none"
             id="path414" /><path
             d="m 32944.3,5382.96 1.5,-37.57 -28902.3,-1150.33 -1.49,37.57 z"
             style="fill:#badaf2;fill-opacity:1;fill-rule:nonzero;stroke:none"
             id="path416" /><path
             d="m 32945.8,5345.39 1.5,-37.57 L 4045,4157.5 l -1.5,37.56 z"
             style="fill:#bbdaf2;fill-opacity:1;fill-rule:nonzero;stroke:none"
             id="path418" /><path
             d="m 32947.3,5307.82 1.5,-37.57 -28902.3,-1150.32 -1.5,37.57 z"
             style="fill:#bbdaf2;fill-opacity:1;fill-rule:nonzero;stroke:none"
             id="path420" /><path
             d="m 32948.8,5270.25 1.5,-37.56 -28902.31,-1150.33 -1.49,37.57 z"
             style="fill:#bbd9f2;fill-opacity:1;fill-rule:nonzero;stroke:none"
             id="path422" /><path
             d="m 32950.3,5232.69 1.5,-37.57 -28902.31,-1150.33 -1.5,37.57 z"
             style="fill:#bbd9f2;fill-opacity:1;fill-rule:nonzero;stroke:none"
             id="path424" /><path
             d="m 32951.8,5195.12 1.5,-37.57 -28902.32,-1150.33 -1.49,37.57 z"
             style="fill:#bbd9f2;fill-opacity:1;fill-rule:nonzero;stroke:none"
             id="path426" /><path
             d="m 32953.3,5157.55 1.5,-37.57 -28902.32,-1150.32 -1.5,37.56 z"
             style="fill:#bbd9f2;fill-opacity:1;fill-rule:nonzero;stroke:none"
             id="path428" /><path
             d="m 32954.8,5119.98 1.5,-37.56 -28902.33,-1150.33 -1.49,37.57 z"
             style="fill:#bbd9f2;fill-opacity:1;fill-rule:nonzero;stroke:none"
             id="path430" /><path
             d="m 32956.3,5082.42 1.5,-37.57 -28902.33,-1150.33 -1.5,37.57 z"
             style="fill:#bbd9f2;fill-opacity:1;fill-rule:nonzero;stroke:none"
             id="path432" /><path
             d="m 32957.8,5044.85 1.4,-37.57 -28902.24,-1150.33 -1.49,37.57 z"
             style="fill:#bbd9f2;fill-opacity:1;fill-rule:nonzero;stroke:none"
             id="path434" /><path
             d="m 32959.2,5007.28 1.5,-37.57 -28902.24,-1150.32 -1.5,37.56 z"
             style="fill:#bbd9f2;fill-opacity:1;fill-rule:nonzero;stroke:none"
             id="path436" /><path
             d="m 32960.7,4969.71 1.5,-37.57 -28902.25,-1150.32 -1.49,37.57 z"
             style="fill:#bbd8f1;fill-opacity:1;fill-rule:nonzero;stroke:none"
             id="path438" /><path
             d="m 32962.2,4932.14 1.5,-37.56 -28902.25,-1150.33 -1.5,37.57 z"
             style="fill:#bbd8f1;fill-opacity:1;fill-rule:nonzero;stroke:none"
             id="path440" /><path
             d="m 32963.7,4894.58 1.5,-37.57 -28902.26,-1150.33 -1.49,37.57 z"
             style="fill:#bbd8f1;fill-opacity:1;fill-rule:nonzero;stroke:none"
             id="path442" /><path
             d="m 32965.2,4857.01 1.5,-37.57 -28902.26,-1150.33 -1.5,37.57 z"
             style="fill:#bbd8f1;fill-opacity:1;fill-rule:nonzero;stroke:none"
             id="path444" /><path
             d="m 32966.7,4819.44 1.5,-37.56 -28902.27,-1150.33 -1.49,37.56 z"
             style="fill:#bbd8f1;fill-opacity:1;fill-rule:nonzero;stroke:none"
             id="path446" /><path
             d="m 32968.2,4781.88 1.5,-37.57 -28902.27,-1150.33 -1.5,37.57 z"
             style="fill:#bbd8f1;fill-opacity:1;fill-rule:nonzero;stroke:none"
             id="path448" /><path
             d="m 32969.7,4744.31 1.5,-37.57 -28902.27,-1150.33 -1.5,37.57 z"
             style="fill:#bbd8f1;fill-opacity:1;fill-rule:nonzero;stroke:none"
             id="path450" /><path
             d="m 32971.2,4706.74 1.5,-37.57 -28902.28,-1150.33 -1.49,37.57 z"
             style="fill:#bcd7f1;fill-opacity:1;fill-rule:nonzero;stroke:none"
             id="path452" /><path
             d="m 32972.7,4669.17 1.5,-37.56 -28902.29,-1150.33 -1.49,37.56 z"
             style="fill:#bcd7f1;fill-opacity:1;fill-rule:nonzero;stroke:none"
             id="path454" /><path
             d="m 32974.2,4631.61 1.5,-37.57 -28902.29,-1150.33 -1.5,37.57 z"
             style="fill:#bcd7f1;fill-opacity:1;fill-rule:nonzero;stroke:none"
             id="path456" /><path
             d="m 32975.7,4594.04 1.5,-37.57 -28902.29,-1150.33 -1.5,37.57 z"
             style="fill:#bcd7f1;fill-opacity:1;fill-rule:nonzero;stroke:none"
             id="path458" /><path
             d="m 32977.2,4556.47 1.5,-37.57 -28902.3,-1150.33 -1.49,37.57 z"
             style="fill:#bcd7f1;fill-opacity:1;fill-rule:nonzero;stroke:none"
             id="path460" /><path
             d="m 32978.7,4518.9 1.5,-37.56 -28902.31,-1150.33 -1.49,37.56 z"
             style="fill:#bcd7f1;fill-opacity:1;fill-rule:nonzero;stroke:none"
             id="path462" /><path
             d="m 32980.2,4481.34 1.5,-37.57 -28902.31,-1150.33 -1.5,37.57 z"
             style="fill:#bcd7f1;fill-opacity:1;fill-rule:nonzero;stroke:none"
             id="path464" /><path
             d="m 32981.7,4443.77 1.5,-37.57 -28902.31,-1150.33 -1.5,37.57 z"
             style="fill:#bcd6f1;fill-opacity:1;fill-rule:nonzero;stroke:none"
             id="path466" /><path
             d="m 32983.2,4406.2 1.5,-37.57 -28902.32,-1150.33 -1.49,37.57 z"
             style="fill:#bcd6f1;fill-opacity:1;fill-rule:nonzero;stroke:none"
             id="path468" /><path
             d="m 32984.7,4368.63 1.5,-37.57 -28902.32,-1150.33 -1.5,37.57 z"
             style="fill:#bcd6f1;fill-opacity:1;fill-rule:nonzero;stroke:none"
             id="path470" /><path
             d="m 32986.2,4331.06 1.5,-37.56 -28902.33,-1150.33 -1.49,37.56 z"
             style="fill:#bcd6f1;fill-opacity:1;fill-rule:nonzero;stroke:none"
             id="path472" /><path
             d="m 32987.7,4293.5 1.4,-37.57 -28902.23,-1150.33 -1.5,37.57 z"
             style="fill:#bcd6f1;fill-opacity:1;fill-rule:nonzero;stroke:none"
             id="path474" /><path
             d="m 32989.1,4255.93 1.5,-37.57 -28902.24,-1150.33 -1.49,37.57 z"
             style="fill:#bcd6f1;fill-opacity:1;fill-rule:nonzero;stroke:none"
             id="path476" /><path
             d="m 32990.6,4218.36 1.5,-37.57 -28902.24,-1150.33 -1.5,37.57 z"
             style="fill:#bcd6f1;fill-opacity:1;fill-rule:nonzero;stroke:none"
             id="path478" /><path
             d="m 32992.1,4180.79 1.5,-37.56 -28902.25,-1150.33 -1.49,37.56 z"
             style="fill:#bcd6f1;fill-opacity:1;fill-rule:nonzero;stroke:none"
             id="path480" /><path
             d="m 32993.6,4143.23 1.5,-37.57 -28902.25,-1150.33 -1.5,37.57 z"
             style="fill:#bcd5f1;fill-opacity:1;fill-rule:nonzero;stroke:none"
             id="path482" /><path
             d="m 32995.1,4105.66 1.5,-37.57 -28902.26,-1150.33 -1.49,37.57 z"
             style="fill:#bcd5f1;fill-opacity:1;fill-rule:nonzero;stroke:none"
             id="path484" /><path
             d="m 32996.6,4068.09 1.5,-37.57 -28902.26,-1150.32 -1.5,37.56 z"
             style="fill:#bcd5f1;fill-opacity:1;fill-rule:nonzero;stroke:none"
             id="path486" /><path
             d="m 32998.1,4030.52 1.5,-37.57 -28902.27,-1150.32 -1.49,37.57 z"
             style="fill:#bdd5f1;fill-opacity:1;fill-rule:nonzero;stroke:none"
             id="path488" /><path
             d="m 32999.6,3992.95 1.5,-37.56 -28902.27,-1150.33 -1.5,37.57 z"
             style="fill:#bdd5f1;fill-opacity:1;fill-rule:nonzero;stroke:none"
             id="path490" /><path
             d="m 33001.1,3955.39 1.5,-37.57 -28902.28,-1150.33 -1.49,37.57 z"
             style="fill:#bdd5f1;fill-opacity:1;fill-rule:nonzero;stroke:none"
             id="path492" /><path
             d="m 33002.6,3917.82 1.5,-37.57 -28902.28,-1150.32 -1.5,37.56 z"
             style="fill:#bdd5f1;fill-opacity:1;fill-rule:nonzero;stroke:none"
             id="path494" /><path
             d="m 33004.1,3880.25 1.5,-37.57 -28902.29,-1150.32 -1.49,37.57 z"
             style="fill:#bdd4f1;fill-opacity:1;fill-rule:nonzero;stroke:none"
             id="path496" /><path
             d="m 33005.6,3842.68 1.5,-37.56 -28902.29,-1150.33 -1.5,37.57 z"
             style="fill:#bdd4f1;fill-opacity:1;fill-rule:nonzero;stroke:none"
             id="path498" /><path
             d="m 33007.1,3805.12 1.5,-37.57 -28902.3,-1150.33 -1.49,37.57 z"
             style="fill:#bdd4f1;fill-opacity:1;fill-rule:nonzero;stroke:none"
             id="path500" /><path
             d="m 33008.6,3767.55 1.5,-37.57 -28902.3,-1150.33 -1.5,37.57 z"
             style="fill:#bdd4f1;fill-opacity:1;fill-rule:nonzero;stroke:none"
             id="path502" /><path
             d="m 33010.1,3729.98 1.5,-37.57 -28902.3,-1150.32 -1.5,37.56 z"
             style="fill:#bdd4f1;fill-opacity:1;fill-rule:nonzero;stroke:none"
             id="path504" /><path
             d="m 33011.6,3692.41 1.5,-37.56 -28902.31,-1150.33 -1.49,37.57 z"
             style="fill:#bdd4f1;fill-opacity:1;fill-rule:nonzero;stroke:none"
             id="path506" /><path
             d="m 33013.1,3654.85 1.5,-37.57 -28902.31,-1150.33 -1.5,37.57 z"
             style="fill:#bdd4f1;fill-opacity:1;fill-rule:nonzero;stroke:none"
             id="path508" /><path
             d="m 33014.6,3617.28 1.5,-37.57 -28902.32,-1150.33 -1.49,37.57 z"
             style="fill:#bdd3f1;fill-opacity:1;fill-rule:nonzero;stroke:none"
             id="path510" /><path
             d="m 33016.1,3579.71 1.5,-37.57 -28902.32,-1150.32 -1.5,37.56 z"
             style="fill:#bdd3f1;fill-opacity:1;fill-rule:nonzero;stroke:none"
             id="path512" /><path
             d="m 33017.6,3542.14 1.5,-37.57 -28902.33,-1150.32 -1.49,37.57 z"
             style="fill:#bdd3f1;fill-opacity:1;fill-rule:nonzero;stroke:none"
             id="path514" /><path
             d="m 33019.1,3504.57 1.4,-37.56 -28902.23,-1150.33 -1.5,37.57 z"
             style="fill:#bdd3f1;fill-opacity:1;fill-rule:nonzero;stroke:none"
             id="path516" /><path
             d="m 33020.5,3467.01 1.5,-37.57 -28902.24,-1150.33 -1.49,37.57 z"
             style="fill:#bdd3f1;fill-opacity:1;fill-rule:nonzero;stroke:none"
             id="path518" /><path
             d="m 33022,3429.44 1.5,-37.57 -28902.24,-1150.33 -1.5,37.57 z"
             style="fill:#bdd3f1;fill-opacity:1;fill-rule:nonzero;stroke:none"
             id="path520" /><path
             d="m 33023.5,3391.87 1.5,-37.57 -28902.25,-1150.32 -1.49,37.56 z"
             style="fill:#bed3f1;fill-opacity:1;fill-rule:nonzero;stroke:none"
             id="path522" /><path
             d="m 33025,3354.3 1.5,-37.56 -28902.25,-1150.33 -1.5,37.57 z"
             style="fill:#bed3f1;fill-opacity:1;fill-rule:nonzero;stroke:none"
             id="path524" /><path
             d="m 33026.5,3316.74 1.5,-37.57 -28902.26,-1150.33 -1.49,37.57 z"
             style="fill:#bed2f1;fill-opacity:1;fill-rule:nonzero;stroke:none"
             id="path526" /><path
             d="m 33028,3279.17 1.5,-37.57 -28902.26,-1150.33 -1.5,37.57 z"
             style="fill:#bed2f1;fill-opacity:1;fill-rule:nonzero;stroke:none"
             id="path528" /><path
             d="m 33029.5,3241.6 1.5,-37.56 -28902.27,-1150.33 -1.49,37.56 z"
             style="fill:#bed2f1;fill-opacity:1;fill-rule:nonzero;stroke:none"
             id="path530" /><path
             d="m 33031,3204.04 1.5,-37.58 -28902.27,-1150.32 -1.5,37.57 z"
             style="fill:#bed2f1;fill-opacity:1;fill-rule:nonzero;stroke:none"
             id="path532" /><path
             d="m 33032.5,3166.46 1.5,-37.56 -28902.28,-1150.33 -1.49,37.57 z"
             style="fill:#bed2f1;fill-opacity:1;fill-rule:nonzero;stroke:none"
             id="path534" /><path
             d="m 33034,3128.9 6.7,-167.63 -28902.31,-1150.32 -6.67,167.62 z"
             style="fill:#bed2f1;fill-opacity:1;fill-rule:nonzero;stroke:none"
             id="path536" /></g></g><path
         d="m 5617.21,6715.55 c -15.6,0 -31.37,3.32 -45.7,10.32 -42.78,20.88 -57.1,66.89 -31.83,102.25 l 94.49,132.2 -159.98,78.1 c -42.79,20.89 -57.12,66.89 -31.84,102.25 16.8,23.51 47.06,36.62 78.04,36.62 15.59,0 31.36,-3.32 45.68,-10.31 l 159.99,-78.09 94.51,132.21 c 16.8,23.52 47.05,36.63 78.02,36.63 15.59,0 31.37,-3.33 45.7,-10.32 42.78,-20.88 57.11,-66.89 31.84,-102.24 l -94.5,-132.21 159.98,-78.1 c 42.79,-20.88 57.11,-66.89 31.85,-102.23 -16.8,-23.53 -47.07,-36.64 -78.05,-36.64 -15.59,0 -31.36,3.32 -45.68,10.31 l -159.99,78.09 -94.49,-132.2 c -16.81,-23.53 -47.07,-36.64 -78.04,-36.64"
         style="fill:#d0eefb;fill-opacity:1;fill-rule:nonzero;stroke:none"
         id="path538" /><path
         d="m 28169.6,7147.83 c -11.7,0 -23.5,2.49 -34.2,7.74 -32.1,15.66 -42.9,50.18 -23.9,76.7 l 70.9,99.19 -120.1,58.57 c -32.1,15.67 -42.8,50.18 -23.8,76.72 12.6,17.63 35.3,27.46 58.5,27.46 11.7,0 23.5,-2.49 34.3,-7.74 l 120,-58.58 70.9,99.19 c 12.6,17.64 35.3,27.47 58.5,27.47 11.7,0 23.5,-2.49 34.3,-7.73 32.1,-15.67 42.8,-50.19 23.9,-76.7 l -70.9,-99.19 120,-58.58 c 32.1,-15.66 42.8,-50.18 23.9,-76.69 -12.6,-17.66 -35.3,-27.49 -58.6,-27.49 -11.6,0 -23.5,2.49 -34.2,7.73 l -120,58.59 -70.9,-99.18 c -12.6,-17.64 -35.3,-27.48 -58.6,-27.48"
         style="fill:#d0eefb;fill-opacity:1;fill-rule:nonzero;stroke:none"
         id="path540" /><path
         d="m 16474.7,11361.4 c -12.2,0 -24.5,2.6 -35.7,8.1 -33.5,16.3 -44.7,52.3 -24.9,79.9 l 73.9,103.4 -125.1,61.1 c -33.5,16.3 -44.7,52.3 -24.9,80 13.1,18.3 36.8,28.6 61,28.6 12.2,0 24.5,-2.6 35.7,-8.1 l 125.1,-61 73.9,103.3 c 13.2,18.4 36.8,28.7 61,28.7 12.2,0 24.6,-2.6 35.8,-8.1 33.4,-16.3 44.6,-52.3 24.9,-79.9 l -73.9,-103.4 125.1,-61.1 c 33.4,-16.3 44.6,-52.3 24.9,-79.9 -13.2,-18.4 -36.8,-28.7 -61.1,-28.7 -12.2,0 -24.5,2.6 -35.7,8.1 l -125.1,61 -73.9,-103.3 c -13.1,-18.4 -36.8,-28.7 -61,-28.7"
         style="fill:#d0eefb;fill-opacity:1;fill-rule:nonzero;stroke:none"
         id="path542" /><path
         d="M 17951.3,3314.9 C 9576.47,3273.6 4055.9,3027.2 3456.35,2872 4210.94,2751.1 9568.1,2282.5 17942.8,2223.2 c 7574,-53.7 14880.9,716.9 14880.9,716.9 -905.3,233.7 -6497.5,416.1 -14872.4,374.8"
         style="fill:#e2eded;fill-opacity:1;fill-rule:nonzero;stroke:none"
         id="path544" /><path
         d="m 11856.3,4068.4 c 92.8,-10.4 169.5,65.8 163.9,169 -18.2,342.3 -124.6,606.8 -445,642.8 -317.8,35.8 -482.9,-198.1 -576.8,-527.7 -28.3,-99.4 29.5,-190.8 122.3,-201.2 l 735.6,-82.9"
         style="fill:#1b72c1;fill-opacity:1;fill-rule:nonzero;stroke:none"
         id="path546" /><path
         d="m 11215.2,3792.5 v 0 c -34.5,3.9 -59.3,35 -55.4,69.5 l 44.5,395.3 124.9,-14 -44.6,-395.4 c -3.8,-34.5 -34.9,-59.3 -69.4,-55.4"
         style="fill:#1b72c1;fill-opacity:1;fill-rule:nonzero;stroke:none"
         id="path548" /><path
         d="m 11689.9,3739.1 v 0 c -34.5,3.8 -59.3,34.9 -55.4,69.4 l 44.5,395.4 124.9,-14.1 -44.6,-395.4 c -3.8,-34.4 -34.9,-59.2 -69.4,-55.3"
         style="fill:#1b72c1;fill-opacity:1;fill-rule:nonzero;stroke:none"
         id="path550" /><path
         d="m 11491.5,4451.1 c -3.8,0 -7.7,0.3 -11.5,0.9 -42,6.3 -70.9,45.5 -64.5,87.5 160.6,1060.7 1425,1805 2409.5,1738.5 42.3,-2.9 74.3,-39.5 71.4,-82 -2.8,-42.2 -38.1,-73.5 -82,-71.4 -895.9,62.9 -2100.7,-642.3 -2247,-1608.1 -5.7,-38.1 -38.5,-65.4 -75.9,-65.4"
         style="fill:#1b72c1;fill-opacity:1;fill-rule:nonzero;stroke:none"
         id="path552" /><path
         d="m 18375.1,9818.37 c -11.8,0 -23.9,-0.6 -36,-1.8 -15.7,-1.58 -24.6,-6.08 -29.4,-26.36 -13.2,-55.92 27.1,-174.4 134.6,-242.27 89.3,-56.47 178.2,-93.1 255.4,-107.51 4,60.13 -7.2,120.42 -28.6,172 -54.5,130.86 -163.6,205.94 -296,205.94 z m -373.3,-383.13 c -18.5,0 -36,-4.58 -51.6,-15.09 -34.4,-23.5 -48.5,-52.11 -44.3,-89.95 7.3,-64.41 66.9,-136.11 135.8,-163.21 96,-37.77 181.9,-54.89 260.7,-55.79 -21.6,96.1 -75.6,184.62 -143.6,247.01 -43.6,40.02 -104.2,77.03 -157,77.03 z m -279.6,-512.41 c -9.1,0 -17.7,-0.9 -25.4,-2.78 -17.4,-4.12 -36.7,-14.04 -46.8,-55.71 -22.6,-93.02 47.5,-142.05 110.3,-166.74 87.6,-34.61 200,-36.79 299.8,-6.62 -16.3,27.93 -35.8,55.64 -58.3,81.92 -70.6,82.73 -199.5,149.93 -279.6,149.93 z m 143.3,-750.79 c -40.7,0 -74.7,31.91 -76.8,72.98 -2.1,42.42 30.5,78.53 73,80.71 90,4.5 205.1,28 242.2,113.97 12.8,29.73 15.7,66.29 9.9,106.01 -135.9,-43.09 -288.1,-39.19 -409.9,8.78 -161.8,63.82 -239.7,196.41 -203.3,346.19 21.8,89.42 78.8,149.41 160.5,168.93 164,39.12 370.1,-94.3 457.7,-196.86 30.4,-35.66 56.5,-72.98 78.2,-111.04 28,22.9 51.8,50.15 69.5,81.69 20.8,37.09 34.1,75.75 40.7,114.71 -97.6,-2.77 -206.7,20.5 -321.8,65.77 -123.2,48.43 -218.7,167.36 -232.2,289.21 -10.6,93.77 29.8,179.13 110.6,234.17 112.1,76.2 264.9,47.22 398.9,-75.68 90.7,-83.26 162.2,-202.19 190.3,-332.23 47.8,18.32 93.3,45.58 137.4,82 26,21.39 46.8,45.56 63,71.54 -91.9,19.74 -191,61.8 -291.2,125.01 -145.6,91.97 -234.4,271.03 -202.1,407.6 19.3,81.91 80.5,135.75 163.7,144.08 217,21.25 403.8,-92.79 489.2,-298.14 30.6,-73.42 44,-149.48 41.6,-222.98 5.4,2.32 10.6,4.88 15.7,7.65 63.9,36.19 95.1,120.13 92.5,249.64 -0.9,42.5 32.8,77.56 75.3,78.46 43.6,-2.02 77.5,-32.88 78.4,-75.31 4.8,-237.24 -90.2,-341.23 -170.7,-386.66 -37.3,-21.01 -79.7,-34.16 -126,-39.56 -27.9,-69.15 -72.2,-131.09 -131.6,-179.96 -70,-57.74 -144.3,-98.13 -223.4,-121.33 -5.3,-71.93 -25.5,-144.3 -64.2,-213.37 -35.8,-63.44 -85.6,-114.65 -143.7,-153.91 20.8,-84.54 17.8,-166.46 -11.8,-235.23 -37.7,-87.54 -133.5,-194.45 -375.6,-206.76 -1.4,-0.08 -2.7,-0.08 -4,-0.08"
         style="fill:#0f60a8;fill-opacity:1;fill-rule:nonzero;stroke:none"
         id="path554" /><path
         d="m 17065.9,2880.5 c 0,0 -117.5,-318.8 -1262.8,219.1 -1145.2,537.9 -974.9,831.9 -974.9,831.9 l 162.1,345 6.2,13.3 c 464.6,-218.3 773.8,-363.5 918.8,-431.6 0,0 31.9,-15 95.9,-45 174.7,-82.1 586.9,-275.7 1223,-574.4 l -6.3,-13.2 -162,-345.1"
         style="fill:#0f60a8;fill-opacity:1;fill-rule:nonzero;stroke:none"
         id="path556" /><path
         d="m 19289.6,3396.9 -19.3,-55.5 c 0,0 -833.5,-667.4 -1833.3,-197.9 -70,32.9 -137.8,64.7 -202.8,95.3 -636.1,298.7 -1048.3,492.3 -1223,574.4 -64,30 -95.9,45 -95.9,45 -145,68.1 -454.2,213.3 -918.8,431.6 -152.1,71.4 -321.3,150.9 -507.1,238.1 -999.8,469.6 -1018.4,1537.2 -1018.4,1537.2 l 23.3,40.9 c 92,-52 191.3,-102.7 298.7,-153.1 782.7,-367.6 1675,-786.7 2242.1,-1053.1 350,-164.3 576,-270.5 576,-270.5 567.1,-266.3 1458.9,-685.2 2241.5,-1052.7 154.9,-72.8 299.9,-132.1 437,-179.7"
         style="fill:#2081d1;fill-opacity:1;fill-rule:nonzero;stroke:none"
         id="path558" /><path
         d="m 20237.2,3693.1 -18,-56.1 c 0,0 -931,-621.6 -2159.6,-44.6 -86.1,40.4 -169.4,79.6 -249.3,117.1 -781.6,367.1 -1288.2,605 -1502.9,705.9 -78.6,36.9 -117.9,55.3 -117.9,55.3 -178.1,83.7 -558.1,262.1 -1129,530.3 -187,87.8 -394.9,185.5 -623.1,292.7 -1228.7,577 -1344.8,1690.41 -1344.8,1690.41 l 24,40.53 c 113.8,-62.2 236.2,-123.72 368.3,-185.75 961.8,-451.69 2058.3,-966.69 2755.2,-1294.09 430.1,-202 707.8,-332.4 707.8,-332.4 697,-327.3 1792.8,-842 2754.6,-1293.7 190.3,-89.4 367.8,-164 534.7,-225.6"
         style="fill:#0f60a8;fill-opacity:1;fill-rule:nonzero;stroke:none"
         id="path560" /><path
         d="m 22294.1,6403.6 c 347.8,-163.4 453.7,-606.7 216.8,-909.1 -6.6,-8.4 -13.5,-17.3 -20.3,-26.1 -87.4,-111.7 -182.5,-232.5 -280.3,-357.5 -404.1,-515.2 -856.3,-1091.3 -1051.8,-1338.5 -343.7,-435.3 -885.4,-715 -1868.9,-375.5 -137.1,47.6 -282.1,106.9 -437,179.7 -782.6,367.5 -1674.4,786.4 -2241.5,1052.7 0,0 -226,106.2 -576,270.5 -567.1,266.4 -1459.4,685.5 -2242.1,1053.1 -107.4,50.4 -206.7,101.1 -298.7,153.1 -996.2,557.33 -1142.6,1181.07 -1023,1746.5 65.2,306.41 218.3,1014.86 356.6,1651.58 33.5,154.45 66,305.34 96.4,444.47 2.9,14.78 5.8,29.56 9.3,44.08 81.4,375.47 490.3,576.97 837.5,413.87 l 3973.8,-1866.33 575.9,-270.49 3973.3,-1866.08"
         style="fill:#2492dd;fill-opacity:1;fill-rule:nonzero;stroke:none"
         id="path562" /><path
         d="m 18807.9,7055.88 c 81.9,174.31 27.8,372.01 -120.1,441.46 l -1830.2,859.58 c -73.9,34.74 -157.3,30.6 -232.6,-3.73 -75.2,-34.33 -142.2,-98.88 -183.2,-186.03 -81.8,-174.31 -28.8,-372.47 119.1,-441.93 l 1830.2,-859.58 c 73.9,-34.72 157.4,-30.59 233.2,3.43 75.6,35.11 142.7,99.65 183.6,186.8"
         style="fill:#0f60a8;fill-opacity:1;fill-rule:nonzero;stroke:none"
         id="path564" /><path
         d="m 18583.4,7051.16 c 58.5,124.56 4.5,273.05 -120.1,331.55 l -1541.6,724.03 c -62.2,29.24 -130.4,30.3 -190.3,8.67 -60,-21.63 -111.7,-65.94 -141,-128.22 -58.5,-124.57 -5.2,-273.34 119.3,-331.85 l 1541.6,-724.02 c 62.3,-29.25 130.4,-30.31 190.9,-8.93 60.2,22.18 112,66.48 141.2,128.77"
         style="fill:#ffffff;fill-opacity:1;fill-rule:nonzero;stroke:none"
         id="path566" /><path
         d="m 12827.9,9504.08 c -138.3,-636.72 -291.4,-1345.18 -356.6,-1651.58 -18.3,-86.74 -30.3,-174.87 -34.1,-263.9 -60.5,-909.23 811.5,-1090.6 882.1,-1179.2 28.1,25.7 57.3,50.1 88.4,72.2 -191.3,327.47 -197.8,666.12 -122.8,988.81 70.9,303.71 237.1,1006.01 387.1,1637.22 36.3,153.13 71.7,302.7 104.6,440.63 3.2,14.64 6.4,29.29 10.1,43.69 88.4,372.22 474.3,584.45 790.6,435.95 l -806.2,378.6 c -347.2,163.1 -756.1,-38.4 -837.5,-413.88 -3.5,-14.52 -6.4,-29.29 -9.3,-44.08 -30.4,-139.12 -62.9,-290.01 -96.4,-444.46"
         style="fill:#70caf2;fill-opacity:1;fill-rule:nonzero;stroke:none"
         id="path568" /><path
         d="m 18312.6,7262.42 c 39.2,-18.38 55.8,-64.55 37.4,-103.68 -18.3,-39.13 -64.5,-55.79 -103.6,-37.41 -39.2,18.38 -55.8,64.55 -37.5,103.68 18.4,39.13 64.6,55.79 103.7,37.41"
         style="fill:#5baadb;fill-opacity:1;fill-rule:nonzero;stroke:none"
         id="path570" /><path
         d="m 14009.8,10119.2 c 0,0 -220.2,65.1 -464.7,40.7 -146.7,-14.7 -302.1,-61.5 -423.8,-173.84 0,0 88.7,320.04 348.4,362.54 132.2,21.6 308.6,-28.6 540.1,-229.4"
         style="fill:#ffffff;fill-opacity:1;fill-rule:nonzero;stroke:none"
         id="path572" /><path
         d="m 17465.5,3305.1 c 0,0 364.8,-215.9 788.9,-198.7 327.4,13.3 426,194.4 426,194.4 0,0 -213.4,-46.6 -507.8,-44.8 -247.8,1.5 -707.1,49.1 -707.1,49.1"
         style="fill:#70caf2;fill-opacity:1;fill-rule:nonzero;stroke:none"
         id="path574" /><path
         d="m 14634.7,4634.6 c 0,0 -399.1,142.8 -656.6,480.2 -198.9,260.5 -122.4,452 -122.4,452 0,0 100.3,-194 289.7,-419.4 159.4,-189.7 489.3,-512.8 489.3,-512.8"
         style="fill:#70caf2;fill-opacity:1;fill-rule:nonzero;stroke:none"
         id="path576" /><path
         d="m 16913.9,2878.4 c 0,0 -641.8,66.2 -1233.4,391.4 -582.1,320.1 -720,547.8 -720,547.8 0,0 375.2,-253.4 921.5,-509.6 483.1,-226.7 1031.9,-429.6 1031.9,-429.6"
         style="fill:#2081d1;fill-opacity:1;fill-rule:nonzero;stroke:none"
         id="path578" /><path
         d="m 22294.1,6403.6 -60.4,28.3 c 6.1,-138.8 -34.1,-283.3 -128.1,-406.3 -6.5,-8.4 -13.2,-17.4 -20,-26.3 -85.8,-112.4 -179.1,-234.1 -275,-359.9 -396.7,-518.7 -840.6,-1098.7 -1032.4,-1347.6 -337.4,-438.3 -860.3,-726.8 -1791.4,-412 -129.8,44.2 -266.9,99.8 -413.1,168.5 l -2116.2,993.9 c 0,0 -213.3,100.2 -543.7,255.4 l -2116.7,994.1 c -113.2,53.2 -807,385.17 -1285.2,807.74 123.9,-337.33 415.2,-676.14 982.4,-993.44 92,-52 191.3,-102.7 298.7,-153.1 l 2242.1,-1053.1 c 350,-164.3 576,-270.5 576,-270.5 l 2241.5,-1052.7 c 154.9,-72.8 299.9,-132.1 437,-179.7 983.5,-339.5 1525.2,-59.8 1868.9,375.5 195.5,247.2 647.7,823.3 1051.8,1338.5 97.8,125 192.9,245.8 280.3,357.4 6.8,8.9 13.7,17.8 20.3,26.2 236.9,302.4 131,745.7 -216.8,909.1"
         style="fill:#2081d1;fill-opacity:1;fill-rule:nonzero;stroke:none"
         id="path580" /><path
         d="m 19470.7,3553 c 0,0 660.7,-245.6 1087.5,-13.6 426.8,232 607.6,572 607.6,572 0,0 -366.4,-289.6 -759.3,-413 -419.3,-131.8 -935.8,-145.4 -935.8,-145.4"
         style="fill:#70caf2;fill-opacity:1;fill-rule:nonzero;stroke:none"
         id="path582" /><path
         d="m 23158.6,3898.7 c -88.7,-1.7 -161.7,68.2 -165.9,156.8 -4.5,95 -13.2,183.8 -25.6,266.5 -32.7,217.7 -90.8,394.8 -162,539.2 -76.3,153.9 -167.8,270.3 -260,357.5 -98.8,93.5 -198.2,153.9 -280.3,192.4 -109.8,51.5 -167.5,173.3 -138.6,291.1 39.5,161.4 220.5,243.6 366.9,165.1 128.8,-69 281.3,-179.6 420,-355.2 111.2,-140.1 213.6,-322.6 287.4,-558.8 56.8,-179.9 96.9,-391.2 110.8,-639.7 5.6,-80.6 7.9,-165.4 7.1,-254.4 -0.8,-87.7 -72.1,-158.7 -159.8,-160.5"
         style="fill:#1b72c1;fill-opacity:1;fill-rule:nonzero;stroke:none"
         id="path584" /><path
         d="m 23311.3,4313.6 c -13.9,248.5 -54,459.8 -110.8,639.7 -73.8,236.2 -176.2,418.7 -287.4,558.8 -138.7,175.6 -291.2,286.2 -420,355.2 -92.5,49.6 -198.7,34.9 -274.5,-23.2 42.7,0.3 86.2,-9.5 127.2,-31.4 135.9,-72.9 296.8,-189.7 443.2,-374.9 117.4,-147.9 225.5,-340.5 303.4,-589.8 59.9,-189.9 102.2,-412.9 116.9,-675.2 5.8,-83 8.1,-170.4 7.4,-261.8 59,24 101.1,81.1 101.7,148.3 0.8,88.8 -1.5,173.7 -7.1,254.3"
         style="fill:#2483c9;fill-opacity:1;fill-rule:nonzero;stroke:none"
         id="path586" /><path
         d="m 22927.7,5492.4 c -98,25.7 -201.8,2.2 -275.1,-63.5 -80.8,-72.1 -95.5,-167.8 -96.5,-221 -4.3,4.1 -7.8,7.5 -11.3,10.8 -38,35.9 -76.7,66.9 -113.8,93.8 17.3,70.2 53.6,151.7 129.7,219.6 67.2,60 151.5,96.3 239.7,106.3 37.4,-38 75.5,-80 112.4,-126.3 5,-6.8 10.6,-12.9 14.9,-19.7"
         style="fill:#2c95db;fill-opacity:1;fill-rule:nonzero;stroke:none"
         id="path588" /><path
         d="m 23212.1,4914.8 c -65.4,58.2 -155.7,79.2 -238.1,55.4 -90.7,-25.3 -138.4,-97.4 -157.7,-134.4 -3.6,8.9 -7.2,17.1 -11.5,25.4 -20.2,40.3 -41,77.9 -62.4,112.7 41.2,50.6 102.3,103.6 193,128.9 69.4,20 142,20.1 210.7,0.7 19.6,-47.2 37.9,-97.3 54.2,-150.2 3.7,-12.4 8.1,-25.4 11.8,-38.5"
         style="fill:#2c95db;fill-opacity:1;fill-rule:nonzero;stroke:none"
         id="path590" /><path
         d="m 23312.2,4290.8 c -47.3,51.6 -115.6,80.6 -186.8,79.9 -71.8,-2.8 -124.3,-38.4 -156.2,-67.4 -0.8,6.3 -1.6,12.5 -2.4,18.7 -7.1,46.1 -14.9,90.2 -24.7,132.1 46.4,28.6 106,51.9 178.5,54.7 l 3.5,0.1 c 60.8,1.2 120.5,-12.2 173.5,-37.3 5.8,-51.1 10.3,-103.5 13.5,-158 0.1,-7.6 1,-15.2 1.1,-22.8"
         style="fill:#2c95db;fill-opacity:1;fill-rule:nonzero;stroke:none"
         id="path592" /><path
         d="m 23706.9,3053.6 c -139.8,-215.9 -290.5,-282.2 -400.1,-285.3 -37.5,-1.3 -70.1,4.6 -95.5,14.9 l -2.6,0.7 c -149.6,-89.6 -274.8,-6.4 -305.2,24.6 l -15,21.4 c -101.6,-67.9 -195.5,-89.2 -235.7,-68.7 -73.6,37.4 -94,139.6 60.7,262.9 155.7,124.1 216.3,411.7 158.8,534.3 -57,123.3 -198.6,6.7 -208.6,-119.4 -10.7,-125.7 -49.1,-443.3 -216.1,-320.7 -167.7,123.1 -105.3,411 12.1,658.1 57.7,121.8 180.2,241.8 337.6,312.4 15.5,6.5 31,13 47.3,19 82.8,31.1 173.8,48.2 268.5,44.9 77,-1.5 157.1,-16.7 237.7,-48.5 442,-174.9 544.4,-757.9 356.1,-1050.6"
         style="fill:#2492dd;fill-opacity:1;fill-rule:nonzero;stroke:none"
         id="path594" /><path
         d="m 22595.8,3690.7 c 57.8,121.8 180.2,241.8 337.6,312.4 15.6,6.5 31.1,13 47.3,19 82.9,31.1 173.9,48.2 268.5,44.9 77,-1.5 157.1,-16.7 237.8,-48.5 13.1,-5.2 25,-11.9 37.5,-17.8 -50.8,41.7 -108,77.5 -173.7,103.5 -80.6,31.8 -160.7,47 -237.7,48.5 -94.7,3.3 -185.7,-13.8 -268.5,-44.9 -16.3,-6 -31.8,-12.5 -47.3,-19 -157.4,-70.6 -279.9,-190.6 -337.6,-312.4 -117.4,-247.1 -179.8,-535 -12.1,-658.1 31.1,-22.8 57.7,-30.3 80.5,-26.7 -93.7,141.7 -33.7,385.5 67.7,599.1"
         style="fill:#2081d1;fill-opacity:1;fill-rule:nonzero;stroke:none"
         id="path596" /><path
         d="m 22849.6,2938.4 c 155.8,124.1 216.3,411.7 158.8,534.3 -28.2,61 -77.1,63.2 -120.5,34.6 25.8,-138.6 -37.5,-374.1 -174.4,-483.2 -154.7,-123.3 -134.3,-225.5 -60.7,-262.9 17.6,-9 45.9,-9.4 80.3,-2 -1.6,48.1 30.1,110.3 116.5,179.2"
         style="fill:#2081d1;fill-opacity:1;fill-rule:nonzero;stroke:none"
         id="path598" /><path
         d="m 22888.6,2830.1 c 0,0 256.9,145.3 311,400.2 0,0 42.7,-291.8 -266.5,-445.3 -7.6,4.3 -17.9,11.2 -27.8,22 -7.8,8.3 -13.1,16.5 -16.7,23.1"
         style="fill:#2081d1;fill-opacity:1;fill-rule:nonzero;stroke:none"
         id="path600" /><path
         d="m 23521.2,3183.9 c 0,0 37.9,-257.3 -214.4,-415.6 -37.5,-1.3 -70.1,4.6 -95.5,14.9 l -0.8,1 c 0,0 256.6,144.9 310.7,399.7"
         style="fill:#2081d1;fill-opacity:1;fill-rule:nonzero;stroke:none"
         id="path602" /><path
         d="m 11487,8396.85 c 71.4,-52.72 171.3,-37.87 225.9,32 58.7,74.91 117.1,142.33 175,202.6 152.6,158.75 302.4,269.67 444,346.26 151.3,81.51 293.1,123.56 418.9,141.46 134.6,19.18 250.6,10.93 339.9,-5.1 119.3,-21.43 236.8,44.57 281.4,157.34 61.1,154.51 -39.1,326.31 -203.9,346.9 -145,18.1 -333.4,16.02 -548.1,-47.02 -171.8,-50.01 -360.8,-139.66 -557.6,-289.74 -150.4,-113.96 -305.3,-263.19 -460.3,-457.88 -51.1,-62.56 -102,-130.46 -152.8,-203.46 -50.1,-72.03 -32.9,-171.23 37.6,-223.36"
         style="fill:#1b72c1;fill-opacity:1;fill-rule:nonzero;stroke:none"
         id="path604" /><path
         d="m 11602.2,8823.66 c 155,194.71 309.9,343.93 460.3,457.9 196.8,150.07 385.8,239.71 557.6,289.73 214.7,63.04 403.1,65.12 548,47.02 104.2,-13.01 182.4,-86.42 210.6,-177.67 -34.7,24.9 -75.8,42.11 -121.9,47.88 -153.1,19.1 -351.9,16.91 -578.4,-49.64 -181.3,-52.76 -380.9,-147.39 -588.5,-305.79 -158.7,-120.27 -322.2,-277.77 -485.8,-483.25 -52.7,-64.41 -105.1,-134.42 -157.4,-209.36 -34.3,53.68 -35.6,124.59 2.7,179.74 50.8,72.99 101.7,140.89 152.8,203.44"
         style="fill:#2483c9;fill-opacity:1;fill-rule:nonzero;stroke:none"
         id="path606" /><path
         d="m 12596.8,9563.63 c 94.8,-35.65 165.9,-114.87 187.8,-210.88 24.2,-105.53 -19.1,-192.06 -49.1,-236.07 5.8,0.87 10.7,1.6 15.5,2.33 51.8,7.27 101.2,10.26 147.1,10.71 26.4,67.21 43.9,154.8 21.1,254.12 -20.1,87.87 -67.9,166.14 -134.1,225.36 -52.5,-9.36 -107.9,-21.64 -164.7,-38.08 -8,-2.68 -16.2,-4.39 -23.6,-7.49"
         style="fill:#2c95db;fill-opacity:1;fill-rule:nonzero;stroke:none"
         id="path608" /><path
         d="m 12030.8,9256.83 c 87,9.61 172.8,-25.43 226.3,-92.47 59.4,-73.07 56.6,-159.45 50.9,-200.81 8.2,5.19 15.9,9.79 24.1,14.01 39.8,21.27 78.5,39.93 116.1,55.95 -4.3,65.04 -23.6,143.67 -82.9,216.75 -45.1,56.47 -104.2,98.46 -171.6,122.42 -43.3,-27.24 -87.1,-57.55 -131,-91.3 -10.2,-7.94 -21.3,-16.04 -31.9,-24.55"
         style="fill:#2c95db;fill-opacity:1;fill-rule:nonzero;stroke:none"
         id="path610" /><path
         d="m 11588.3,8805.57 c 68.5,14.73 141,-1.05 198.6,-42.78 57,-43.81 79.2,-103.2 88.5,-145.27 4.3,4.59 8.5,9.18 12.8,13.77 32.5,33.53 64.3,64.99 96.6,93.54 -21.4,50.14 -56.6,103.63 -114.1,147.85 l -2.8,2.05 c -48.9,36.14 -105.3,59.76 -163.1,69.86 -34.3,-38.24 -68.3,-78.42 -102.4,-121.09 -4.5,-6.11 -9.5,-11.81 -14.1,-17.93"
         style="fill:#2c95db;fill-opacity:1;fill-rule:nonzero;stroke:none"
         id="path612" /><path
         d="m 21157.9,12252.1 c -48,-107.4 -174,-155.3 -281.9,-107.1 -107.4,48 -155.4,174.1 -107.1,282 48.5,107 174.6,155 281.7,106.5 107.3,-48 155.3,-174.1 107.3,-281.4"
         style="fill:#ffffff;fill-opacity:1;fill-rule:nonzero;stroke:none"
         id="path614" /><path
         d="m 21030.8,12475.4 c -1.7,0.9 -3.4,1.7 -5.1,2.5 -37.2,16.8 -78.4,18.1 -116.3,3.8 -38,-14.4 -68.2,-42.8 -85,-79.9 -16.6,-37.1 -17.9,-78.6 -3.4,-116.6 14.4,-37.9 43.2,-67.8 79.8,-84.6 37.4,-16.7 78.9,-17.9 117,-3.5 37.9,14.5 67.9,42.8 84.5,79.9 16.6,37.1 17.7,78.4 3.3,116.4 -13.8,36.1 -40.2,65.1 -74.8,82 z m -188.9,-381.6 c -62.3,30.6 -109.9,82.9 -134.7,148.1 -26,68.4 -23.8,143 6.1,209.9 30.3,66.9 84.6,117.8 152.9,143.7 68.5,25.9 142.9,23.6 209.5,-6.6 66.4,-29.7 117.6,-83.8 143.6,-152.2 26.1,-68.3 24,-142.7 -5.8,-209.4 -29.9,-66.9 -84.1,-118 -152.5,-144 -68.4,-26 -142.9,-23.8 -209.9,6.2 -3.1,1.4 -6.2,2.8 -9.2,4.3"
         style="fill:#2492dd;fill-opacity:1;fill-rule:nonzero;stroke:none"
         id="path616" /><path
         d="m 20421.1,11538.1 c -2.4,1.2 -4.7,2.5 -6.9,4 -28.1,18.6 -35.7,56.4 -17,84.4 l 381.3,573.2 c 18.7,28 56.6,35.9 84.5,16.9 28,-18.6 35.6,-56.4 17,-84.4 l -381.4,-573.1 c -17.2,-25.8 -50.5,-34.3 -77.5,-21"
         style="fill:#2492dd;fill-opacity:1;fill-rule:nonzero;stroke:none"
         id="path618" /><path
         d="m 20183.9,12797.9 c -20.8,10.1 -34.7,31.7 -34.1,56.3 3.5,125.5 56,234.1 147.7,305.8 80.3,62.7 183,88.1 274.8,67.9 32.8,-7.3 53.7,-39.7 46.4,-72.5 -7.2,-32.9 -39.7,-53.7 -72.5,-46.5 -56.8,12.5 -121.7,-4.2 -173.7,-44.9 -62.6,-48.9 -98.5,-124.7 -100.9,-213.2 -1,-33.6 -29,-60.1 -62.6,-59.1 -9,0.2 -17.5,2.4 -25.1,6.2"
         style="fill:#2492dd;fill-opacity:1;fill-rule:nonzero;stroke:none"
         id="path620" /><path
         d="m 19817.1,13019.5 c -20.7,10.1 -34.6,31.7 -34,56.3 5.2,191.6 84.8,357.3 224.3,466.7 121.5,95.3 276.7,134.3 415.1,104.3 32.6,-7.2 53.7,-39.4 46.6,-72.4 -7.1,-32.9 -39.6,-53.8 -72.4,-46.6 -103.4,22.4 -220.8,-7.9 -314.2,-81.1 -110.4,-86.6 -173.4,-219.5 -177.6,-374.2 -1,-33.7 -29,-60.1 -62.6,-59.2 -9,0.2 -17.5,2.4 -25.2,6.2"
         style="fill:#2492dd;fill-opacity:1;fill-rule:nonzero;stroke:none"
         id="path622" /><path
         d="m 21700,11771.4 c 17.2,-15.5 42.4,-20.4 65,-10.7 115.2,49.9 196.6,138.9 229,250.7 28.5,97.8 13.9,202.6 -38.9,280.4 -19,27.7 -56.8,35.1 -84.7,16.1 -27.7,-18.9 -35,-56.7 -16.1,-84.6 32.7,-48 41.2,-114.5 22.8,-177.9 -22.2,-76.3 -79.2,-137.7 -160.5,-172.9 -30.8,-13.4 -45,-49.2 -31.6,-80.1 3.5,-8.2 8.8,-15.3 15,-21"
         style="fill:#2492dd;fill-opacity:1;fill-rule:nonzero;stroke:none"
         id="path624" /><path
         d="m 22042,11513.2 c 17.2,-15.4 42.4,-20.4 64.9,-10.7 176,76 300.3,211.5 350.1,381.6 43.3,148.3 21.9,306.8 -57.4,424.2 -18.8,27.6 -56.6,35.2 -84.5,16.4 -27.9,-18.9 -35.2,-56.7 -16.4,-84.6 59.2,-87.6 74.7,-207.9 41.4,-321.8 -39.4,-134.7 -139.4,-242.6 -281.4,-303.9 -30.9,-13.4 -45.1,-49.2 -31.8,-80.1 3.6,-8.3 8.8,-15.4 15.1,-21.1"
         style="fill:#2492dd;fill-opacity:1;fill-rule:nonzero;stroke:none"
         id="path626" /><path
         d="m 23991.3,8935.97 c 149.1,443.96 -17.6,845.07 -325.2,1053.31 L 22517,10767.2 c -116.5,78.9 -267.3,80.1 -387.6,7.1 -107.9,-65.6 -265.5,-102.4 -455.4,26.1 -329.8,223.3 -2313.4,1566.2 -2622.5,1775.5 -189.9,128.5 -214.3,288.5 -193.5,413.1 23.1,138.8 -34,278.4 -150.5,357.3 l -1030.1,697.4 c -307.6,208.2 -741.4,213.6 -1098.7,-89.3 -357,-302.5 -1078.5,-1219.3 -1321.2,-1821.2 -243.3,-601.5 69.7,-981 399.9,-1204.6 329.8,-223.3 607.6,-411.4 768,-519.9 160.8,-108.9 285.3,-177 456.1,-102.9 170.8,74.1 334,166.5 690,-74.5 275.3,-186.4 2299.8,-1556.98 2594.3,-1756.33 356,-241.01 331.3,-427.28 325.5,-613.02 -5.4,-186.06 104.1,-276.36 264.9,-385.25 160.3,-108.56 438.2,-296.64 768.4,-520.24 330.3,-223.59 798.4,-372.84 1267.1,76.11 468.6,448.93 1051.4,1459.62 1199.6,1903.4"
         style="fill:#2492dd;fill-opacity:1;fill-rule:nonzero;stroke:none"
         id="path628" /><path
         d="m 15786.6,11458.1 c 242.8,601.8 964.2,1518.7 1321.2,1821.1 357.3,303 791.1,297.5 1098.7,89.3 l 646.1,-437.4 c 0.7,19.9 2.3,39.4 5.4,58 23.1,138.7 -34,278.3 -150.5,357.1 l -1030.1,697.5 c -307.6,208.2 -741.4,213.6 -1098.7,-89.3 -357,-302.5 -1078.5,-1219.3 -1321.2,-1821.2 -243.3,-601.5 69.7,-981 399.9,-1204.6 20.1,-13.6 39.3,-26.6 58.9,-39.9 -32.3,162.8 -17.9,351.3 70.3,569.4"
         style="fill:#70caf2;fill-opacity:1;fill-rule:nonzero;stroke:none"
         id="path630" /><path
         d="m 16474.6,13610.2 c 0,0 346.4,151.8 646.8,222.1 180.2,42.2 381.9,30.9 642.8,-8.4 0,0 -319.9,268.7 -645.7,213.7 -165.8,-28 -413.1,-125.6 -643.9,-427.4"
         style="fill:#ffffff;fill-opacity:1;fill-rule:nonzero;stroke:none"
         id="path632" /><path
         d="m 23552.5,9043.36 c 111.3,429.15 -37.4,818.82 -361.5,1121.34 0,0 437.6,-190.13 528.1,-473.72 46,-144.27 4.1,-424.1 -166.6,-647.62"
         style="fill:#70caf2;fill-opacity:1;fill-rule:nonzero;stroke:none"
         id="path634" /><path
         d="m 22087.6,7679.94 -6012.4,4054.96 c -279.6,189.3 -381.8,505.6 -193,733.4 l 673.9,813.4 c 167.4,202.1 434.1,137.7 682.1,-30.2 l 5859.4,-3905.66 c 248,-167.9 387.9,-439.99 262.5,-670.48 l -504.9,-927.81 c -141.4,-259.87 -488,-256.91 -767.6,-67.61"
         style="fill:#ecffff;fill-opacity:1;fill-rule:nonzero;stroke:none"
         id="path636" /><path
         d="m 22258.8,7739.52 -6162.5,4172.08 c -166.2,112.5 -264,280.5 -280.8,445.4 -93.2,-221 -1.8,-503.3 235.6,-664 l 6021.6,-4076.61 c 237.4,-160.74 533.3,-140.72 704,27.9 -159.4,-45.7 -351.7,-17.25 -517.9,95.23"
         style="fill:#70caf2;fill-opacity:1;fill-rule:nonzero;stroke:none"
         id="path638" /><path
         d="m 16556.1,13281.7 -60.4,-72.8 c 177.4,115.2 433.3,107.6 641.3,-33.2 l 5940.5,-4021.81 c 176.4,-119.39 276.6,-306.41 278,-487.06 l 4.6,8.53 c 125.4,230.49 31.2,536.64 -216.8,704.54 l -5852.6,3962.2 c -248,167.9 -567.2,141.7 -734.6,-60.4"
         style="fill:#1b72c1;fill-opacity:1;fill-rule:nonzero;stroke:none"
         id="path640" /><path
         d="m 20017.7,8835.26 c -294.5,199.35 -2319,1569.94 -2594.3,1756.34 -356,241 -519.3,148.6 -690,74.5 -170.8,-74.1 -295.3,-6 -456.1,102.8 -160.4,108.6 -438.2,296.7 -768,520 -120.4,81.5 -238.2,184 -327.9,310.2 46.6,-304.8 257,-522.2 476,-670.5 329.8,-223.3 607.6,-411.4 768,-519.9 160.8,-108.9 285.3,-177 456.1,-102.9 170.8,74.1 334,166.5 690,-74.5 275.3,-186.4 2299.8,-1556.98 2594.3,-1756.33 76.5,-51.83 134.6,-101.01 180,-148.32 -0.9,152.77 -38.6,312.59 -328.1,508.61"
         style="fill:#2081d1;fill-opacity:1;fill-rule:nonzero;stroke:none"
         id="path642" /><path
         d="m 23991.3,8935.97 c 107.5,320.11 50.3,617.51 -105,836.83 24.3,-147.35 13.2,-308.87 -43.1,-476.53 -148.3,-443.8 -731,-1454.48 -1199.7,-1903.42 -468.6,-448.95 -936.7,-299.7 -1267,-76.1 -330.3,223.59 -608.1,411.69 -768.4,520.24 -42.4,28.65 -80.8,56.08 -114.9,84.25 -0.5,-19.81 -1.3,-39.55 -1.9,-59.29 -5.4,-186.06 104.1,-276.36 264.9,-385.25 160.3,-108.56 438.2,-296.64 768.4,-520.24 330.3,-223.59 798.4,-372.84 1267.1,76.11 468.6,448.93 1051.4,1459.62 1199.6,1903.4"
         style="fill:#2081d1;fill-opacity:1;fill-rule:nonzero;stroke:none"
         id="path644" /><path
         d="m 21224.8,7606.39 c 0,0 296.2,-132.45 600,-186.01 216.4,-38.16 268.3,-53.34 491.1,-76.2 0,0 -36.7,-63.45 -365.5,-96.71 -167.3,-16.93 -450.9,89.49 -725.6,358.92"
         style="fill:#70caf2;fill-opacity:1;fill-rule:nonzero;stroke:none"
         id="path646" /><path
         d="m 20960,9323.41 c -29,19.66 -44.4,55.82 -35.9,91.95 10.9,46.93 57.8,76.11 104.7,65.21 l 833.4,-193.97 c 46.9,-11.04 76.1,-57.81 65.2,-104.76 -11,-46.92 -57.9,-76.11 -104.8,-65.21 l -833.3,193.97 c -10.8,2.53 -20.7,6.93 -29.3,12.81"
         style="fill:#256199;fill-opacity:1;fill-rule:nonzero;stroke:none"
         id="path648" /><path
         d="m 21279.7,8809.7 c -29,19.66 -44.4,55.83 -35.9,91.96 l 193.9,833.41 c 10.9,46.92 57.8,76.11 104.8,65.21 46.8,-10.97 76.1,-57.86 65.2,-104.75 l -194,-833.42 c -10.9,-46.93 -57.8,-76.12 -104.7,-65.21 -10.8,2.52 -20.7,6.93 -29.3,12.8"
         style="fill:#256199;fill-opacity:1;fill-rule:nonzero;stroke:none"
         id="path650" /><path
         d="m 17372.9,11793.1 c -28.9,19.7 -44.3,55.8 -35.9,92 10.9,46.9 57.8,76.1 104.7,65.2 l 833.4,-194 c 46.9,-11 76.2,-57.8 65.2,-104.7 -10.9,-47 -57.8,-76.2 -104.8,-65.2 l -833.3,193.9 c -10.8,2.5 -20.7,6.9 -29.3,12.8"
         style="fill:#256199;fill-opacity:1;fill-rule:nonzero;stroke:none"
         id="path652" /><path
         d="m 17692.6,11279.4 c -28.9,19.7 -44.3,55.8 -35.9,92 l 193.9,833.4 c 11,46.9 57.9,76.1 104.8,65.2 46.8,-11 76.1,-57.9 65.2,-104.8 l -194,-833.4 c -10.9,-46.9 -57.8,-76.1 -104.7,-65.2 -10.8,2.5 -20.7,6.9 -29.3,12.8"
         style="fill:#256199;fill-opacity:1;fill-rule:nonzero;stroke:none"
         id="path654" /><path
         d="m 19676.8,9698.49 c -1.5,0.39 -2.9,0.81 -4.3,1.3 -45.8,15.05 -70.7,64.36 -55.7,110.12 57.1,173.51 -46.7,336.89 -152.8,423.99 -109.4,89.8 -283.3,153.2 -444,62.6 -42.1,-23.7 -95.2,-8.8 -118.9,33.1 -23.6,42 -8.8,95.2 33.2,118.9 198.6,112 444.1,81.4 640.3,-79.7 196,-160.9 277.6,-401.61 208,-613.37 -14.5,-44.37 -61.3,-69.12 -105.8,-56.94"
         style="fill:#256199;fill-opacity:1;fill-rule:nonzero;stroke:none"
         id="path656" /><path
         d="m 20184.7,6877.22 c -106.6,50.74 -67.8,32.3 -510.4,242.8 -91,-270.84 -272.3,-692.92 -639,-1104.62 -550.9,-618.4 -1200.2,-854.2 -1498.2,-941.7 162.5,-174.6 939.4,-448.5 1785,-850.7 581.1,-276.4 1049.5,173.6 1195,479.4 94.3,198.4 41.7,87.7 365.1,767.7 323.4,680 -269.1,1203.4 -697.5,1407.12"
         style="fill:#1b72c1;fill-opacity:1;fill-rule:nonzero;stroke:none"
         id="path658" /><path
         d="m 19862.8,6080.7 c 49.7,83.7 157.9,111.3 241.7,61.5 83.6,-49.7 111.2,-158 61.5,-241.7 -49.8,-83.8 -158.2,-111.2 -241.7,-61.5 -83.8,49.8 -111.3,157.9 -61.5,241.7 z m -120.6,-548 c 44.3,-26.3 90.7,-45.5 138.3,-57.6 38.4,-10.2 77.4,-15.8 116.3,-17 100.6,-3.2 200.7,22.2 287.4,73.4 33.7,19.7 65.1,43.1 93.9,70.3 36.1,33.4 67.7,72.5 94,116.7 26.3,44.3 45.5,90.7 57.6,138.3 10.2,38.4 15.7,77.2 16.9,116.2 3.5,100.6 -22,200.7 -72.8,287.5 -19.7,33.6 -43.4,65.2 -70.6,94 -33.3,36.1 -72.4,67.7 -116.7,94 -44.2,26.3 -90.7,45.5 -138.3,57.6 -38.3,10.1 -77.3,15.8 -116.3,17 -100.6,3.2 -200.6,-22.2 -287.4,-73.1 -33.7,-19.7 -65.3,-43.3 -94.1,-70.5 -36,-33.4 -67.7,-72.5 -94,-116.7 -26.3,-44.3 -45.5,-90.8 -57.6,-138.4 -10.1,-38.3 -15.7,-77.3 -17,-116.3 -3.2,-100.5 22.3,-200.6 73.2,-287.4 19.7,-33.7 43.3,-65.2 70.5,-94.1 33.4,-36 72.4,-67.6 116.7,-93.9"
         style="fill:#2492dd;fill-opacity:1;fill-rule:nonzero;stroke:none"
         id="path660" /><path
         d="m 20175,6503.6 c -30.8,-51.8 -13.7,-118.7 38,-149.5 51.8,-30.8 118.8,-13.8 149.5,38 30.8,51.8 13.8,118.7 -38,149.5 -51.8,30.79 -118.7,13.77 -149.5,-38"
         style="fill:#2492dd;fill-opacity:1;fill-rule:nonzero;stroke:none"
         id="path662" /><path
         d="m 20521.9,5830.9 c -51.8,30.7 -118.7,13.7 -149.5,-38.1 -30.7,-51.8 -13.7,-118.7 38.1,-149.5 51.8,-30.8 118.7,-13.7 149.5,38.1 30.7,51.7 13.7,118.7 -38.1,149.5"
         style="fill:#2492dd;fill-opacity:1;fill-rule:nonzero;stroke:none"
         id="path664" /><path
         d="m 20487.8,6239.1 c -58.4,-14.9 -93.7,-74.3 -78.8,-132.6 14.8,-58.4 74.2,-93.7 132.6,-78.9 58.4,14.9 93.7,74.3 78.8,132.7 -14.9,58.3 -74.2,93.6 -132.6,78.8"
         style="fill:#2492dd;fill-opacity:1;fill-rule:nonzero;stroke:none"
         id="path666" /><path
         d="m 20257.4,5518.1 c -14.8,58.3 -74.2,93.6 -132.6,78.8 -58.4,-14.9 -93.7,-74.2 -78.8,-132.6 14.8,-58.4 74.2,-93.7 132.6,-78.8 58.4,14.8 93.7,74.2 78.8,132.6"
         style="fill:#2492dd;fill-opacity:1;fill-rule:nonzero;stroke:none"
         id="path668" /><path
         d="m 19536.4,5748.4 c 58.4,14.9 93.7,74.3 78.8,132.6 -14.8,58.4 -74.2,93.7 -132.6,78.9 -58.4,-14.9 -93.6,-74.3 -78.8,-132.6 14.9,-58.4 74.2,-93.7 132.6,-78.9"
         style="fill:#2492dd;fill-opacity:1;fill-rule:nonzero;stroke:none"
         id="path670" /><path
         d="m 19849.2,5483.9 c 30.8,51.8 13.8,118.7 -38,149.5 -51.8,30.8 -118.7,13.8 -149.5,-38 -30.8,-51.8 -13.8,-118.7 38,-149.5 51.8,-30.8 118.7,-13.8 149.5,38"
         style="fill:#2492dd;fill-opacity:1;fill-rule:nonzero;stroke:none"
         id="path672" /><path
         d="m 19502.3,6156.6 c 51.8,-30.7 118.7,-13.7 149.5,38.1 30.8,51.8 13.7,118.7 -38.1,149.5 -51.7,30.8 -118.7,13.7 -149.5,-38 -30.7,-51.8 -13.7,-118.8 38.1,-149.6"
         style="fill:#2492dd;fill-opacity:1;fill-rule:nonzero;stroke:none"
         id="path674" /><path
         d="m 19766.8,6469.4 c 14.8,-58.3 74.2,-93.6 132.6,-78.8 58.4,14.9 93.7,74.3 78.8,132.6 -14.8,58.42 -74.2,93.7 -132.6,78.85 -58.4,-14.85 -93.7,-74.25 -78.8,-132.65"
         style="fill:#2492dd;fill-opacity:1;fill-rule:nonzero;stroke:none"
         id="path676" /><path
         d="m 18944.3,5393.8 c 27.8,62 100.5,89.8 162.5,62 61.9,-27.7 89.8,-100.5 62,-162.5 -27.8,-62 -100.6,-89.7 -162.5,-62 -62,27.8 -89.7,100.5 -62,162.5 z m -39.6,-389.3 c 32.8,-14.7 66.5,-24.2 100.4,-28.8 27.4,-4 54.9,-4.8 82,-2.5 69.9,5.9 137.2,31.5 193.2,73.9 21.7,16.3 41.6,35.1 59.4,56.3 22.3,26 41.1,55.6 55.8,88.3 14.7,32.8 24.2,66.5 28.8,100.5 4,27.4 4.7,54.7 2.4,81.8 -5.6,70 -31.3,137.3 -73.5,193.3 -16.3,21.8 -35.2,41.8 -56.4,59.5 -26,22.3 -55.6,41.1 -88.4,55.8 -32.7,14.7 -66.5,24.2 -100.4,28.8 -27.4,4 -54.9,4.8 -82,2.5 -69.9,-5.9 -137.2,-31.5 -193.2,-73.7 -21.8,-16.4 -41.7,-35.2 -59.5,-56.4 -22.3,-26 -41.1,-55.6 -55.8,-88.4 -14.6,-32.8 -24.2,-66.5 -28.8,-100.4 -3.9,-27.4 -4.7,-54.9 -2.4,-82 5.8,-69.9 31.4,-137.2 73.6,-193.2 16.4,-21.8 35.3,-41.7 56.4,-59.5 26,-22.3 55.6,-41.1 88.4,-55.8"
         style="fill:#2492dd;fill-opacity:1;fill-rule:nonzero;stroke:none"
         id="path678" /><path
         d="m 19126.7,5711.8 c -17.1,-38.3 0,-83.3 38.4,-100.5 38.3,-17.2 83.3,0 100.5,38.3 17.2,38.4 0,83.4 -38.3,100.5 -38.4,17.2 -83.4,0.1 -100.6,-38.3"
         style="fill:#2492dd;fill-opacity:1;fill-rule:nonzero;stroke:none"
         id="path680" /><path
         d="m 19421,5273.6 c -38.4,17.1 -83.4,0 -100.5,-38.4 -17.2,-38.3 0,-83.3 38.3,-100.5 38.3,-17.2 83.3,0 100.5,38.3 17.2,38.4 0,83.4 -38.3,100.6"
         style="fill:#2492dd;fill-opacity:1;fill-rule:nonzero;stroke:none"
         id="path682" /><path
         d="m 19364.6,5553.6 c -39.2,-14.9 -58.9,-58.9 -43.9,-98.2 14.9,-39.2 58.9,-58.9 98.1,-43.9 39.3,14.9 59,58.9 44,98.2 -15,39.2 -58.9,58.9 -98.2,43.9"
         style="fill:#2492dd;fill-opacity:1;fill-rule:nonzero;stroke:none"
         id="path684" /><path
         d="m 19262.8,5035.7 c -15,39.2 -58.9,58.9 -98.2,44 -39.2,-15 -58.9,-59 -43.9,-98.2 14.9,-39.3 58.9,-59 98.1,-44 39.3,15 59,58.9 44,98.2"
         style="fill:#2492dd;fill-opacity:1;fill-rule:nonzero;stroke:none"
         id="path686" /><path
         d="m 18744.9,5137.5 c 39.2,15 58.9,58.9 43.9,98.2 -14.9,39.2 -58.9,58.9 -98.1,44 -39.3,-15 -59,-59 -44,-98.2 15,-39.3 58.9,-59 98.2,-44"
         style="fill:#2492dd;fill-opacity:1;fill-rule:nonzero;stroke:none"
         id="path688" /><path
         d="m 18982.7,4979.3 c 17.2,38.4 0.1,83.4 -38.3,100.5 -38.3,17.2 -83.3,0.1 -100.5,-38.3 -17.2,-38.3 0,-83.3 38.3,-100.5 38.4,-17.2 83.4,0 100.5,38.3"
         style="fill:#2492dd;fill-opacity:1;fill-rule:nonzero;stroke:none"
         id="path690" /><path
         d="m 18688.5,5417.6 c 38.3,-17.2 83.3,0 100.5,38.3 17.2,38.3 0,83.3 -38.3,100.5 -38.3,17.2 -83.4,0 -100.5,-38.3 -17.2,-38.4 0,-83.4 38.3,-100.5"
         style="fill:#2492dd;fill-opacity:1;fill-rule:nonzero;stroke:none"
         id="path692" /><path
         d="m 18846.7,5655.4 c 15,-39.2 58.9,-58.9 98.2,-43.9 39.2,14.9 58.9,58.9 43.9,98.2 -14.9,39.2 -58.9,58.9 -98.1,43.9 -39.3,-14.9 -59,-58.9 -44,-98.2"
         style="fill:#2492dd;fill-opacity:1;fill-rule:nonzero;stroke:none"
         id="path694" /><path
         d="m 19847.5,4701.7 c 64.6,88.3 188.4,107.6 276.7,43.1 88.1,-64.4 107.6,-188.4 43.1,-276.7 -64.5,-88.3 -188.5,-107.5 -276.7,-43.1 -88.3,64.5 -107.6,188.3 -43.1,276.7 z M 19654.7,4102 c 46.7,-34.1 96.6,-60.5 148.5,-79 41.7,-15.4 84.7,-25.9 128.2,-31.4 112,-14.2 226.5,3.6 328.9,51.6 39.7,18.4 77.3,41.3 112.4,68.7 43.8,33.4 83.3,73.7 117.4,120.4 34.1,46.7 60.5,96.6 79.1,148.5 15.4,41.7 25.7,84.5 31.2,128 14.5,112.1 -3.3,226.6 -51,329 -18.4,39.7 -41.5,77.5 -68.8,112.6 -33.5,43.8 -73.8,83.3 -120.5,117.4 -46.6,34.1 -96.5,60.4 -148.4,79 -41.8,15.4 -84.8,25.9 -128.2,31.4 -112.1,14.2 -226.6,-3.6 -329,-51.3 -39.7,-18.4 -77.5,-41.5 -112.6,-68.8 -43.8,-33.5 -83.3,-73.8 -117.4,-120.5 -34.1,-46.7 -60.4,-96.6 -79,-148.5 -15.4,-41.7 -25.9,-84.7 -31.3,-128.1 -14.3,-112.1 3.6,-226.6 51.2,-329 18.4,-39.7 41.5,-77.5 68.9,-112.6 33.4,-43.8 73.7,-83.3 120.4,-117.4"
         style="fill:#2492dd;fill-opacity:1;fill-rule:nonzero;stroke:none"
         id="path696" /><path
         d="m 20241.3,5141.2 c -39.9,-54.7 -27.9,-131.3 26.7,-171.2 54.6,-39.8 131.2,-27.9 171.1,26.7 39.9,54.6 27.9,131.2 -26.7,171.1 -54.6,39.9 -131.2,28 -171.1,-26.6"
         style="fill:#2492dd;fill-opacity:1;fill-rule:nonzero;stroke:none"
         id="path698" /><path
         d="m 20557.7,4352.6 c -54.6,39.9 -131.2,27.9 -171.1,-26.7 -39.9,-54.6 -28,-131.2 26.7,-171.1 54.6,-39.9 131.2,-27.9 171.1,26.7 39.8,54.6 27.9,131.2 -26.7,171.1"
         style="fill:#2492dd;fill-opacity:1;fill-rule:nonzero;stroke:none"
         id="path700" /><path
         d="m 20562.8,4812.4 c -66.8,-10.4 -112.5,-73 -102.1,-139.9 10.4,-66.8 73,-112.5 139.8,-102.1 66.9,10.4 112.6,73 102.2,139.8 -10.4,66.9 -73,112.6 -139.9,102.2"
         style="fill:#2492dd;fill-opacity:1;fill-rule:nonzero;stroke:none"
         id="path702" /><path
         d="m 20228.9,4031.1 c -10.4,66.8 -73,112.5 -139.8,102.1 -66.8,-10.4 -112.6,-73 -102.1,-139.8 10.4,-66.9 73,-112.6 139.8,-102.2 66.8,10.4 112.5,73 102.1,139.9"
         style="fill:#2492dd;fill-opacity:1;fill-rule:nonzero;stroke:none"
         id="path704" /><path
         d="m 19447.6,4365 c 66.8,10.4 112.6,73 102.1,139.8 -10.4,66.8 -73,112.6 -139.8,102.1 -66.8,-10.4 -112.5,-73 -102.1,-139.8 10.4,-66.8 73,-112.6 139.8,-102.1"
         style="fill:#2492dd;fill-opacity:1;fill-rule:nonzero;stroke:none"
         id="path706" /><path
         d="m 19769.1,4036.2 c 39.9,54.6 28,131.2 -26.6,171.1 -54.6,39.9 -131.2,28 -171.1,-26.7 -39.9,-54.6 -28,-131.2 26.6,-171.1 54.6,-39.9 131.2,-27.9 171.1,26.7"
         style="fill:#2492dd;fill-opacity:1;fill-rule:nonzero;stroke:none"
         id="path708" /><path
         d="m 19452.7,4824.8 c 54.7,-39.9 131.3,-28 171.1,26.6 39.9,54.6 28,131.3 -26.6,171.1 -54.6,39.9 -131.2,28 -171.1,-26.6 -39.9,-54.6 -28,-131.2 26.6,-171.1"
         style="fill:#2492dd;fill-opacity:1;fill-rule:nonzero;stroke:none"
         id="path710" /><path
         d="m 19781.5,5146.3 c 10.4,-66.8 73,-112.6 139.8,-102.2 66.9,10.5 112.6,73.1 102.2,139.9 -10.4,66.8 -73,112.5 -139.8,102.1 -66.9,-10.4 -112.6,-73 -102.2,-139.8"
         style="fill:#2492dd;fill-opacity:1;fill-rule:nonzero;stroke:none"
         id="path712" /><path
         d="m 11072.7,6187.1 c -107.6,262.8 -30,555.05 171.7,731.8 14.6,12.62 29,24.29 44.4,35.87 41.4,30.05 87,55.89 136.3,76.16 67.5,27.28 137.2,43.5 205,47.16 0.9,-0.06 1.3,-0.6 1.9,-0.19 268.2,16.45 528.3,-137.45 636,-399.29 48.4,-116.9 59.6,-239.31 39.3,-355.51 l -221.4,-90.3 -140,339.79 -372.7,96.95 -197.2,-330.94 140,-339.8 -221.4,-91.2 c -95.7,67.6 -173.8,163.1 -221.9,279.5"
         style="fill:#1b72c1;fill-opacity:1;fill-rule:nonzero;stroke:none"
         id="path714" /><path
         d="m 10537.6,9101.87 c -15.7,38.47 3.1,82.69 41.6,98.44 38.4,15.74 82.2,-2.57 98,-41.02 15.7,-38.46 -2.2,-82.78 -40.6,-98.53 -38.5,-15.74 -83.2,2.68 -99,41.11 z m 854.7,-1364.71 -118.6,328.08 -1.8,5.36 -112.9,310.51 -8.8,24.5 -66.7,184.88 -19.7,54.91 -225.1,577.95 c -45.3,138.25 -198.2,209.14 -332.8,154.03 -134.2,-55.61 -193.3,-213.5 -127.8,-343.06 l 357.5,-838.62 100.2,-225.19 27.8,-62.85 125.5,-280.7 c 38.9,23.73 72.9,47.01 97.1,61.44 100.2,59.67 250.1,112.68 306.1,48.76 z m 260.4,-730.31 -22.6,71.24 c -67.8,-3.66 -137.5,-19.88 -205,-47.16 -49.3,-20.27 -94.9,-46.11 -136.3,-76.16 l 40.5,-80.69 323.4,132.77"
         style="fill:#1b72c1;fill-opacity:1;fill-rule:nonzero;stroke:none"
         id="path716" /><path
         d="m 11288.8,6954.77 -2.7,5.48 -145.3,326.18 -85.7,192.54 -66,147.99 c 38.9,23.73 72.9,47.01 97.1,61.44 100.2,59.67 250.1,112.68 306.1,48.76 l 22.7,-61.84 114.9,-318.24 93.4,-257.98 6.8,-21.01 c -67.8,-3.66 -137.5,-19.88 -205,-47.16 -49.3,-20.27 -94.9,-46.11 -136.3,-76.16"
         style="fill:#1b72c1;fill-opacity:1;fill-rule:nonzero;stroke:none"
         id="path718" /><path
         d="m 11055.1,7478.97 85.7,-192.54 c -96.3,34.71 -128.7,125.38 -85.7,192.54"
         style="fill:#2081d1;fill-opacity:1;fill-rule:nonzero;stroke:none"
         id="path720" /><path
         d="m 10693,7676.68 c -13.8,92.02 65.1,169.5 170.6,230.98 150.9,88.75 354.8,143.6 410.1,157.58 7.2,1.59 11.6,2.54 13.1,3.79 l -14.9,1.57 c -47.9,2.24 -201,-0.44 -436.1,-100.09 -6.3,-2.64 -11.8,-5.36 -18.2,-7.98 -127.2,-55.89 -255.9,86.49 -96.4,221.49 l 14.4,11.68 c 126.6,99.81 312.9,157.45 423.4,185.41 51.3,12.49 86.4,18.68 92.7,20.37 -6.5,1.63 -41.1,8.6 -101.5,4.13 -49.9,-3.69 -117.2,-16.37 -200.2,-46.75 -124.1,-45.82 -285,3.26 -165.7,136.38 18.1,20.08 41.5,39.31 68.3,57.37 2.4,1.61 4.9,3.14 7.3,4.74 17.9,11.52 36.7,22.66 57.5,32.77 23.5,12.14 48.7,23.14 75.7,33.03 22.5,7.98 46,15.89 70.7,22.25 34.6,10.01 70.3,17.56 107.6,23.05 25,3.96 49.8,6.99 75.4,8.05 87,6.38 175.5,0.3 258.9,-22.65 298.1,-80.57 483.2,-345.41 463.4,-720.64 -10.8,-204.04 -144.1,-376.71 -305.5,-493.58 -10.2,-7.42 -19.9,-14.41 -29.5,-20.47 -3.6,-2.92 -8.2,-5.73 -12.2,-8.16 -9.2,-6.55 -18.3,-12.2 -27.4,-17.85 -7.5,-4.38 -15.6,-9.2 -23.1,-13.58 -8.6,-5.24 -17.6,-9.93 -26,-14.22 l -1.6,-1.26 c -4.9,-2.3 -9.5,-5.13 -13.9,-7.01 l -114.9,318.24 c -0.3,2.38 -0.1,4.26 -0.3,6.64 -2.6,24.33 -10.1,42.1 -22.4,55.2 -56,63.92 -205.9,10.91 -306.1,-48.76 -24.2,-14.43 -58.2,-37.71 -97.1,-61.44 -115.2,-68.46 -267.4,-134.41 -296.1,49.72"
         style="fill:#2081d1;fill-opacity:1;fill-rule:nonzero;stroke:none"
         id="path722" /><path
         d="m 11375.2,8570.36 c 298,-80.82 482.9,-345.47 463,-720.75 -10.6,-199.64 -138.4,-368.11 -294.7,-485.38 210.1,111.6 411.8,315.48 425.3,568.87 19.9,375.28 -165,639.93 -463,720.75 -257.4,69.77 -568.5,-16.09 -701.3,-138.5 155.7,72.15 378.1,107.23 570.7,55.01"
         style="fill:#2492dd;fill-opacity:1;fill-rule:nonzero;stroke:none"
         id="path724" /><path
         d="m 13547.6,3270.3 c -122,52.3 -178.8,194 -126.4,316.3 52.5,122.3 194.3,178.8 316.4,126.4 122.3,-52.4 178.8,-194 126.4,-316.3 -52.5,-122.3 -194.1,-178.9 -316.4,-126.4 z m 5.7,-500.6 c 53.8,-6.9 107.6,-7.6 160.6,-2.3 136.7,13.6 267.7,65.9 376.2,150.3 42.1,32.7 80.6,70.3 114.8,112.3 42.8,51.6 78.7,110.2 106.4,174.8 27.7,64.6 45.4,131 53.3,197.6 6.9,53.7 7.6,107.5 2.3,160.6 -13.6,136.7 -66,267.7 -150.4,376.1 -32.6,42.1 -70.2,80.6 -112.3,114.8 -51.6,42.8 -110.1,78.7 -174.8,106.5 -64.6,27.7 -130.9,45.4 -197.6,53.3 -53.7,6.9 -107.5,7.6 -160.5,2.2 -136.7,-13.6 -267.7,-65.9 -376.1,-150.6 -42,-32.7 -80.5,-70.1 -114.6,-112.1 -42.9,-51.6 -78.7,-110.2 -106.5,-174.8 -27.7,-64.6 -45.4,-131 -53.3,-197.6 -6.9,-53.7 -7.5,-107.3 -2.1,-160.3 13.2,-136.9 65.5,-267.9 149.9,-376.3 32.7,-42.1 70.3,-80.6 112.3,-114.8 51.7,-42.8 110.2,-78.7 174.8,-106.4 64.7,-27.8 131,-45.5 197.6,-53.3"
         style="fill:#2492dd;fill-opacity:1;fill-rule:nonzero;stroke:none"
         id="path726" /><path
         d="m 14146.2,3045.6 c -107.3,46 -157,170.3 -110.9,277.6 46,107.3 170.3,157 277.6,111 107.3,-46.1 157,-170.4 111,-277.7 -46.1,-107.3 -170.4,-157 -277.7,-110.9"
         style="fill:#2492dd;fill-opacity:1;fill-rule:nonzero;stroke:none"
         id="path728" /><path
         d="m 13683.3,2820.2 c -43.3,108.4 9.5,231.4 117.9,274.7 108.4,43.4 231.4,-9.4 274.8,-117.8 43.3,-108.4 -9.5,-231.5 -117.9,-274.8 -108.4,-43.3 -231.4,9.4 -274.8,117.9"
         style="fill:#2492dd;fill-opacity:1;fill-rule:nonzero;stroke:none"
         id="path730" /><path
         d="m 13196.6,2988.1 c 46,107.3 170.4,157 277.7,110.9 107.3,-46 156.9,-170.3 110.9,-277.6 -46,-107.3 -170.3,-157 -277.6,-111 -107.3,46.1 -157,170.4 -111,277.7"
         style="fill:#2492dd;fill-opacity:1;fill-rule:nonzero;stroke:none"
         id="path732" /><path
         d="m 14314.1,3532.3 c -108.4,-43.3 -231.4,9.4 -274.7,117.9 -43.4,108.4 9.4,231.4 117.8,274.7 108.5,43.4 231.5,-9.4 274.8,-117.8 43.3,-108.5 -9.4,-231.5 -117.9,-274.8"
         style="fill:#2492dd;fill-opacity:1;fill-rule:nonzero;stroke:none"
         id="path734" /><path
         d="m 13602,4163.1 c 43.3,-108.4 -9.4,-231.5 -117.8,-274.8 -108.5,-43.3 -231.5,9.5 -274.8,117.9 -43.4,108.4 9.4,231.4 117.8,274.8 108.5,43.3 231.5,-9.5 274.8,-117.9"
         style="fill:#2492dd;fill-opacity:1;fill-rule:nonzero;stroke:none"
         id="path736" /><path
         d="m 14088.7,3995.2 c -46,-107.3 -170.3,-157 -277.6,-111 -107.3,46.1 -157,170.4 -111,277.7 46.1,107.3 170.4,156.9 277.7,110.9 107.3,-46 156.9,-170.3 110.9,-277.6"
         style="fill:#2492dd;fill-opacity:1;fill-rule:nonzero;stroke:none"
         id="path738" /><path
         d="m 13139.1,3937.7 c 107.3,-46 157,-170.3 111,-277.7 -46.1,-107.3 -170.4,-156.9 -277.7,-110.9 -107.3,46 -157,170.3 -110.9,277.6 46,107.3 170.3,157 277.6,111"
         style="fill:#2492dd;fill-opacity:1;fill-rule:nonzero;stroke:none"
         id="path740" /><path
         d="m 12971.2,3451 c 108.4,43.3 231.4,-9.5 274.8,-117.9 43.3,-108.4 -9.5,-231.4 -117.9,-274.8 -108.4,-43.3 -231.4,9.5 -274.8,117.9 -43.3,108.4 9.5,231.5 117.9,274.8"
         style="fill:#2492dd;fill-opacity:1;fill-rule:nonzero;stroke:none"
         id="path742" /></g></g></svg>
