<svg xmlns="http://www.w3.org/2000/svg" width="163.691" height="84.301" viewBox="0 0 43.31 22.305"><g style="fill:#4c4c4c" transform="matrix(1.27628 0 0 1.38385 34.36 32.462)"><ellipse cx="-1.325" cy="-13.203" fill="#fff" rx="4.625" ry="4.278" style="fill:#4c4c4c;stroke-width:1.34792"/><path fill="#777" d="M-.43-12.183c.841-1.167 2.803-.908 3.084.389-.42 1.037-1.682 1.296-2.523.777-.841-.389-1.121-.777-.56-1.166" style="display:inline;fill:#ccc;stroke-width:1.34792"/><path d="m-2.666-15.904-1.444 1.18-.028 1.488.041 1.018-.137 1.08.935-.161.303-.484.481-.522h.317l1.417-.732.688-.645.371-1.13-1.18-.316-.416-.615-.921-.347z" style="fill:#b2b2b2;stroke:#b2b2b2;stroke-width:.642605px;stroke-linecap:butt;stroke-linejoin:miter;stroke-opacity:1"/></g><g style="fill:#4c4c4c" transform="matrix(.39163 0 0 .41102 13.765 10.731)"><ellipse cx="-1.325" cy="-13.203" fill="#fff" rx="4.625" ry="4.278" style="fill:#4c4c4c;stroke-width:1.34792"/><ellipse cx="99.284" cy="144.834" rx=".157" ry=".049" style="fill:#b2b2b2;stroke:#b2b2b2;stroke-width:.264583" transform="matrix(2.55343 0 0 2.43296 -253.612 -367.618)"/><ellipse cx="99.042" cy="147.001" rx=".128" ry=".01" style="fill:#b2b2b2;stroke:#b2b2b2;stroke-width:.264583" transform="matrix(2.55343 0 0 2.43296 -253.612 -367.618)"/><ellipse cx="98.762" cy="145.863" rx=".059" ry=".088" style="fill:#b2b2b2;stroke:#b2b2b2;stroke-width:.264583" transform="matrix(2.55343 0 0 2.43296 -253.612 -367.618)"/><ellipse cx="97.942" cy="145.04" rx=".098" ry=".147" style="fill:#b2b2b2;stroke:#b2b2b2;stroke-width:.264583" transform="matrix(2.55343 0 0 2.43296 -253.612 -367.618)"/></g><path d="M96.25 161.894c-2.24-.565-4.343-2.073-5.71-4.096-1.138-1.734-1.46-2.316-2-4.447-.375-1.459-.35-3.567.061-4.96.384-1.3 1.27-3.24 1.908-4.178 1.375-2.02 3.372-3.487 5.59-4.11 1.155-.325 3.373-.347 4.52-.046 1.035.272 2.44.965 3.36 1.656.814.612 3.25 3.238 3.25 3.503 0 .2-2.244 2.776-2.418 2.776-.074 0-.36-.27-.64-.598-1.062-1.254-2.114-2.27-2.736-2.642-1.768-1.059-3.956-1.14-5.679-.21-.612.331-2.372 2.097-2.947 2.958-1.685 3.2-1.024 5.57.703 7.88 1.216 1.617 2.29 2.303 4.13 2.64 1.446.266 3.203-.26 4.512-1.348.35-.29 3.356-3.595 6.684-7.343 3.452-3.889 6.377-7.084 6.813-7.44.88-.72 2.508-1.55 3.593-1.834 1.148-.299 3.367-.276 4.518.048 2.264.636 4.305 2.157 5.638 4.2.724 1.11 1.62 3.1 1.92 4.26.376 1.456.35 3.565-.06 4.96-.292.993-.43 1.681-1 2.74-.215.4-.9 1.474-1.085 1.73-3.137 4.36-8.797 5.452-12.96 2.5-.984-.697-3.643-3.46-3.638-3.778.003-.19 2.293-2.68 2.464-2.68.087 0 .655.558 1.263 1.24 1.602 1.797 2.598 2.426 4.348 2.748.62.114.93.114 1.552 0 1.405-.258 1.966-.532 2.889-1.412 2.08-1.985 2.834-3.336 2.966-5.313.137-2.045-.78-4.052-2.63-5.763-1.225-1.134-2.482-1.65-3.996-1.645a5.7 5.7 0 0 0-3.738 1.386c-.305.267-3.23 3.488-6.5 7.16-3.27 3.67-6.228 6.94-6.576 7.262q-1.739 1.62-4.114 2.213c-1.158.29-3.07.281-4.256-.017" style="fill:#fff" transform="translate(-88.275 -139.845)"/></svg>