<svg xmlns="http://www.w3.org/2000/svg" width="163.689" height="84.301" viewBox="0 0 43.309 22.305"><path d="M7.973 22.049c-2.24-.565-4.341-2.073-5.708-4.096-1.138-1.733-1.46-2.316-2-4.447-.375-1.458-.35-3.566.06-4.96.384-1.301 1.27-3.24 1.909-4.178C3.609 2.35 5.605.882 7.824.258c1.154-.324 3.373-.347 4.518-.046 1.036.273 2.442.965 3.36 1.656.815.613 3.251 3.238 3.251 3.504 0 .2-2.244 2.775-2.418 2.775-.073 0-.36-.269-.64-.598-1.061-1.253-2.114-2.27-2.735-2.641-1.769-1.06-3.956-1.14-5.68-.21-.611.33-2.371 2.097-2.946 2.958-1.685 3.199-1.025 5.57.703 7.88 1.216 1.616 2.289 2.302 4.13 2.64 1.446.265 3.202-.26 4.512-1.349.348-.29 3.356-3.594 6.683-7.343 3.451-3.888 6.377-7.083 6.813-7.44.88-.72 2.508-1.55 3.592-1.833 1.148-.3 3.368-.276 4.518.047 2.264.636 4.306 2.157 5.639 4.2.724 1.11 1.62 3.1 1.92 4.26.375 1.456.35 3.565-.06 4.96-.292.994-.429 1.682-1 2.74-.215.4-.901 1.475-1.085 1.73-3.138 4.361-8.797 5.452-12.96 2.5-.984-.696-3.644-3.46-3.638-3.777.003-.19 2.293-2.68 2.463-2.68.087 0 .656.557 1.263 1.239 1.603 1.797 2.599 2.427 4.349 2.748.62.114.931.114 1.552 0 1.405-.257 1.966-.531 2.888-1.411 2.08-1.985 2.835-3.336 2.967-5.313.137-2.045-.78-4.052-2.63-5.764-1.226-1.133-2.482-1.65-3.997-1.645a5.71 5.71 0 0 0-3.737 1.386c-.306.267-3.23 3.489-6.5 7.16-3.269 3.67-6.229 6.939-6.577 7.263-1.158 1.079-2.529 1.816-4.112 2.212-1.158.29-3.071.282-4.257-.017z" fill="#fff"/></svg>