<?xml version="1.0" encoding="UTF-8"?>
<svg width="989.45" height="108.67" version="1.1" viewBox="0 0 261.79 28.752" xmlns="http://www.w3.org/2000/svg" xmlns:cc="http://creativecommons.org/ns#" xmlns:dc="http://purl.org/dc/elements/1.1/" xmlns:rdf="http://www.w3.org/1999/02/22-rdf-syntax-ns#">
  <path d="m25.235 28.506c-4.637-1.04-7.407-5.25-7.143-10.857 0.152-3.234 1.118-5.493 3.241-7.577 0.779-0.764 1.142-1.023 2.027-1.445 2.116-1.008 4.655-1.213 7.172-0.577 2.09 0.529 3.901 1.953 5.058 3.98 0.478 0.837 1.15 2.798 1.328 3.876 0.22 1.335 0.323 2.95 0.196 3.107-0.09 0.112-1.813 0.143-7.919 0.143h-7.803l1e-3 0.541c5e-3 1.517 0.957 3.805 2.022 4.861 1.186 1.176 2.538 1.619 4.659 1.525 2.648-0.117 4.063-1.033 5.248-3.393l0.429-0.855 1.428-0.032c1.005-0.023 1.453 8e-3 1.512 0.103 0.124 0.2-0.2 1.18-0.719 2.175-1.214 2.325-3.385 3.92-6.105 4.488-1.11 0.232-3.46 0.2-4.632-0.063zm8.638-12.514c-0.116-0.999-0.622-2.475-1.095-3.2-0.815-1.245-2.004-2.016-3.636-2.36-3.27-0.686-6.14 0.881-7.241 3.954-0.246 0.686-0.524 2.032-0.446 2.157 0.038 0.06 2.66 0.104 6.28 0.104h6.215zm58.34 12.505c-2.24-0.565-4.342-2.073-5.709-4.096-1.138-1.734-1.46-2.316-2-4.447-0.375-1.459-0.35-3.567 0.061-4.96 0.384-1.301 1.269-3.24 1.908-4.178 1.375-2.02 3.372-3.487 5.59-4.11 1.155-0.325 3.373-0.347 4.519-0.046 1.036 0.272 2.441 0.965 3.36 1.656 0.814 0.612 3.25 3.238 3.25 3.503 0 0.2-2.244 2.776-2.418 2.776-0.073 0-0.36-0.27-0.64-0.598-1.061-1.254-2.113-2.27-2.735-2.642-1.768-1.059-3.956-1.14-5.679-0.21-0.612 0.331-2.372 2.097-2.947 2.958-1.685 3.2-1.024 5.57 0.703 7.88 1.216 1.617 2.289 2.303 4.13 2.64 1.446 0.266 3.203-0.26 4.512-1.348 0.349-0.29 3.356-3.595 6.683-7.343 3.452-3.889 6.377-7.084 6.813-7.44 0.88-0.72 2.508-1.551 3.593-1.834 1.148-0.299 3.367-0.276 4.518 0.048 2.264 0.636 4.305 2.157 5.638 4.2 0.724 1.11 1.62 3.1 1.92 4.259 0.376 1.457 0.35 3.566-0.06 4.96-0.292 0.994-0.429 1.682-1 2.74-0.215 0.4-0.9 1.475-1.085 1.731-3.137 4.36-8.797 5.452-12.96 2.5-0.984-0.697-3.643-3.46-3.638-3.778 3e-3 -0.19 2.293-2.68 2.464-2.68 0.087 0 0.655 0.558 1.263 1.24 1.602 1.797 2.598 2.426 4.348 2.748 0.62 0.114 0.931 0.114 1.552 0 1.405-0.258 1.966-0.532 2.889-1.412 2.08-1.985 2.834-3.336 2.966-5.313 0.137-2.045-0.78-4.052-2.63-5.763-1.225-1.134-2.482-1.65-3.996-1.645-1.372-0.0021-2.699 0.4899-3.738 1.386-0.305 0.267-3.23 3.488-6.5 7.159-3.269 3.67-6.228 6.94-6.576 7.263-1.159 1.08-2.53 1.817-4.113 2.213-1.158 0.29-3.071 0.281-4.256-0.017zm-82.295-0.357c-0.106-0.105-0.138-3.018-0.138-12.417 0-11.092-0.018-12.286-0.182-12.348-0.1-0.038-2.3-0.07-4.89-0.07h-4.708l0.032-1.34 0.033-1.337 11.267-0.03c10.49-0.028 11.277-0.015 11.41 0.165 0.15 0.201 0.2 1.813 0.072 2.288l-0.07 0.257h-4.69c-2.58 0-4.773 0.03-4.873 0.069-0.165 0.062-0.182 1.256-0.182 12.348 0 9.399-0.033 12.312-0.138 12.417-0.092 0.09-0.588 0.136-1.472 0.136s-1.38-0.046-1.471-0.136zm31.041 0c-0.2-0.2-0.2-27.805 0-28.004 0.092-0.09 0.588-0.137 1.472-0.137s1.38 0.046 1.472 0.137c0.104 0.104 0.138 2.185 0.138 8.671 0 7.404 0.022 8.522 0.165 8.443 0.092-0.051 2.117-1.888 4.501-4.082 2.384-2.195 4.59-4.208 4.902-4.475l0.568-0.484h1.887c1.461 0 1.888 0.033 1.888 0.146 0 0.08-1.914 1.879-4.254 3.995-2.34 2.117-4.254 3.888-4.254 3.935 0 0.048 2.125 2.692 4.723 5.877 2.904 3.56 4.698 5.853 4.66 5.952-0.05 0.13-0.412 0.162-1.849 0.162-1.55 0-1.812-0.026-1.987-0.2-0.11-0.11-1.877-2.317-3.925-4.903s-3.8-4.702-3.893-4.702-0.836 0.595-1.65 1.322l-1.482 1.323v3.443c0 2.526-0.037 3.48-0.138 3.58-0.092 0.091-0.588 0.137-1.472 0.137s-1.38-0.046-1.472-0.136zm20.7 0.042c-0.057-0.036-0.0915-0.57325-0.10888-2.0834-0.01738-1.5101 0.05911-3.9795 0.07061-7.907l0.03547-2.7192c0.14309-3.9598 2.182-6.3147 4.9655-7.3634 1.7508-0.65965 3.4483-0.5718 5.4843-0.36105 2.982 0.36 4.814 1.678 5.731 4.124 0.573 1.53 0.6 1.892 0.66 9.121 0.042 4.959 0.022 6.864-0.073 7.041-0.122 0.226-0.222 0.242-1.492 0.242-0.976 0-1.397-0.041-1.486-0.148-0.084-0.1-0.135-2.314-0.159-6.983-0.034-6.63-0.043-6.858-0.28-7.549-0.671-1.95-2.0353-2.8055-4.1473-3.0245-2.827-0.293-4.7977 0.575-5.7196 2.6709-0.59448 1.4649-0.44312 2.8703-0.45102 4.4845l-0.04607 3.8761c-0.0125 2.4535-0.0295 4.0828-0.05638 5.1069-0.02687 1.0241-0.06362 1.4431-0.11562 1.4761-0.092 0.058-0.74875 0.086-1.4056 0.085s-1.3139-0.031-1.4064-0.089zm96.734-0.034c-2.002-0.202-3.56-0.93-4.975-2.327-0.777-0.767-1.024-1.106-1.457-2-0.698-1.44-0.935-2.54-0.92-4.267 0.044-4.725 3.12-8.017 7.792-8.337 3.896-0.266 7.243 1.787 8.569 5.256 0.483 1.262 0.621 3.763 0.293 5.289-0.916 4.267-4.681 6.851-9.302 6.386zm3.03-0.856c1.272-0.282 2.357-0.897 3.396-1.923 1.588-1.57 2.251-3.224 2.264-5.644 0.016-3.177-1.403-5.662-3.994-6.996-1.169-0.6-2.067-0.801-3.62-0.808-1.572-7e-3 -2.257 0.141-3.555 0.767-1.844 0.89-3.212 2.576-3.818 4.705-0.333 1.167-0.36 3.259-0.059 4.384 0.867 3.235 3.378 5.431 6.502 5.69 1.085 0.09 1.92 0.039 2.884-0.175zm60.762 0.866c-2.942-0.3-4.802-2.3-4.63-4.978 0.104-1.595 1.009-2.84 2.697-3.708 1.63-0.838 3.196-1.114 6.339-1.115 1.23 0 2.198-0.05 2.328-0.118 0.18-0.096 0.221-0.24 0.219-0.77-0.013-2.324-0.66-3.878-1.96-4.705-1.22-0.777-2.992-1.064-4.588-0.743-1.006 0.202-2.294 0.775-3.022 1.345-0.448 0.35-0.722 0.354-0.854 0.013-0.156-0.403 1.428-1.372 3.074-1.879 1.007-0.31 2.965-0.363 4.019-0.11 1.527 0.367 2.813 1.281 3.394 2.412 0.623 1.214 0.648 1.465 0.753 7.52 0.055 3.103 0.114 5.797 0.132 5.985 0.03 0.312 0 0.342-0.312 0.342-0.337 0-0.347-0.017-0.423-0.684-0.0596-0.55988-0.11093-1.1206-0.154-1.682-0.042-0.548-0.116-0.997-0.164-0.997s-0.26 0.336-0.47 0.746c-1.076 2.103-3.716 3.397-6.378 3.126zm2.547-0.839c2.036-0.537 3.652-2.347 4.133-4.63 0.099-0.47 0.189-1.47 0.2-2.223l0.019-1.368-2.214-0.031c-4.004-0.056-6.321 0.556-7.658 2.024-0.661 0.725-0.804 1.159-0.81 2.454-8e-3 1.356 0.203 1.931 0.98 2.678 0.915 0.881 1.961 1.237 3.666 1.246 0.6 3e-3 1.358-0.064 1.684-0.15zm29.013 0.843c-1.836-0.185-3.327-0.894-4.663-2.218-1.076-1.066-1.72-2.184-2.142-3.714-0.222-0.81-0.265-1.243-0.265-2.676 0-1.922 0.142-2.599 0.836-3.99 1.036-2.082 2.399-3.3 4.495-4.018 0.758-0.26 1.07-0.301 2.313-0.307 1.196-6e-3 1.582 0.038 2.3 0.26 2.045 0.63 3.617 2.047 4.513 4.067 0.34 0.764 0.66 2.379 0.66 3.319v0.612h-7.003c-3.852 0-7.086 0.031-7.186 0.069-0.236 0.09-0.237 0.7-5e-3 1.814 0.371 1.783 1.246 3.45 2.286 4.355 0.68 0.592 1.836 1.255 2.596 1.489 0.813 0.25 3.353 0.272 4.197 0.037 1.25-0.347 2.417-1.068 3.388-2.091 0.448-0.472 0.74-0.54 0.916-0.213 0.095 0.176 0.03 0.312-0.353 0.744-1.595 1.796-4.206 2.73-6.883 2.46zm7.207-10.085c-0.29-3.066-2.337-5.463-5.162-6.039-2.248-0.458-4.215 0.042-5.817 1.48-0.86765 0.77028-1.5424 1.7334-1.97 2.812-0.352 0.875-0.64 2.182-0.523 2.37 0.044 0.072 2.525 0.113 6.805 0.113h6.736zm-120.64 9.96c-1.432-0.237-3.177-1.182-3.888-2.107l-0.327-0.425 0.266-0.213 0.265-0.214 0.702 0.664c0.387 0.365 0.884 0.773 1.105 0.905 1.149 0.69 3.07 0.983 4.4 0.673 1.471-0.343 2.375-1.001 2.954-2.15 0.679-1.347 0.39-3.1-0.65-3.951-0.723-0.591-1.439-0.897-3.485-1.49-2.51-0.727-3.26-1.079-3.997-1.878-0.688-0.747-0.893-1.365-0.878-2.65 9e-3 -0.764 0.066-1.042 0.319-1.555 0.924-1.873 3.507-2.846 6.107-2.3 1.063 0.223 1.876 0.632 2.646 1.33 0.694 0.629 0.8 0.96 0.341 1.074-0.24 0.06-0.398-0.029-0.92-0.517-1.16-1.09-2.704-1.539-4.394-1.28-1.135 0.174-1.967 0.577-2.554 1.239-1.05 1.183-1.077 3.249-0.055 4.292 0.583 0.595 1.276 0.908 3.296 1.489 2.836 0.814 3.56 1.142 4.432 2.007 0.715 0.71 0.98 1.511 0.92 2.793-0.037 0.81-0.11 1.157-0.35 1.653-0.976 2.013-3.502 3.067-6.255 2.611zm46.273-0.027c-1.186-0.333-1.925-1.143-2.235-2.453-0.118-0.494-0.154-2.096-0.155-6.875-1e-3 -5.575-0.021-6.237-0.184-6.3-0.1-0.037-0.876-0.069-1.724-0.069h-1.543v-0.282c0-0.363 0.147-0.396 1.955-0.43l1.437-0.029 0.057-2.28 0.058-2.28h0.689l0.058 2.28 0.057 2.28 2.3 0.063c1.265 0.035 2.312 0.074 2.328 0.086s0.029 0.15 0.029 0.307v0.285h-2.22c-1.572 0-2.258 0.04-2.356 0.137-0.104 0.103-0.138 1.673-0.138 6.365 0 6.76 0.02 7.01 0.638 7.737 0.158 0.186 0.532 0.458 0.83 0.604 0.467 0.228 0.69 0.261 1.579 0.236 0.569-0.017 1.188-0.042 1.376-0.057 0.525-0.042 0.538 0.328 0.019 0.543-0.585 0.243-2.197 0.317-2.855 0.132zm-57.033-0.218c-0.664-0.5-0.362-1.568 0.444-1.568 0.728 0 1.026 1.012 0.433 1.474-0.346 0.27-0.605 0.298-0.877 0.094zm44.824-0.266c-0.039-0.1-0.07-3.536-0.07-7.637v-7.457l-0.259-0.06c-0.142-0.033-0.88-0.072-1.638-0.088-1.327-0.027-1.381-0.037-1.416-0.28-0.047-0.329 0.139-0.369 1.876-0.404l1.38-0.028 0.067-3.591c0.038-1.976 0.121-3.747 0.186-3.935 0.206-0.606 0.713-1.519 1.06-1.911 0.725-0.819 2.197-1.31 3.507-1.172 0.829 0.088 1.023 0.184 0.965 0.475-0.039 0.192-0.136 0.21-0.92 0.175-1.326-0.06-2.072 0.192-2.82 0.953-0.485 0.494-0.647 0.766-0.861 1.444-0.252 0.792-0.265 1.006-0.265 4.199v3.363l2.127 0.064c1.17 0.035 2.14 0.073 2.156 0.085 0.015 0.012 0.028 0.15 0.028 0.307v0.285h-2.046c-1.438 0-2.088 0.041-2.184 0.137-0.105 0.104-0.138 1.969-0.138 7.697v7.56h-0.333c-0.197 0-0.361-0.074-0.402-0.181zm22.242-0.084c-0.086-0.222-2.647-8.9-4.146-14.045-0.423-1.45-0.436-1.77-0.073-1.766 0.323 5e-3 0.47 0.307 0.948 1.95 0.281 0.965 1.238 4.268 2.127 7.341s1.658 5.632 1.71 5.686c0.053 0.054 0.17-0.048 0.26-0.228s1.239-3.508 2.554-7.396 2.472-7.134 2.57-7.212c0.205-0.163 0.694-0.185 0.921-0.043 0.085 0.054 1.286 3.397 2.67 7.43s2.563 7.38 2.621 7.437c0.064 0.063 0.131 0.063 0.17 0 0.036-0.058 0.668-2.179 1.403-4.714l2.13-7.337c0.736-2.533 0.892-2.912 1.2-2.912 0.47 0 0.443 0.112-1.922 8.104l-2.341 7.912h-1.125l-1.583-4.56-2.581-7.445c-0.55-1.586-1.05-2.866-1.114-2.845-0.136 0.045-0.122 6e-3 -2.938 8.18-1.2 3.48-2.218 6.418-2.263 6.528-0.06 0.148-0.213 0.2-0.589 0.2-0.425 0-0.524-0.043-0.61-0.265zm40.453-5.237c-5e-3 -3.026-0.049-6.58-0.1-7.896-0.097-2.547-0.059-2.784 0.423-2.632 0.195 0.061 0.236 0.214 0.3 1.112 0.041 0.573 0.075 1.393 0.075 1.822 0 0.43 0.039 0.78 0.086 0.78s0.28-0.398 0.515-0.884c0.96-1.978 2.55-3.095 4.683-3.292 0.616-0.057 0.786-0.035 0.911 0.114 0.24 0.287 0.072 0.528-0.37 0.528-2.465 0-4.574 1.844-5.36 4.687-0.365 1.317-0.459 2.777-0.462 7.143l-3e-3 4.02h-0.69z"/>
</svg>
