<?xml version="1.0" encoding="UTF-8"?>
<svg width="814.69" height="131.29" version="1.1" viewBox="0 0 215.55 34.736" xmlns="http://www.w3.org/2000/svg">
<path d="m25.235 28.507c-4.637-1.04-7.4071-5.25-7.1431-10.857 0.152-3.234 1.118-5.4931 3.241-7.5771 0.77901-0.76401 1.142-1.023 2.027-1.445 2.116-1.008 4.655-1.213 7.1721-0.57701 2.09 0.52901 3.901 1.953 5.058 3.98 0.478 0.83701 1.15 2.798 1.328 3.876 0.22 1.335 0.323 2.95 0.196 3.107-0.09 0.112-1.813 0.143-7.9191 0.143h-7.8031l1e-3 0.541c5e-3 1.517 0.95701 3.805 2.022 4.861 1.186 1.176 2.538 1.619 4.659 1.525 2.648-0.117 4.063-1.033 5.248-3.393l0.429-0.85501 1.428-0.032c1.005-0.023 1.453 8e-3 1.512 0.103 0.124 0.2-0.2 1.18-0.71901 2.175-1.214 2.325-3.385 3.92-6.1051 4.488-1.11 0.232-3.46 0.2-4.632-0.063zm8.6381-12.514c-0.116-0.99901-0.62201-2.475-1.095-3.2-0.81501-1.245-2.004-2.016-3.636-2.36-3.27-0.68601-6.1401 0.88101-7.2411 3.954-0.246 0.68601-0.524 2.032-0.446 2.157 0.038 0.06 2.66 0.104 6.2801 0.104h6.2151zm58.341 12.505c-2.24-0.56501-4.342-2.073-5.7091-4.096-1.138-1.734-1.46-2.316-2-4.447-0.375-1.459-0.35-3.567 0.061-4.96 0.384-1.301 1.269-3.24 1.908-4.178 1.375-2.02 3.372-3.487 5.5901-4.11 1.155-0.325 3.373-0.347 4.519-0.046 1.036 0.272 2.441 0.96501 3.36 1.656 0.81401 0.61201 3.25 3.238 3.25 3.503 0 0.2-2.244 2.776-2.418 2.776-0.073 0-0.36001-0.27-0.64001-0.59801-1.061-1.254-2.113-2.27-2.735-2.642-1.768-1.059-3.956-1.14-5.6791-0.21-0.612 0.331-2.372 2.097-2.947 2.958-1.685 3.2-1.024 5.5701 0.70301 7.8801 1.216 1.617 2.289 2.303 4.13 2.64 1.446 0.266 3.203-0.26 4.512-1.348 0.349-0.29 3.356-3.595 6.6831-7.3431 3.452-3.889 6.3771-7.0841 6.8131-7.4401 0.88001-0.72001 2.508-1.551 3.593-1.834 1.148-0.299 3.367-0.276 4.518 0.048 2.264 0.63601 4.305 2.157 5.638 4.2 0.72401 1.11 1.62 3.1 1.92 4.259 0.376 1.457 0.35 3.566-0.06 4.96-0.292 0.99401-0.429 1.682-1 2.74-0.215 0.4-0.90001 1.475-1.085 1.731-3.137 4.36-8.7971 5.4521-12.96 2.5-0.98401-0.69701-3.643-3.46-3.638-3.778 3e-3 -0.19 2.293-2.68 2.464-2.68 0.087 0 0.655 0.558 1.263 1.24 1.602 1.797 2.598 2.426 4.348 2.748 0.62001 0.114 0.93101 0.114 1.552 0 1.405-0.258 1.966-0.532 2.889-1.412 2.08-1.985 2.834-3.336 2.966-5.3131 0.137-2.045-0.78001-4.052-2.63-5.7631-1.225-1.134-2.482-1.65-3.996-1.645-1.372-0.0021-2.699 0.4899-3.738 1.386-0.305 0.267-3.23 3.488-6.5001 7.1591-3.269 3.67-6.2281 6.9401-6.5761 7.2631-1.159 1.08-2.53 1.817-4.113 2.213-1.158 0.29-3.071 0.281-4.256-0.017zm-82.296-0.357c-0.106-0.105-0.138-3.018-0.138-12.417 0-11.092-0.018-12.286-0.182-12.348-0.1-0.038-2.3-0.07-4.89-0.07h-4.708l0.032-1.34 0.033-1.337 11.267-0.03c10.49-0.028 11.277-0.015 11.41 0.165 0.15 0.201 0.2 1.813 0.072 2.288l-0.07 0.257h-4.69c-2.58 0-4.773 0.03-4.873 0.069-0.165 0.062-0.182 1.256-0.182 12.348 0 9.3991-0.033 12.312-0.138 12.417-0.092 0.09-0.588 0.136-1.472 0.136-0.88401 0-1.38-0.046-1.471-0.136zm31.041 0c-0.2-0.2-0.2-27.805 0-28.004 0.092-0.09 0.58801-0.137 1.472-0.137s1.38 0.046 1.472 0.137c0.104 0.104 0.138 2.185 0.138 8.6711 0 7.4041 0.022 8.5221 0.165 8.4431 0.092-0.051 2.117-1.888 4.501-4.082 2.384-2.195 4.59-4.208 4.902-4.475l0.56801-0.484h1.887c1.461 0 1.888 0.033 1.888 0.146 0 0.08-1.914 1.879-4.254 3.995-2.34 2.117-4.254 3.888-4.254 3.935 0 0.048 2.125 2.692 4.723 5.8771 2.904 3.56 4.698 5.8531 4.66 5.9521-0.05 0.13-0.412 0.162-1.849 0.162-1.55 0-1.812-0.026-1.987-0.2-0.11-0.11-1.877-2.317-3.925-4.903-2.048-2.586-3.8-4.702-3.893-4.702-0.093 0-0.83601 0.59501-1.65 1.322l-1.482 1.323v3.443c0 2.526-0.037 3.48-0.138 3.58-0.092 0.091-0.58801 0.137-1.472 0.137s-1.38-0.046-1.472-0.136zm20.7 0.042c-0.057-0.036-0.0915-0.57326-0.10888-2.0834-0.01738-1.5101 0.05911-3.9795 0.07061-7.9071l0.03547-2.7192c0.14309-3.9598 2.182-6.3148 4.9655-7.3635 1.7508-0.65966 3.4483-0.5718 5.4844-0.36105 2.982 0.36 4.814 1.678 5.7311 4.124 0.57301 1.53 0.60001 1.892 0.66001 9.1211 0.042 4.959 0.022 6.8641-0.073 7.0411-0.122 0.226-0.222 0.242-1.492 0.242-0.97601 0-1.397-0.041-1.486-0.148-0.084-0.1-0.135-2.314-0.159-6.9831-0.034-6.6301-0.043-6.8581-0.28-7.5491-0.67101-1.95-2.0353-2.8055-4.1473-3.0245-2.827-0.293-4.7977 0.57501-5.7197 2.6709-0.59449 1.4649-0.44312 2.8703-0.45102 4.4845l-0.04607 3.8761c-0.0125 2.4535-0.0295 4.0828-0.05638 5.1069-0.02687 1.0241-0.06362 1.4431-0.11562 1.4761-0.092 0.058-0.74876 0.086-1.4056 0.085s-1.3139-0.031-1.4064-0.089zm67.894-0.39c-0.664-0.5-0.362-1.568 0.44401-1.568 0.728 0 1.026 1.012 0.433 1.474-0.346 0.27-0.60501 0.298-0.87701 0.094z"/>
<path d="m151.88 23.721 0.0206-11.016 0.30432-0.0252 0.30432-0.02518v1.9072c0 1.049 0.0315 1.9266 0.0698 1.9504 0.0384 0.02376 0.18885-0.18407 0.33422-0.46183 0.54187-1.0354 1.0621-1.6853 1.8769-2.3448 0.50823-0.41137 0.87535-0.6201 1.8984-1.0794 1.2498-0.56111 3.773-0.55818 5.0437 0.0058 0.14066 0.06242 0.29012 0.11351 0.33214 0.11351 0.0419 0 0.23735 0.09082 0.43407 0.20184 0.19671 0.11101 0.41244 0.22564 0.47939 0.25474 0.45971 0.1998 1.6009 1.2511 2.0048 1.8468 0.12456 0.18373 0.24822 0.35232 0.27482 0.37463 0.0265 0.02232 0.18574 0.33272 0.35369 0.68979 0.16794 0.35707 0.338 0.71263 0.37792 0.79013 0.0399 0.07752 0.0741 0.20533 0.0761 0.28403 2e-3 0.07871 0.0557 0.2892 0.11944 0.46773 0.0637 0.17854 0.15764 0.76758 0.20868 1.309 0.14089 1.4944-0.03 2.9592-0.46748 4.0065-0.36262 0.86816-0.81312 1.6364-1.2747 2.1737-0.43464 0.50598-1.265 1.233-1.4096 1.234-0.0558 0-0.1014 0.03045-0.1014 0.06681 0 0.07895-1.1622 0.66427-1.319 0.66427-0.0601 0-0.14547 0.03619-0.18971 0.08042-0.0754 0.07543-0.37752 0.15398-1.2505 0.32518-0.20086 0.03941-0.73038 0.07164-1.1767 0.07164s-0.97585-0.03223-1.1767-0.07164c-0.78007-0.15298-1.1337-0.23983-1.2741-0.31293-0.0803-0.04181-0.31037-0.14167-0.51123-0.22192-0.60805-0.2429-1.4431-0.81909-2.0218-1.395-0.67827-0.67505-0.95378-1.0422-1.3041-1.7379-0.15056-0.29898-0.30375-0.52508-0.3404-0.5024-0.0367 0.02266-0.0667 2.5953-0.0667 5.7171v5.6759h-0.6498zm8.6824 3.1589c1.5496-0.26978 3.1324-1.3343 4.0028-2.6922 1.9247-3.0026 1.5116-7.277-0.9314-9.6375-1.1552-1.1161-2.8458-1.805-4.4295-1.805-1.2844 0-2.8487 0.53467-3.9196 1.3397-0.51556 0.38755-1.3959 1.3269-1.3959 1.4894 0 0.05083-0.0312 0.09244-0.0692 0.09244-0.11624 0-0.78862 1.3852-0.96509 1.9882-0.3624 1.2385-0.43163 2.5548-0.1969 3.7441 0.505 2.5586 2.3624 4.6926 4.6395 5.3304 0.24548 0.06875 0.59241 0.16099 0.77095 0.20498 0.37992 0.0936 1.825 0.06208 2.4943-0.05443zm13.696 0.63725c-0.81421-0.2039-0.96288-0.24968-1.182-0.36394-0.13099-0.0683-0.28379-0.12442-0.33959-0.12469-0.0558 0-0.10139-0.03308-0.10139-0.07285 0-0.03981-0.0905-0.09506-0.20109-0.12283-0.3077-0.07722-1.191-0.95449-1.4506-1.4407-0.326-0.61057-0.45832-1.1843-0.45832-1.9872 0-1.0635 0.2706-1.8598 0.86071-2.5328 0.77602-0.88498 2.0146-1.557 3.5215-1.9107 0.80371-0.18864 3.0943-0.37332 4.6302-0.37332h1.3751v-1.1034c0-1.1108-0.0826-1.6107-0.38734-2.3456-0.33068-0.79741-1.124-1.566-2.0112-1.9486-0.50728-0.21876-1.6424-0.44537-2.231-0.44537-1.125 0-2.9869 0.5742-3.5732 1.102-0.0705 0.06342-0.1709 0.11532-0.22318 0.11532-0.0522 0-0.0953 0.02739-0.0956 0.06086 0 0.03348-0.13169 0.15019-0.29197 0.25936l-0.29142 0.19849-0.15255-0.19849c-0.17948-0.23352-0.18058-0.24196-0.0521-0.40572 0.35309-0.45026 2.4006-1.4564 2.9638-1.4564 0.0802 0 0.19112-0.04537 0.24659-0.10082 0.0724-0.07235 0.47209-0.09976 1.4161-0.09709 1.3266 0.0037 1.8288 0.08411 2.5448 0.40716 0.14067 0.06345 0.28181 0.11537 0.31368 0.11537 0.16319 0 1.2022 0.7822 1.433 1.0789 0.1461 0.18772 0.28486 0.35957 0.30838 0.38189 0.0558 0.053 0.35979 0.70331 0.47413 1.0144 0.25177 0.68496 0.28259 1.2471 0.33613 6.127 0.0388 3.5469 0.0826 5.057 0.15075 5.2193 0.0527 0.12566 0.096 0.30122 0.096 0.39015 0 0.14003-0.0462 0.15834-0.34491 0.13672l-0.3449-0.02494-0.0584-0.64923c-0.0322-0.35706-0.0823-1.0981-0.11136-1.6468-0.0296-0.56047-0.0863-0.98646-0.12898-0.97222-0.0418 0.01388-0.15777 0.22634-0.25761 0.47202-0.32504 0.79976-0.89891 1.5635-1.5709 2.0906-0.43599 0.342-1.5203 0.89248-1.8898 0.9594-0.15621 0.02828-0.32987 0.08782-0.3859 0.13231-0.13222 0.10495-2.1658 0.15508-2.5356 0.06251zm2.5471-0.64664c1.0396-0.19952 2.1299-0.89887 2.8672-1.839 0.84857-1.0821 1.2403-2.5187 1.2403-4.5492v-1.2449l-1.7245 0.0082c-2.7967 0.01318-4.3076 0.20644-5.3886 0.68919-0.14066 0.06282-0.27705 0.1142-0.30312 0.1142-0.12494 0-0.94107 0.54908-1.2552 0.84448-0.47911 0.45055-0.73258 0.86702-0.9142 1.502-0.38751 1.3551-0.0219 2.7051 0.97245 3.5905 0.44948 0.40026 1.2492 0.7834 1.7784 0.85202 0.21072 0.02732 0.4379 0.08189 0.50485 0.12124 0.15337 0.09019 1.589 0.03287 2.2225-0.0887zm15.874 0.64041c-0.61869-0.10751-1.173-0.25304-1.2538-0.32916-0.0423-0.03992-0.12753-0.0726-0.18918-0.0726-0.36263 0-1.8408-0.92282-2.4609-1.5364-0.70921-0.70165-1.5854-2.1264-1.7959-2.9201-0.5458-2.0584-0.52268-3.8826 0.0712-5.6064 0.26003-0.75488 0.57751-1.3351 1.1323-2.0694 0.48197-0.6379 0.67414-0.82772 1.372-1.3552 0.81567-0.61657 1.2836-0.83439 2.7592-1.2843 0.39385-0.12009 1.9849-0.17708 2.5563-0.09155 1.4368 0.21507 2.6768 0.77268 3.5638 1.6026l0.27714 0.25932-0.22573 0.2092c-0.24262 0.22485-0.33618 0.21044-0.66859-0.10296-0.85248-0.80376-2.64-1.4735-3.9205-1.469-0.55693 0.0019-1.7599 0.22811-2.3237 0.43682-0.56286 0.20834-1.3351 0.66369-1.8037 1.0636-0.41928 0.35779-0.82285 0.77623-0.82285 0.85315 0 0.04468-0.0279 0.08125-0.0622 0.08125-0.0891 0-0.58681 0.77138-0.84882 1.3155-0.54006 1.1215-0.75265 2.0908-0.75265 3.4319 0 1.329 0.21317 2.3077 0.7497 3.4418 0.63462 1.3415 1.896 2.5635 3.189 3.0896 0.24393 0.09923 0.51651 0.21248 0.60577 0.25167 0.86011 0.37753 3.1296 0.35839 4.2749-0.03606 0.84047-0.28946 2.0955-1.0047 2.0955-1.1943 0-0.04122 0.0364-0.07492 0.0813-0.07492 0.11718 0 0.40643 0.30661 0.40191 0.42604-8e-3 0.23211-1.1469 0.96077-2.1467 1.3744-0.17573 0.07271-0.73466 0.19788-1.3796 0.30895-0.49562 0.08536-1.976 0.08332-2.4752-0.0034zm15.216 0.03638c-0.94848-0.13278-2.3131-0.6972-3.1244-1.2922-0.48611-0.35655-1.3788-1.2887-1.6689-1.7428-0.33361-0.52203-0.71124-1.3416-0.87879-1.9071-0.0794-0.26779-0.18271-0.59646-0.22967-0.73037-0.12147-0.34614-0.17883-3.1556-0.0745-3.6519 0.28251-1.3449 0.63298-2.2176 1.2519-3.1171 0.35952-0.52255 1.1312-1.3868 1.2382-1.3868 0.0242 0 0.11283-0.06407 0.19687-0.14236 0.24177-0.22525 1.2251-0.78684 1.6258-0.92852 1.1811-0.41763 1.2164-0.42333 2.611-0.42158 0.82409 0.0011 1.3952 0.03516 1.4608 0.08728 0.0591 0.04708 0.24498 0.11035 0.41296 0.14062 0.16798 0.03026 0.54018 0.16037 0.8271 0.2891 1.686 0.75648 2.8286 2.0134 3.4367 3.7804 0.27517 0.7997 0.52742 2.2499 0.48772 2.804l-0.0254 0.35568-12.966 0.04154 0.0573 0.79075c0.0603 0.833 0.28283 1.8289 0.54731 2.4491 0.26868 0.63011 0.58458 1.2226 0.65188 1.2226 0.0353 0 0.0644 0.04565 0.0645 0.10145 0 0.15966 0.85975 1.0818 1.3661 1.4662 0.474 0.35985 1.2834 0.78058 1.8215 0.94682 0.16885 0.05219 0.68012 0.1487 1.1361 0.21453 0.67703 0.09771 0.97053 0.10242 1.6001 0.02565 1.7452-0.21281 2.911-0.76753 4.0273-1.9161 0.31808-0.3273 0.60445-0.59509 0.63643-0.59509 0.0319 0 0.14366 0.0673 0.24822 0.14954 0.18696 0.14708 0.18771 0.15345 0.0452 0.38784-0.18329 0.30139-1.3811 1.4103-1.5233 1.4103-0.0586 0-0.10655 0.02776-0.10655 0.06171 0 0.06067-0.74089 0.45907-1.2984 0.6982-0.64514 0.2767-1.3515 0.39639-2.4752 0.41942-0.62487 0.01279-1.2457 0.0081-1.3796-0.01072zm6.8574-8.9134c0-0.44247-0.2191-1.497-0.40571-1.9528-0.90445-2.2089-2.267-3.3641-4.4924-3.8085-1.8016-0.35982-3.7383 0.15576-5.0295 1.3389-0.61881 0.56704-1.2901 1.4146-1.5061 1.9015-0.0396 0.08928-0.1673 0.36995-0.28384 0.62373-0.1165 0.25379-0.21184 0.50255-0.21184 0.55282 0 0.05026-0.0521 0.26259-0.116 0.47183-0.0639 0.20924-0.13419 0.59042-0.15643 0.84706l-0.0404 0.46663h12.242zm-74.052 8.7832c-1.032-0.2591-1.578-0.48066-2.2317-0.90573-0.40441-0.26297-1.3796-1.2129-1.3796-1.3439 0-0.1465 0.38839-0.34702 0.56409-0.29126 0.0915 0.02902 0.16629 0.07947 0.16629 0.1121 0 0.06729 0.51289 0.60535 0.84768 0.8893 0.2991 0.25368 1.2002 0.6902 1.7492 0.84732 0.85371 0.24436 2.739 0.23854 3.2232-0.0099 0.0796-0.04083 0.33637-0.15767 0.57069-0.25966 0.23433-0.10197 0.42605-0.2157 0.42605-0.25269 0-0.03701 0.0456-0.06824 0.1014-0.06939 0.10773-0.0022 0.76448-0.65951 0.93078-0.93155 0.3852-0.63027 0.45199-0.888 0.45199-1.7444 0-0.69973-0.0311-0.91943-0.17387-1.2286-0.53097-1.1498-1.664-1.7938-4.2724-2.4283-0.17854-0.04342-0.39765-0.10972-0.48692-0.1473-0.0894-0.03758-0.38141-0.13554-0.64921-0.21767-0.89136-0.2734-1.9151-0.89009-2.2454-1.3527-0.28799-0.40323-0.47317-0.77512-0.47317-0.95021 0-0.0868-0.0366-0.18038-0.0812-0.20796-0.11232-0.06941-0.10269-1.626 0.0124-1.9825 0.40878-1.2674 1.3442-2.1071 2.8686-2.5749 0.68218-0.20935 2.3956-0.20871 3.0838 0.0011 1.1047 0.33692 1.5071 0.56372 2.2145 1.2482 0.5124 0.4958 0.59104 0.60639 0.50499 0.71008-0.056 0.06755-0.15226 0.12283-0.21373 0.12283-0.0614 0-0.11181 0.03651-0.11181 0.08115 0 0.16057-0.13125 0.07251-0.69547-0.46663-1.1943-1.1412-2.7827-1.5606-4.4171-1.1664-0.33476 0.08075-0.79124 0.23329-1.0144 0.33899-0.44235 0.20953-1.1573 0.87812-1.3187 1.2332-0.0558 0.12274-0.14709 0.32024-0.20287 0.43886-0.0629 0.13388-0.0987 0.54172-0.0941 1.0753 5e-3 0.68192 0.0419 0.93677 0.17458 1.2331 0.35566 0.79427 1.0959 1.3415 2.2932 1.6952 0.33475 0.09889 0.76512 0.23079 0.95638 0.29312 0.19125 0.06233 0.40546 0.11334 0.47603 0.11334 0.11552 0 0.70113 0.17161 1.1239 0.32935 0.0892 0.0333 0.39968 0.14417 0.68979 0.24635 0.98282 0.34617 1.7946 0.91758 2.2101 1.5558 0.4391 0.67436 0.54934 1.0631 0.5471 1.9289-3e-3 1.2006-0.38589 2.1171-1.2153 2.9098-0.26903 0.25716-0.96329 0.70119-1.2173 0.77856-0.11157 0.03397-0.24329 0.09397-0.29268 0.13329-0.29931 0.2383-2.7032 0.39142-3.3998 0.21654z" stroke-width=".081152"/>
</svg>
