<svg xmlns="http://www.w3.org/2000/svg" width="814.69" height="131.29" viewBox="0 0 215.55 34.736"><path d="M25.235 28.507c-4.637-1.04-7.407-5.25-7.143-10.857.152-3.234 1.118-5.493 3.24-7.577.78-.764 1.143-1.023 2.028-1.445 2.116-1.008 4.655-1.213 7.172-.577 2.09.529 3.901 1.953 5.058 3.98.478.837 1.15 2.798 1.328 3.876.22 1.335.323 2.95.196 3.107-.09.112-1.813.143-7.92.143h-7.802v.54c.006 1.518.958 3.806 2.023 4.862 1.186 1.176 2.538 1.619 4.659 1.525 2.648-.117 4.063-1.033 5.248-3.393l.429-.855 1.428-.032c1.005-.023 1.453.008 1.512.103.124.2-.2 1.18-.72 2.175-1.213 2.325-3.384 3.92-6.104 4.488-1.11.232-3.46.2-4.632-.063zm8.638-12.514c-.116-.999-.622-2.475-1.095-3.2-.815-1.245-2.004-2.016-3.636-2.36-3.27-.686-6.14.881-7.241 3.954-.246.686-.524 2.032-.446 2.157.038.06 2.66.104 6.28.104h6.215zM9.918 28.141c-.106-.105-.138-3.018-.138-12.417 0-11.092-.018-12.286-.182-12.348-.1-.038-2.3-.07-4.89-.07H0l.032-1.34L.065.629l11.267-.03C21.822.571 22.61.584 22.742.764c.15.201.2 1.813.072 2.288l-.07.257h-4.69c-2.58 0-4.773.03-4.873.069C13.016 3.44 13 4.634 13 15.726c0 9.4-.033 12.312-.138 12.417-.092.09-.588.136-1.472.136s-1.38-.046-1.47-.136zm31.041 0c-.2-.2-.2-27.805 0-28.004.092-.09.588-.137 1.472-.137s1.38.046 1.472.137c.104.104.138 2.185.138 8.671 0 7.404.022 8.522.165 8.443.092-.05 2.117-1.888 4.501-4.082s4.59-4.208 4.902-4.475l.568-.484h1.887c1.461 0 1.888.033 1.888.146 0 .08-1.914 1.88-4.254 3.995-2.34 2.117-4.254 3.888-4.254 3.935s2.125 2.692 4.723 5.877c2.904 3.56 4.698 5.853 4.66 5.952-.05.13-.412.162-1.849.162-1.55 0-1.812-.026-1.987-.2-.11-.11-1.877-2.317-3.925-4.903s-3.8-4.702-3.893-4.702-.836.595-1.65 1.322l-1.482 1.323v3.443c0 2.526-.037 3.48-.138 3.58-.092.091-.588.137-1.472.137s-1.38-.046-1.472-.136zm20.7.042c-.057-.036-.091-.573-.109-2.083-.017-1.51.06-3.98.07-7.908l.036-2.719c.143-3.96 2.182-6.315 4.966-7.363 1.75-.66 3.448-.572 5.484-.361 2.982.36 4.814 1.678 5.731 4.124.573 1.53.6 1.892.66 9.12.042 4.96.022 6.865-.073 7.042-.122.226-.222.242-1.492.242-.976 0-1.397-.041-1.486-.148-.084-.1-.135-2.314-.159-6.983-.034-6.63-.043-6.858-.28-7.55-.67-1.95-2.035-2.805-4.147-3.024-2.827-.293-4.798.575-5.72 2.671-.594 1.465-.443 2.87-.45 4.485l-.047 3.876a276 276 0 0 1-.056 5.107c-.027 1.024-.064 1.443-.116 1.476-.092.058-.749.086-1.405.085-.657-.001-1.314-.031-1.407-.09zM151.88 23.721l.02-11.016.305-.025.304-.025v1.907c0 1.049.032 1.926.07 1.95s.189-.184.334-.462c.542-1.035 1.062-1.685 1.877-2.344.508-.412.876-.62 1.899-1.08 1.25-.56 3.773-.558 5.043.006.14.062.29.114.332.114s.238.09.434.201c.197.111.413.226.48.255.46.2 1.6 1.251 2.005 1.847.124.184.248.352.274.375.027.022.186.332.354.69.168.356.338.712.378.79.04.077.074.205.076.283.002.08.056.29.12.468.063.179.157.768.208 1.31.141 1.494-.03 2.958-.467 4.006-.363.868-.813 1.636-1.275 2.173-.435.506-1.265 1.233-1.41 1.234-.055 0-.1.03-.1.067 0 .08-1.163.664-1.32.664a.3.3 0 0 0-.19.08c-.075.076-.377.155-1.25.326-.2.04-.73.072-1.177.072s-.976-.033-1.176-.072c-.78-.153-1.134-.24-1.275-.313a8 8 0 0 0-.51-.222c-.609-.243-1.444-.819-2.023-1.395-.678-.675-.953-1.042-1.304-1.738-.15-.299-.303-.525-.34-.502s-.067 2.595-.067 5.717v5.676h-.65zm8.682 3.159c1.55-.27 3.133-1.334 4.003-2.692 1.925-3.003 1.512-7.277-.931-9.638-1.155-1.116-2.846-1.805-4.43-1.805-1.284 0-2.848.535-3.92 1.34-.515.387-1.395 1.327-1.395 1.49 0 .05-.031.092-.07.092-.116 0-.788 1.385-.964 1.988-.363 1.238-.432 2.555-.197 3.744.505 2.559 2.362 4.693 4.64 5.33.245.07.592.161.77.205.38.094 1.825.062 2.494-.054m13.696.637c-.814-.204-.962-.25-1.182-.364-.13-.068-.283-.124-.34-.124-.055 0-.1-.034-.1-.073 0-.04-.091-.095-.202-.123-.307-.077-1.19-.955-1.45-1.44-.326-.611-.459-1.185-.459-1.988 0-1.064.271-1.86.861-2.533.776-.885 2.015-1.557 3.522-1.91.803-.19 3.094-.374 4.63-.374h1.375v-1.103c0-1.111-.083-1.611-.387-2.346-.331-.797-1.124-1.566-2.012-1.948-.507-.22-1.642-.446-2.23-.446-1.126 0-2.988.574-3.574 1.102-.07.064-.17.115-.223.115s-.095.028-.096.061c0 .034-.131.15-.292.26l-.291.198-.153-.198c-.179-.234-.18-.242-.052-.406.353-.45 2.401-1.456 2.964-1.456.08 0 .191-.046.247-.101.072-.073.472-.1 1.416-.097 1.326.003 1.829.084 2.545.407.14.063.281.115.313.115.164 0 1.203.782 1.433 1.08.146.187.285.359.309.381.056.053.36.703.474 1.014.252.685.282 1.247.336 6.127.039 3.547.083 5.057.15 5.22.053.125.097.3.097.39 0 .14-.046.158-.345.137l-.345-.025-.058-.65a56 56 0 0 1-.112-1.646c-.03-.56-.086-.987-.129-.973-.042.014-.158.227-.257.472a5.25 5.25 0 0 1-1.571 2.091c-.436.342-1.52.892-1.89.96-.156.028-.33.087-.386.132-.132.105-2.166.155-2.536.062m2.547-.646c1.04-.2 2.13-.9 2.868-1.84.848-1.082 1.24-2.518 1.24-4.549v-1.245l-1.725.009c-2.796.013-4.307.206-5.388.689-.14.063-.277.114-.303.114-.125 0-.941.55-1.255.844-.48.451-.733.867-.915 1.502-.387 1.356-.022 2.706.973 3.591.45.4 1.249.783 1.778.852.21.027.438.082.505.121.153.09 1.59.033 2.223-.088m15.874.64c-.618-.108-1.173-.253-1.253-.33a.32.32 0 0 0-.19-.072c-.362 0-1.84-.923-2.46-1.536-.71-.702-1.586-2.127-1.796-2.92-.546-2.059-.523-3.883.07-5.607.26-.755.578-1.335 1.133-2.07.482-.637.674-.827 1.372-1.354.816-.617 1.284-.835 2.76-1.285.393-.12 1.984-.177 2.556-.091 1.437.215 2.677.772 3.564 1.602l.277.26-.226.209c-.243.225-.336.21-.669-.103-.852-.804-2.64-1.474-3.92-1.469-.557.002-1.76.228-2.324.437a6.9 6.9 0 0 0-1.804 1.063c-.419.358-.822.777-.822.854 0 .044-.028.08-.063.08-.089 0-.586.772-.848 1.316-.54 1.122-.753 2.091-.753 3.432 0 1.33.213 2.308.75 3.442.634 1.341 1.896 2.563 3.189 3.09.244.099.516.212.605.251.86.378 3.13.359 4.275-.036.84-.29 2.096-1.005 2.096-1.194 0-.041.036-.075.081-.075.117 0 .407.307.402.426-.008.232-1.147.96-2.147 1.374-.175.073-.734.198-1.38.31-.495.085-1.975.083-2.475-.004m15.216.036c-.948-.132-2.313-.697-3.124-1.292-.486-.356-1.379-1.289-1.669-1.743a8.7 8.7 0 0 1-.879-1.907c-.079-.268-.182-.596-.23-.73-.12-.346-.178-3.156-.074-3.652.283-1.345.633-2.218 1.252-3.117.36-.523 1.131-1.387 1.238-1.387.025 0 .113-.064.197-.142.242-.226 1.225-.787 1.626-.929 1.181-.417 1.216-.423 2.611-.421.824 0 1.395.035 1.46.087.06.047.246.11.414.14s.54.16.827.29c1.686.756 2.828 2.013 3.437 3.78.275.8.527 2.25.487 2.804l-.025.356-12.966.041.057.79c.06.834.283 1.83.547 2.45.27.63.585 1.223.652 1.223.036 0 .065.045.065.101 0 .16.86 1.082 1.366 1.466.474.36 1.283.78 1.821.947.17.052.68.149 1.137.215.677.097.97.102 1.6.025 1.745-.213 2.91-.767 4.027-1.916.318-.327.604-.595.636-.595s.144.067.249.15c.187.147.187.153.045.387-.183.302-1.381 1.41-1.523 1.41-.06 0-.107.029-.107.062 0 .061-.74.46-1.298.699-.646.276-1.352.396-2.476.42-.624.012-1.245.007-1.38-.012zm6.858-8.913c0-.443-.22-1.497-.406-1.953-.904-2.209-2.267-3.364-4.492-3.808-1.802-.36-3.739.155-5.03 1.339-.619.567-1.29 1.414-1.506 1.901-.04.09-.167.37-.284.624s-.211.502-.211.553c0 .05-.053.262-.116.471-.064.21-.135.59-.157.847l-.04.467h12.242zM140.7 27.417c-1.032-.259-1.578-.48-2.232-.906-.404-.263-1.38-1.213-1.38-1.344 0-.146.389-.347.565-.29.091.028.166.079.166.111 0 .068.513.606.848.89.299.253 1.2.69 1.749.847.854.244 2.739.238 3.223-.01.08-.04.336-.158.57-.26.235-.102.427-.215.427-.252s.045-.069.101-.07c.108-.002.765-.66.931-.931.385-.63.452-.888.452-1.745 0-.7-.031-.92-.174-1.228-.53-1.15-1.664-1.794-4.272-2.429a4 4 0 0 1-.487-.147c-.09-.037-.382-.135-.65-.218-.89-.273-1.915-.89-2.245-1.352-.288-.403-.473-.775-.473-.95 0-.087-.037-.18-.081-.208-.113-.07-.103-1.626.012-1.983.409-1.267 1.344-2.107 2.869-2.575.682-.21 2.395-.209 3.084.001 1.104.337 1.507.564 2.214 1.249.512.495.591.606.505.71-.056.067-.152.122-.214.122-.061 0-.111.037-.111.082 0 .16-.132.072-.696-.467-1.194-1.141-2.783-1.56-4.417-1.166a6.4 6.4 0 0 0-1.014.339c-.443.21-1.158.878-1.32 1.233-.055.122-.146.32-.202.439-.063.133-.099.541-.094 1.075.005.682.042.937.174 1.233.356.794 1.096 1.341 2.294 1.695.334.1.765.231.956.293.191.063.406.114.476.114.116 0 .701.171 1.124.329.09.033.4.144.69.246.983.347 1.794.918 2.21 1.556.439.675.55 1.063.547 1.929-.003 1.2-.386 2.117-1.215 2.91-.27.257-.964.701-1.218.778a1.1 1.1 0 0 0-.292.134c-.3.238-2.703.391-3.4.216z"/><g style="fill:#b3b3b3" transform="matrix(1.27626 0 0 1.38383 118.599 38.91)"><ellipse cx="-1.325" cy="-13.203" fill="#000" rx="4.625" ry="4.278" style="fill:#b3b3b3;stroke-width:1.34792"/><path fill="#888" d="M-.43-12.183c.841-1.167 2.803-.908 3.084.389-.42 1.037-1.682 1.296-2.523.777-.841-.389-1.121-.777-.56-1.166" style="display:inline;fill:#333;stroke-width:1.34792"/><path d="m-2.666-15.904-1.444 1.18-.028 1.488.041 1.018-.137 1.08.935-.161.303-.484.481-.522h.317l1.417-.732.688-.645.371-1.13-1.18-.316-.416-.615-.921-.347z" style="fill:#4d4d4d;stroke:#4d4d4d;stroke-width:.642605px;stroke-linecap:butt;stroke-linejoin:miter;stroke-opacity:1"/></g><g style="fill:#b3b3b3" transform="matrix(.39162 0 0 .41102 98.005 17.18)"><ellipse cx="-1.325" cy="-13.203" fill="#000" rx="4.625" ry="4.278" style="fill:#b3b3b3;stroke-width:1.34792"/><ellipse cx="99.284" cy="144.834" rx=".157" ry=".049" style="fill:#4d4d4d;stroke:#4d4d4d;stroke-width:.264583" transform="matrix(2.55343 0 0 2.43296 -253.612 -367.618)"/><ellipse cx="99.042" cy="147.001" rx=".128" ry=".01" style="fill:#4d4d4d;stroke:#4d4d4d;stroke-width:.264583" transform="matrix(2.55343 0 0 2.43296 -253.612 -367.618)"/><ellipse cx="98.762" cy="145.863" rx=".059" ry=".088" style="fill:#4d4d4d;stroke:#4d4d4d;stroke-width:.264583" transform="matrix(2.55343 0 0 2.43296 -253.612 -367.618)"/><ellipse cx="97.942" cy="145.04" rx=".098" ry=".147" style="fill:#4d4d4d;stroke:#4d4d4d;stroke-width:.264583" transform="matrix(2.55343 0 0 2.43296 -253.612 -367.618)"/></g><path d="M79.146 13.318c-2.24-.565-4.342-2.073-5.71-4.096-1.137-1.734-1.46-2.316-2-4.447-.374-1.46-.35-3.567.062-4.96.384-1.301 1.269-3.24 1.908-4.178 1.375-2.02 3.372-3.487 5.59-4.11 1.155-.325 3.373-.347 4.519-.046 1.036.272 2.44.965 3.36 1.656.814.612 3.25 3.238 3.25 3.503 0 .2-2.244 2.776-2.418 2.776-.073 0-.36-.27-.64-.598-1.061-1.254-2.113-2.27-2.735-2.642-1.768-1.059-3.956-1.14-5.68-.21-.611.331-2.371 2.097-2.946 2.958-1.685 3.2-1.024 5.57.703 7.88 1.216 1.617 2.289 2.303 4.13 2.64 1.446.266 3.203-.26 4.512-1.348.349-.29 3.356-3.595 6.683-7.343 3.452-3.889 6.377-7.084 6.813-7.44.88-.72 2.508-1.551 3.593-1.834 1.147-.299 3.366-.276 4.517.048 2.264.636 4.305 2.157 5.638 4.2.724 1.11 1.62 3.1 1.92 4.259.376 1.457.35 3.566-.06 4.96-.292.994-.429 1.682-1 2.74-.215.4-.9 1.475-1.085 1.73-3.137 4.36-8.797 5.453-12.96 2.5-.983-.696-3.642-3.46-3.637-3.777.003-.19 2.293-2.68 2.464-2.68.087 0 .655.558 1.263 1.24 1.602 1.797 2.597 2.426 4.347 2.748.62.114.931.114 1.552 0 1.405-.258 1.966-.532 2.89-1.412 2.08-1.985 2.833-3.336 2.965-5.313.137-2.045-.78-4.052-2.63-5.763-1.225-1.134-2.482-1.65-3.996-1.645a5.7 5.7 0 0 0-3.737 1.386c-.305.267-3.23 3.488-6.5 7.159s-6.228 6.94-6.576 7.263q-1.74 1.62-4.113 2.213c-1.158.29-3.071.28-4.256-.017" style="fill:#000;stroke-width:.999984" transform="translate(13.069 15.18)"/></svg>